<?xml version="1.0" encoding="utf-8" standalone="no"?>
<!DOCTYPE svg PUBLIC "-//W3C//DTD SVG 1.1//EN"
  "http://www.w3.org/Graphics/SVG/1.1/DTD/svg11.dtd">
<!-- Created with matplotlib (https://matplotlib.org/) -->
<svg height="820.590156pt" version="1.1" viewBox="0 0 1357.6175 820.590156" width="1357.6175pt" xmlns="http://www.w3.org/2000/svg" xmlns:xlink="http://www.w3.org/1999/xlink">
 <defs>
  <style type="text/css">
*{stroke-linecap:butt;stroke-linejoin:round;}
  </style>
 </defs>
 <g id="figure_1">
  <g id="patch_1">
   <path d="M 0 820.590156 
L 1357.6175 820.590156 
L 1357.6175 0 
L 0 0 
z
" style="fill:#ffffff;"/>
  </g>
  <g id="axes_1">
   <g id="patch_2">
    <path d="M 105.9175 361.485554 
L 1110.3175 361.485554 
L 1110.3175 15.558281 
L 105.9175 15.558281 
z
" style="fill:#ffffff;"/>
   </g>
   <g id="PathCollection_1"/>
   <g id="PathCollection_2"/>
   <g id="PathCollection_3"/>
   <g id="PathCollection_4"/>
   <g id="matplotlib.axis_1">
    <g id="xtick_1">
     <g id="line2d_1">
      <defs>
       <path d="M 0 0 
L 0 12 
" id="m49cf0ea55a" style="stroke:#000000;stroke-width:2.5;"/>
      </defs>
      <g>
       <use style="stroke:#000000;stroke-width:2.5;" x="231.4675" xlink:href="#m49cf0ea55a" y="361.485554"/>
      </g>
     </g>
     <g id="text_1">
      <!-- Bakta-LongRead -->
      <defs>
       <path d="M 19.671875 34.8125 
L 19.671875 8.109375 
L 35.5 8.109375 
Q 43.453125 8.109375 47.28125 11.40625 
Q 51.125 14.703125 51.125 21.484375 
Q 51.125 28.328125 47.28125 31.5625 
Q 43.453125 34.8125 35.5 34.8125 
z
M 19.671875 64.796875 
L 19.671875 42.828125 
L 34.28125 42.828125 
Q 41.5 42.828125 45.03125 45.53125 
Q 48.578125 48.25 48.578125 53.8125 
Q 48.578125 59.328125 45.03125 62.0625 
Q 41.5 64.796875 34.28125 64.796875 
z
M 9.8125 72.90625 
L 35.015625 72.90625 
Q 46.296875 72.90625 52.390625 68.21875 
Q 58.5 63.53125 58.5 54.890625 
Q 58.5 48.1875 55.375 44.234375 
Q 52.25 40.28125 46.1875 39.3125 
Q 53.46875 37.75 57.5 32.78125 
Q 61.53125 27.828125 61.53125 20.40625 
Q 61.53125 10.640625 54.890625 5.3125 
Q 48.25 0 35.984375 0 
L 9.8125 0 
z
" id="DejaVuSans-66"/>
       <path d="M 34.28125 27.484375 
Q 23.390625 27.484375 19.1875 25 
Q 14.984375 22.515625 14.984375 16.5 
Q 14.984375 11.71875 18.140625 8.90625 
Q 21.296875 6.109375 26.703125 6.109375 
Q 34.1875 6.109375 38.703125 11.40625 
Q 43.21875 16.703125 43.21875 25.484375 
L 43.21875 27.484375 
z
M 52.203125 31.203125 
L 52.203125 0 
L 43.21875 0 
L 43.21875 8.296875 
Q 40.140625 3.328125 35.546875 0.953125 
Q 30.953125 -1.421875 24.3125 -1.421875 
Q 15.921875 -1.421875 10.953125 3.296875 
Q 6 8.015625 6 15.921875 
Q 6 25.140625 12.171875 29.828125 
Q 18.359375 34.515625 30.609375 34.515625 
L 43.21875 34.515625 
L 43.21875 35.40625 
Q 43.21875 41.609375 39.140625 45 
Q 35.0625 48.390625 27.6875 48.390625 
Q 23 48.390625 18.546875 47.265625 
Q 14.109375 46.140625 10.015625 43.890625 
L 10.015625 52.203125 
Q 14.9375 54.109375 19.578125 55.046875 
Q 24.21875 56 28.609375 56 
Q 40.484375 56 46.34375 49.84375 
Q 52.203125 43.703125 52.203125 31.203125 
z
" id="DejaVuSans-97"/>
       <path d="M 9.078125 75.984375 
L 18.109375 75.984375 
L 18.109375 31.109375 
L 44.921875 54.6875 
L 56.390625 54.6875 
L 27.390625 29.109375 
L 57.625 0 
L 45.90625 0 
L 18.109375 26.703125 
L 18.109375 0 
L 9.078125 0 
z
" id="DejaVuSans-107"/>
       <path d="M 18.3125 70.21875 
L 18.3125 54.6875 
L 36.8125 54.6875 
L 36.8125 47.703125 
L 18.3125 47.703125 
L 18.3125 18.015625 
Q 18.3125 11.328125 20.140625 9.421875 
Q 21.96875 7.515625 27.59375 7.515625 
L 36.8125 7.515625 
L 36.8125 0 
L 27.59375 0 
Q 17.1875 0 13.234375 3.875 
Q 9.28125 7.765625 9.28125 18.015625 
L 9.28125 47.703125 
L 2.6875 47.703125 
L 2.6875 54.6875 
L 9.28125 54.6875 
L 9.28125 70.21875 
z
" id="DejaVuSans-116"/>
       <path d="M 4.890625 31.390625 
L 31.203125 31.390625 
L 31.203125 23.390625 
L 4.890625 23.390625 
z
" id="DejaVuSans-45"/>
       <path d="M 9.8125 72.90625 
L 19.671875 72.90625 
L 19.671875 8.296875 
L 55.171875 8.296875 
L 55.171875 0 
L 9.8125 0 
z
" id="DejaVuSans-76"/>
       <path d="M 30.609375 48.390625 
Q 23.390625 48.390625 19.1875 42.75 
Q 14.984375 37.109375 14.984375 27.296875 
Q 14.984375 17.484375 19.15625 11.84375 
Q 23.34375 6.203125 30.609375 6.203125 
Q 37.796875 6.203125 41.984375 11.859375 
Q 46.1875 17.53125 46.1875 27.296875 
Q 46.1875 37.015625 41.984375 42.703125 
Q 37.796875 48.390625 30.609375 48.390625 
z
M 30.609375 56 
Q 42.328125 56 49.015625 48.375 
Q 55.71875 40.765625 55.71875 27.296875 
Q 55.71875 13.875 49.015625 6.21875 
Q 42.328125 -1.421875 30.609375 -1.421875 
Q 18.84375 -1.421875 12.171875 6.21875 
Q 5.515625 13.875 5.515625 27.296875 
Q 5.515625 40.765625 12.171875 48.375 
Q 18.84375 56 30.609375 56 
z
" id="DejaVuSans-111"/>
       <path d="M 54.890625 33.015625 
L 54.890625 0 
L 45.90625 0 
L 45.90625 32.71875 
Q 45.90625 40.484375 42.875 44.328125 
Q 39.84375 48.1875 33.796875 48.1875 
Q 26.515625 48.1875 22.3125 43.546875 
Q 18.109375 38.921875 18.109375 30.90625 
L 18.109375 0 
L 9.078125 0 
L 9.078125 54.6875 
L 18.109375 54.6875 
L 18.109375 46.1875 
Q 21.34375 51.125 25.703125 53.5625 
Q 30.078125 56 35.796875 56 
Q 45.21875 56 50.046875 50.171875 
Q 54.890625 44.34375 54.890625 33.015625 
z
" id="DejaVuSans-110"/>
       <path d="M 45.40625 27.984375 
Q 45.40625 37.75 41.375 43.109375 
Q 37.359375 48.484375 30.078125 48.484375 
Q 22.859375 48.484375 18.828125 43.109375 
Q 14.796875 37.75 14.796875 27.984375 
Q 14.796875 18.265625 18.828125 12.890625 
Q 22.859375 7.515625 30.078125 7.515625 
Q 37.359375 7.515625 41.375 12.890625 
Q 45.40625 18.265625 45.40625 27.984375 
z
M 54.390625 6.78125 
Q 54.390625 -7.171875 48.1875 -13.984375 
Q 42 -20.796875 29.203125 -20.796875 
Q 24.46875 -20.796875 20.265625 -20.09375 
Q 16.0625 -19.390625 12.109375 -17.921875 
L 12.109375 -9.1875 
Q 16.0625 -11.328125 19.921875 -12.34375 
Q 23.78125 -13.375 27.78125 -13.375 
Q 36.625 -13.375 41.015625 -8.765625 
Q 45.40625 -4.15625 45.40625 5.171875 
L 45.40625 9.625 
Q 42.625 4.78125 38.28125 2.390625 
Q 33.9375 0 27.875 0 
Q 17.828125 0 11.671875 7.65625 
Q 5.515625 15.328125 5.515625 27.984375 
Q 5.515625 40.671875 11.671875 48.328125 
Q 17.828125 56 27.875 56 
Q 33.9375 56 38.28125 53.609375 
Q 42.625 51.21875 45.40625 46.390625 
L 45.40625 54.6875 
L 54.390625 54.6875 
z
" id="DejaVuSans-103"/>
       <path d="M 44.390625 34.1875 
Q 47.5625 33.109375 50.5625 29.59375 
Q 53.5625 26.078125 56.59375 19.921875 
L 66.609375 0 
L 56 0 
L 46.6875 18.703125 
Q 43.0625 26.03125 39.671875 28.421875 
Q 36.28125 30.8125 30.421875 30.8125 
L 19.671875 30.8125 
L 19.671875 0 
L 9.8125 0 
L 9.8125 72.90625 
L 32.078125 72.90625 
Q 44.578125 72.90625 50.734375 67.671875 
Q 56.890625 62.453125 56.890625 51.90625 
Q 56.890625 45.015625 53.6875 40.46875 
Q 50.484375 35.9375 44.390625 34.1875 
z
M 19.671875 64.796875 
L 19.671875 38.921875 
L 32.078125 38.921875 
Q 39.203125 38.921875 42.84375 42.21875 
Q 46.484375 45.515625 46.484375 51.90625 
Q 46.484375 58.296875 42.84375 61.546875 
Q 39.203125 64.796875 32.078125 64.796875 
z
" id="DejaVuSans-82"/>
       <path d="M 56.203125 29.59375 
L 56.203125 25.203125 
L 14.890625 25.203125 
Q 15.484375 15.921875 20.484375 11.0625 
Q 25.484375 6.203125 34.421875 6.203125 
Q 39.59375 6.203125 44.453125 7.46875 
Q 49.3125 8.734375 54.109375 11.28125 
L 54.109375 2.78125 
Q 49.265625 0.734375 44.1875 -0.34375 
Q 39.109375 -1.421875 33.890625 -1.421875 
Q 20.796875 -1.421875 13.15625 6.1875 
Q 5.515625 13.8125 5.515625 26.8125 
Q 5.515625 40.234375 12.765625 48.109375 
Q 20.015625 56 32.328125 56 
Q 43.359375 56 49.78125 48.890625 
Q 56.203125 41.796875 56.203125 29.59375 
z
M 47.21875 32.234375 
Q 47.125 39.59375 43.09375 43.984375 
Q 39.0625 48.390625 32.421875 48.390625 
Q 24.90625 48.390625 20.390625 44.140625 
Q 15.875 39.890625 15.1875 32.171875 
z
" id="DejaVuSans-101"/>
       <path d="M 45.40625 46.390625 
L 45.40625 75.984375 
L 54.390625 75.984375 
L 54.390625 0 
L 45.40625 0 
L 45.40625 8.203125 
Q 42.578125 3.328125 38.25 0.953125 
Q 33.9375 -1.421875 27.875 -1.421875 
Q 17.96875 -1.421875 11.734375 6.484375 
Q 5.515625 14.40625 5.515625 27.296875 
Q 5.515625 40.1875 11.734375 48.09375 
Q 17.96875 56 27.875 56 
Q 33.9375 56 38.25 53.625 
Q 42.578125 51.265625 45.40625 46.390625 
z
M 14.796875 27.296875 
Q 14.796875 17.390625 18.875 11.75 
Q 22.953125 6.109375 30.078125 6.109375 
Q 37.203125 6.109375 41.296875 11.75 
Q 45.40625 17.390625 45.40625 27.296875 
Q 45.40625 37.203125 41.296875 42.84375 
Q 37.203125 48.484375 30.078125 48.484375 
Q 22.953125 48.484375 18.875 42.84375 
Q 14.796875 37.203125 14.796875 27.296875 
z
" id="DejaVuSans-100"/>
      </defs>
      <g transform="translate(140.846406 393.702116)scale(0.22 -0.22)">
       <use xlink:href="#DejaVuSans-66"/>
       <use x="68.603516" xlink:href="#DejaVuSans-97"/>
       <use x="129.882812" xlink:href="#DejaVuSans-107"/>
       <use x="187.792969" xlink:href="#DejaVuSans-116"/>
       <use x="227.001953" xlink:href="#DejaVuSans-97"/>
       <use x="288.28125" xlink:href="#DejaVuSans-45"/>
       <use x="324.365234" xlink:href="#DejaVuSans-76"/>
       <use x="380.0625" xlink:href="#DejaVuSans-111"/>
       <use x="441.244141" xlink:href="#DejaVuSans-110"/>
       <use x="504.623047" xlink:href="#DejaVuSans-103"/>
       <use x="568.099609" xlink:href="#DejaVuSans-82"/>
       <use x="637.519531" xlink:href="#DejaVuSans-101"/>
       <use x="699.042969" xlink:href="#DejaVuSans-97"/>
       <use x="760.322266" xlink:href="#DejaVuSans-100"/>
      </g>
     </g>
    </g>
    <g id="xtick_2">
     <g id="line2d_2">
      <g>
       <use style="stroke:#000000;stroke-width:2.5;" x="482.5675" xlink:href="#m49cf0ea55a" y="361.485554"/>
      </g>
     </g>
     <g id="text_2">
      <!-- Bakta-ShortRead -->
      <defs>
       <path d="M 53.515625 70.515625 
L 53.515625 60.890625 
Q 47.90625 63.578125 42.921875 64.890625 
Q 37.9375 66.21875 33.296875 66.21875 
Q 25.25 66.21875 20.875 63.09375 
Q 16.5 59.96875 16.5 54.203125 
Q 16.5 49.359375 19.40625 46.890625 
Q 22.3125 44.4375 30.421875 42.921875 
L 36.375 41.703125 
Q 47.40625 39.59375 52.65625 34.296875 
Q 57.90625 29 57.90625 20.125 
Q 57.90625 9.515625 50.796875 4.046875 
Q 43.703125 -1.421875 29.984375 -1.421875 
Q 24.8125 -1.421875 18.96875 -0.25 
Q 13.140625 0.921875 6.890625 3.21875 
L 6.890625 13.375 
Q 12.890625 10.015625 18.65625 8.296875 
Q 24.421875 6.59375 29.984375 6.59375 
Q 38.421875 6.59375 43.015625 9.90625 
Q 47.609375 13.234375 47.609375 19.390625 
Q 47.609375 24.75 44.3125 27.78125 
Q 41.015625 30.8125 33.5 32.328125 
L 27.484375 33.5 
Q 16.453125 35.6875 11.515625 40.375 
Q 6.59375 45.0625 6.59375 53.421875 
Q 6.59375 63.09375 13.40625 68.65625 
Q 20.21875 74.21875 32.171875 74.21875 
Q 37.3125 74.21875 42.625 73.28125 
Q 47.953125 72.359375 53.515625 70.515625 
z
" id="DejaVuSans-83"/>
       <path d="M 54.890625 33.015625 
L 54.890625 0 
L 45.90625 0 
L 45.90625 32.71875 
Q 45.90625 40.484375 42.875 44.328125 
Q 39.84375 48.1875 33.796875 48.1875 
Q 26.515625 48.1875 22.3125 43.546875 
Q 18.109375 38.921875 18.109375 30.90625 
L 18.109375 0 
L 9.078125 0 
L 9.078125 75.984375 
L 18.109375 75.984375 
L 18.109375 46.1875 
Q 21.34375 51.125 25.703125 53.5625 
Q 30.078125 56 35.796875 56 
Q 45.21875 56 50.046875 50.171875 
Q 54.890625 44.34375 54.890625 33.015625 
z
" id="DejaVuSans-104"/>
       <path d="M 41.109375 46.296875 
Q 39.59375 47.171875 37.8125 47.578125 
Q 36.03125 48 33.890625 48 
Q 26.265625 48 22.1875 43.046875 
Q 18.109375 38.09375 18.109375 28.8125 
L 18.109375 0 
L 9.078125 0 
L 9.078125 54.6875 
L 18.109375 54.6875 
L 18.109375 46.1875 
Q 20.953125 51.171875 25.484375 53.578125 
Q 30.03125 56 36.53125 56 
Q 37.453125 56 38.578125 55.875 
Q 39.703125 55.765625 41.0625 55.515625 
z
" id="DejaVuSans-114"/>
      </defs>
      <g transform="translate(389.239375 393.702116)scale(0.22 -0.22)">
       <use xlink:href="#DejaVuSans-66"/>
       <use x="68.603516" xlink:href="#DejaVuSans-97"/>
       <use x="129.882812" xlink:href="#DejaVuSans-107"/>
       <use x="187.792969" xlink:href="#DejaVuSans-116"/>
       <use x="227.001953" xlink:href="#DejaVuSans-97"/>
       <use x="288.28125" xlink:href="#DejaVuSans-45"/>
       <use x="324.365234" xlink:href="#DejaVuSans-83"/>
       <use x="387.841797" xlink:href="#DejaVuSans-104"/>
       <use x="451.220703" xlink:href="#DejaVuSans-111"/>
       <use x="512.402344" xlink:href="#DejaVuSans-114"/>
       <use x="553.515625" xlink:href="#DejaVuSans-116"/>
       <use x="592.724609" xlink:href="#DejaVuSans-82"/>
       <use x="662.144531" xlink:href="#DejaVuSans-101"/>
       <use x="723.667969" xlink:href="#DejaVuSans-97"/>
       <use x="784.947266" xlink:href="#DejaVuSans-100"/>
      </g>
     </g>
    </g>
    <g id="xtick_3">
     <g id="line2d_3">
      <g>
       <use style="stroke:#000000;stroke-width:2.5;" x="733.6675" xlink:href="#m49cf0ea55a" y="361.485554"/>
      </g>
     </g>
     <g id="text_3">
      <!-- PGAP-LongRead -->
      <defs>
       <path d="M 19.671875 64.796875 
L 19.671875 37.40625 
L 32.078125 37.40625 
Q 38.96875 37.40625 42.71875 40.96875 
Q 46.484375 44.53125 46.484375 51.125 
Q 46.484375 57.671875 42.71875 61.234375 
Q 38.96875 64.796875 32.078125 64.796875 
z
M 9.8125 72.90625 
L 32.078125 72.90625 
Q 44.34375 72.90625 50.609375 67.359375 
Q 56.890625 61.8125 56.890625 51.125 
Q 56.890625 40.328125 50.609375 34.8125 
Q 44.34375 29.296875 32.078125 29.296875 
L 19.671875 29.296875 
L 19.671875 0 
L 9.8125 0 
z
" id="DejaVuSans-80"/>
       <path d="M 59.515625 10.40625 
L 59.515625 29.984375 
L 43.40625 29.984375 
L 43.40625 38.09375 
L 69.28125 38.09375 
L 69.28125 6.78125 
Q 63.578125 2.734375 56.6875 0.65625 
Q 49.8125 -1.421875 42 -1.421875 
Q 24.90625 -1.421875 15.25 8.5625 
Q 5.609375 18.5625 5.609375 36.375 
Q 5.609375 54.25 15.25 64.234375 
Q 24.90625 74.21875 42 74.21875 
Q 49.125 74.21875 55.546875 72.453125 
Q 61.96875 70.703125 67.390625 67.28125 
L 67.390625 56.78125 
Q 61.921875 61.421875 55.765625 63.765625 
Q 49.609375 66.109375 42.828125 66.109375 
Q 29.4375 66.109375 22.71875 58.640625 
Q 16.015625 51.171875 16.015625 36.375 
Q 16.015625 21.625 22.71875 14.15625 
Q 29.4375 6.6875 42.828125 6.6875 
Q 48.046875 6.6875 52.140625 7.59375 
Q 56.25 8.5 59.515625 10.40625 
z
" id="DejaVuSans-71"/>
       <path d="M 34.1875 63.1875 
L 20.796875 26.90625 
L 47.609375 26.90625 
z
M 28.609375 72.90625 
L 39.796875 72.90625 
L 67.578125 0 
L 57.328125 0 
L 50.6875 18.703125 
L 17.828125 18.703125 
L 11.1875 0 
L 0.78125 0 
z
" id="DejaVuSans-65"/>
      </defs>
      <g transform="translate(645.4475 393.702116)scale(0.22 -0.22)">
       <use xlink:href="#DejaVuSans-80"/>
       <use x="60.302734" xlink:href="#DejaVuSans-71"/>
       <use x="137.792969" xlink:href="#DejaVuSans-65"/>
       <use x="206.201172" xlink:href="#DejaVuSans-80"/>
       <use x="266.472656" xlink:href="#DejaVuSans-45"/>
       <use x="302.556641" xlink:href="#DejaVuSans-76"/>
       <use x="358.253906" xlink:href="#DejaVuSans-111"/>
       <use x="419.435547" xlink:href="#DejaVuSans-110"/>
       <use x="482.814453" xlink:href="#DejaVuSans-103"/>
       <use x="546.291016" xlink:href="#DejaVuSans-82"/>
       <use x="615.710938" xlink:href="#DejaVuSans-101"/>
       <use x="677.234375" xlink:href="#DejaVuSans-97"/>
       <use x="738.513672" xlink:href="#DejaVuSans-100"/>
      </g>
     </g>
    </g>
    <g id="xtick_4">
     <g id="line2d_4">
      <g>
       <use style="stroke:#000000;stroke-width:2.5;" x="984.7675" xlink:href="#m49cf0ea55a" y="361.485554"/>
      </g>
     </g>
     <g id="text_4">
      <!-- PGAP-ShortRead -->
      <g transform="translate(893.840469 393.702116)scale(0.22 -0.22)">
       <use xlink:href="#DejaVuSans-80"/>
       <use x="60.302734" xlink:href="#DejaVuSans-71"/>
       <use x="137.792969" xlink:href="#DejaVuSans-65"/>
       <use x="206.201172" xlink:href="#DejaVuSans-80"/>
       <use x="266.472656" xlink:href="#DejaVuSans-45"/>
       <use x="302.556641" xlink:href="#DejaVuSans-83"/>
       <use x="366.033203" xlink:href="#DejaVuSans-104"/>
       <use x="429.412109" xlink:href="#DejaVuSans-111"/>
       <use x="490.59375" xlink:href="#DejaVuSans-114"/>
       <use x="531.707031" xlink:href="#DejaVuSans-116"/>
       <use x="570.916016" xlink:href="#DejaVuSans-82"/>
       <use x="640.335938" xlink:href="#DejaVuSans-101"/>
       <use x="701.859375" xlink:href="#DejaVuSans-97"/>
       <use x="763.138672" xlink:href="#DejaVuSans-100"/>
      </g>
     </g>
    </g>
   </g>
   <g id="matplotlib.axis_2">
    <g id="ytick_1">
     <g id="line2d_5">
      <defs>
       <path d="M 0 0 
L -12 0 
" id="mf92a1f2ceb" style="stroke:#000000;stroke-width:2.5;"/>
      </defs>
      <g>
       <use style="stroke:#000000;stroke-width:2.5;" x="105.9175" xlink:href="#mf92a1f2ceb" y="361.485554"/>
      </g>
     </g>
     <g id="text_5">
      <!-- 0 -->
      <defs>
       <path d="M 31.78125 66.40625 
Q 24.171875 66.40625 20.328125 58.90625 
Q 16.5 51.421875 16.5 36.375 
Q 16.5 21.390625 20.328125 13.890625 
Q 24.171875 6.390625 31.78125 6.390625 
Q 39.453125 6.390625 43.28125 13.890625 
Q 47.125 21.390625 47.125 36.375 
Q 47.125 51.421875 43.28125 58.90625 
Q 39.453125 66.40625 31.78125 66.40625 
z
M 31.78125 74.21875 
Q 44.046875 74.21875 50.515625 64.515625 
Q 56.984375 54.828125 56.984375 36.375 
Q 56.984375 17.96875 50.515625 8.265625 
Q 44.046875 -1.421875 31.78125 -1.421875 
Q 19.53125 -1.421875 13.0625 8.265625 
Q 6.59375 17.96875 6.59375 36.375 
Q 6.59375 54.828125 13.0625 64.515625 
Q 19.53125 74.21875 31.78125 74.21875 
z
" id="DejaVuSans-48"/>
      </defs>
      <g transform="translate(76.42 369.843835)scale(0.22 -0.22)">
       <use xlink:href="#DejaVuSans-48"/>
      </g>
     </g>
    </g>
    <g id="ytick_2">
     <g id="line2d_6">
      <g>
       <use style="stroke:#000000;stroke-width:2.5;" x="105.9175" xlink:href="#mf92a1f2ceb" y="275.003736"/>
      </g>
     </g>
     <g id="text_6">
      <!-- 1000 -->
      <defs>
       <path d="M 12.40625 8.296875 
L 28.515625 8.296875 
L 28.515625 63.921875 
L 10.984375 60.40625 
L 10.984375 69.390625 
L 28.421875 72.90625 
L 38.28125 72.90625 
L 38.28125 8.296875 
L 54.390625 8.296875 
L 54.390625 0 
L 12.40625 0 
z
" id="DejaVuSans-49"/>
      </defs>
      <g transform="translate(34.4275 283.362017)scale(0.22 -0.22)">
       <use xlink:href="#DejaVuSans-49"/>
       <use x="63.623047" xlink:href="#DejaVuSans-48"/>
       <use x="127.246094" xlink:href="#DejaVuSans-48"/>
       <use x="190.869141" xlink:href="#DejaVuSans-48"/>
      </g>
     </g>
    </g>
    <g id="ytick_3">
     <g id="line2d_7">
      <g>
       <use style="stroke:#000000;stroke-width:2.5;" x="105.9175" xlink:href="#mf92a1f2ceb" y="188.521918"/>
      </g>
     </g>
     <g id="text_7">
      <!-- 2000 -->
      <defs>
       <path d="M 19.1875 8.296875 
L 53.609375 8.296875 
L 53.609375 0 
L 7.328125 0 
L 7.328125 8.296875 
Q 12.9375 14.109375 22.625 23.890625 
Q 32.328125 33.6875 34.8125 36.53125 
Q 39.546875 41.84375 41.421875 45.53125 
Q 43.3125 49.21875 43.3125 52.78125 
Q 43.3125 58.59375 39.234375 62.25 
Q 35.15625 65.921875 28.609375 65.921875 
Q 23.96875 65.921875 18.8125 64.3125 
Q 13.671875 62.703125 7.8125 59.421875 
L 7.8125 69.390625 
Q 13.765625 71.78125 18.9375 73 
Q 24.125 74.21875 28.421875 74.21875 
Q 39.75 74.21875 46.484375 68.546875 
Q 53.21875 62.890625 53.21875 53.421875 
Q 53.21875 48.921875 51.53125 44.890625 
Q 49.859375 40.875 45.40625 35.40625 
Q 44.1875 33.984375 37.640625 27.21875 
Q 31.109375 20.453125 19.1875 8.296875 
z
" id="DejaVuSans-50"/>
      </defs>
      <g transform="translate(34.4275 196.880199)scale(0.22 -0.22)">
       <use xlink:href="#DejaVuSans-50"/>
       <use x="63.623047" xlink:href="#DejaVuSans-48"/>
       <use x="127.246094" xlink:href="#DejaVuSans-48"/>
       <use x="190.869141" xlink:href="#DejaVuSans-48"/>
      </g>
     </g>
    </g>
    <g id="ytick_4">
     <g id="line2d_8">
      <g>
       <use style="stroke:#000000;stroke-width:2.5;" x="105.9175" xlink:href="#mf92a1f2ceb" y="102.040099"/>
      </g>
     </g>
     <g id="text_8">
      <!-- 3000 -->
      <defs>
       <path d="M 40.578125 39.3125 
Q 47.65625 37.796875 51.625 33 
Q 55.609375 28.21875 55.609375 21.1875 
Q 55.609375 10.40625 48.1875 4.484375 
Q 40.765625 -1.421875 27.09375 -1.421875 
Q 22.515625 -1.421875 17.65625 -0.515625 
Q 12.796875 0.390625 7.625 2.203125 
L 7.625 11.71875 
Q 11.71875 9.328125 16.59375 8.109375 
Q 21.484375 6.890625 26.8125 6.890625 
Q 36.078125 6.890625 40.9375 10.546875 
Q 45.796875 14.203125 45.796875 21.1875 
Q 45.796875 27.640625 41.28125 31.265625 
Q 36.765625 34.90625 28.71875 34.90625 
L 20.21875 34.90625 
L 20.21875 43.015625 
L 29.109375 43.015625 
Q 36.375 43.015625 40.234375 45.921875 
Q 44.09375 48.828125 44.09375 54.296875 
Q 44.09375 59.90625 40.109375 62.90625 
Q 36.140625 65.921875 28.71875 65.921875 
Q 24.65625 65.921875 20.015625 65.03125 
Q 15.375 64.15625 9.8125 62.3125 
L 9.8125 71.09375 
Q 15.4375 72.65625 20.34375 73.4375 
Q 25.25 74.21875 29.59375 74.21875 
Q 40.828125 74.21875 47.359375 69.109375 
Q 53.90625 64.015625 53.90625 55.328125 
Q 53.90625 49.265625 50.4375 45.09375 
Q 46.96875 40.921875 40.578125 39.3125 
z
" id="DejaVuSans-51"/>
      </defs>
      <g transform="translate(34.4275 110.398381)scale(0.22 -0.22)">
       <use xlink:href="#DejaVuSans-51"/>
       <use x="63.623047" xlink:href="#DejaVuSans-48"/>
       <use x="127.246094" xlink:href="#DejaVuSans-48"/>
       <use x="190.869141" xlink:href="#DejaVuSans-48"/>
      </g>
     </g>
    </g>
    <g id="ytick_5">
     <g id="line2d_9">
      <g>
       <use style="stroke:#000000;stroke-width:2.5;" x="105.9175" xlink:href="#mf92a1f2ceb" y="15.558281"/>
      </g>
     </g>
     <g id="text_9">
      <!-- 4000 -->
      <defs>
       <path d="M 37.796875 64.3125 
L 12.890625 25.390625 
L 37.796875 25.390625 
z
M 35.203125 72.90625 
L 47.609375 72.90625 
L 47.609375 25.390625 
L 58.015625 25.390625 
L 58.015625 17.1875 
L 47.609375 17.1875 
L 47.609375 0 
L 37.796875 0 
L 37.796875 17.1875 
L 4.890625 17.1875 
L 4.890625 26.703125 
z
" id="DejaVuSans-52"/>
      </defs>
      <g transform="translate(34.4275 23.916562)scale(0.22 -0.22)">
       <use xlink:href="#DejaVuSans-52"/>
       <use x="63.623047" xlink:href="#DejaVuSans-48"/>
       <use x="127.246094" xlink:href="#DejaVuSans-48"/>
       <use x="190.869141" xlink:href="#DejaVuSans-48"/>
      </g>
     </g>
    </g>
    <g id="text_10">
     <!-- # estimated accessory genes -->
     <defs>
      <path d="M 51.125 44 
L 36.921875 44 
L 32.8125 27.6875 
L 47.125 27.6875 
z
M 43.796875 71.78125 
L 38.71875 51.515625 
L 52.984375 51.515625 
L 58.109375 71.78125 
L 65.921875 71.78125 
L 60.890625 51.515625 
L 76.125 51.515625 
L 76.125 44 
L 58.984375 44 
L 54.984375 27.6875 
L 70.515625 27.6875 
L 70.515625 20.21875 
L 53.078125 20.21875 
L 48 0 
L 40.1875 0 
L 45.21875 20.21875 
L 30.90625 20.21875 
L 25.875 0 
L 18.015625 0 
L 23.09375 20.21875 
L 7.71875 20.21875 
L 7.71875 27.6875 
L 24.90625 27.6875 
L 29 44 
L 13.28125 44 
L 13.28125 51.515625 
L 30.90625 51.515625 
L 35.890625 71.78125 
z
" id="DejaVuSans-35"/>
      <path id="DejaVuSans-32"/>
      <path d="M 44.28125 53.078125 
L 44.28125 44.578125 
Q 40.484375 46.53125 36.375 47.5 
Q 32.28125 48.484375 27.875 48.484375 
Q 21.1875 48.484375 17.84375 46.4375 
Q 14.5 44.390625 14.5 40.28125 
Q 14.5 37.15625 16.890625 35.375 
Q 19.28125 33.59375 26.515625 31.984375 
L 29.59375 31.296875 
Q 39.15625 29.25 43.1875 25.515625 
Q 47.21875 21.78125 47.21875 15.09375 
Q 47.21875 7.46875 41.1875 3.015625 
Q 35.15625 -1.421875 24.609375 -1.421875 
Q 20.21875 -1.421875 15.453125 -0.5625 
Q 10.6875 0.296875 5.421875 2 
L 5.421875 11.28125 
Q 10.40625 8.6875 15.234375 7.390625 
Q 20.0625 6.109375 24.8125 6.109375 
Q 31.15625 6.109375 34.5625 8.28125 
Q 37.984375 10.453125 37.984375 14.40625 
Q 37.984375 18.0625 35.515625 20.015625 
Q 33.0625 21.96875 24.703125 23.78125 
L 21.578125 24.515625 
Q 13.234375 26.265625 9.515625 29.90625 
Q 5.8125 33.546875 5.8125 39.890625 
Q 5.8125 47.609375 11.28125 51.796875 
Q 16.75 56 26.8125 56 
Q 31.78125 56 36.171875 55.265625 
Q 40.578125 54.546875 44.28125 53.078125 
z
" id="DejaVuSans-115"/>
      <path d="M 9.421875 54.6875 
L 18.40625 54.6875 
L 18.40625 0 
L 9.421875 0 
z
M 9.421875 75.984375 
L 18.40625 75.984375 
L 18.40625 64.59375 
L 9.421875 64.59375 
z
" id="DejaVuSans-105"/>
      <path d="M 52 44.1875 
Q 55.375 50.25 60.0625 53.125 
Q 64.75 56 71.09375 56 
Q 79.640625 56 84.28125 50.015625 
Q 88.921875 44.046875 88.921875 33.015625 
L 88.921875 0 
L 79.890625 0 
L 79.890625 32.71875 
Q 79.890625 40.578125 77.09375 44.375 
Q 74.3125 48.1875 68.609375 48.1875 
Q 61.625 48.1875 57.5625 43.546875 
Q 53.515625 38.921875 53.515625 30.90625 
L 53.515625 0 
L 44.484375 0 
L 44.484375 32.71875 
Q 44.484375 40.625 41.703125 44.40625 
Q 38.921875 48.1875 33.109375 48.1875 
Q 26.21875 48.1875 22.15625 43.53125 
Q 18.109375 38.875 18.109375 30.90625 
L 18.109375 0 
L 9.078125 0 
L 9.078125 54.6875 
L 18.109375 54.6875 
L 18.109375 46.1875 
Q 21.1875 51.21875 25.484375 53.609375 
Q 29.78125 56 35.6875 56 
Q 41.65625 56 45.828125 52.96875 
Q 50 49.953125 52 44.1875 
z
" id="DejaVuSans-109"/>
      <path d="M 48.78125 52.59375 
L 48.78125 44.1875 
Q 44.96875 46.296875 41.140625 47.34375 
Q 37.3125 48.390625 33.40625 48.390625 
Q 24.65625 48.390625 19.8125 42.84375 
Q 14.984375 37.3125 14.984375 27.296875 
Q 14.984375 17.28125 19.8125 11.734375 
Q 24.65625 6.203125 33.40625 6.203125 
Q 37.3125 6.203125 41.140625 7.25 
Q 44.96875 8.296875 48.78125 10.40625 
L 48.78125 2.09375 
Q 45.015625 0.34375 40.984375 -0.53125 
Q 36.96875 -1.421875 32.421875 -1.421875 
Q 20.0625 -1.421875 12.78125 6.34375 
Q 5.515625 14.109375 5.515625 27.296875 
Q 5.515625 40.671875 12.859375 48.328125 
Q 20.21875 56 33.015625 56 
Q 37.15625 56 41.109375 55.140625 
Q 45.0625 54.296875 48.78125 52.59375 
z
" id="DejaVuSans-99"/>
      <path d="M 32.171875 -5.078125 
Q 28.375 -14.84375 24.75 -17.8125 
Q 21.140625 -20.796875 15.09375 -20.796875 
L 7.90625 -20.796875 
L 7.90625 -13.28125 
L 13.1875 -13.28125 
Q 16.890625 -13.28125 18.9375 -11.515625 
Q 21 -9.765625 23.484375 -3.21875 
L 25.09375 0.875 
L 2.984375 54.6875 
L 12.5 54.6875 
L 29.59375 11.921875 
L 46.6875 54.6875 
L 56.203125 54.6875 
z
" id="DejaVuSans-121"/>
     </defs>
     <g transform="translate(25.43625 366.496918)rotate(-90)scale(0.24 -0.24)">
      <use xlink:href="#DejaVuSans-35"/>
      <use x="83.789062" xlink:href="#DejaVuSans-32"/>
      <use x="115.576172" xlink:href="#DejaVuSans-101"/>
      <use x="177.099609" xlink:href="#DejaVuSans-115"/>
      <use x="229.199219" xlink:href="#DejaVuSans-116"/>
      <use x="268.408203" xlink:href="#DejaVuSans-105"/>
      <use x="296.191406" xlink:href="#DejaVuSans-109"/>
      <use x="393.603516" xlink:href="#DejaVuSans-97"/>
      <use x="454.882812" xlink:href="#DejaVuSans-116"/>
      <use x="494.091797" xlink:href="#DejaVuSans-101"/>
      <use x="555.615234" xlink:href="#DejaVuSans-100"/>
      <use x="619.091797" xlink:href="#DejaVuSans-32"/>
      <use x="650.878906" xlink:href="#DejaVuSans-97"/>
      <use x="712.158203" xlink:href="#DejaVuSans-99"/>
      <use x="767.138672" xlink:href="#DejaVuSans-99"/>
      <use x="822.119141" xlink:href="#DejaVuSans-101"/>
      <use x="883.642578" xlink:href="#DejaVuSans-115"/>
      <use x="935.742188" xlink:href="#DejaVuSans-115"/>
      <use x="987.841797" xlink:href="#DejaVuSans-111"/>
      <use x="1049.023438" xlink:href="#DejaVuSans-114"/>
      <use x="1090.136719" xlink:href="#DejaVuSans-121"/>
      <use x="1149.316406" xlink:href="#DejaVuSans-32"/>
      <use x="1181.103516" xlink:href="#DejaVuSans-103"/>
      <use x="1244.580078" xlink:href="#DejaVuSans-101"/>
      <use x="1306.103516" xlink:href="#DejaVuSans-110"/>
      <use x="1369.482422" xlink:href="#DejaVuSans-101"/>
      <use x="1431.005859" xlink:href="#DejaVuSans-115"/>
     </g>
    </g>
   </g>
   <g id="patch_3">
    <path d="M 105.9175 361.485554 
L 105.9175 15.558281 
" style="fill:none;stroke:#000000;stroke-linecap:square;stroke-linejoin:miter;stroke-width:2.5;"/>
   </g>
   <g id="patch_4">
    <path d="M 105.9175 361.485554 
L 1110.3175 361.485554 
" style="fill:none;stroke:#000000;stroke-linecap:square;stroke-linejoin:miter;stroke-width:2.5;"/>
   </g>
   <g id="PathCollection_5">
    <defs>
     <path d="M 0 4 
C 1.060812 4 2.078319 3.578535 2.828427 2.828427 
C 3.578535 2.078319 4 1.060812 4 0 
C 4 -1.060812 3.578535 -2.078319 2.828427 -2.828427 
C 2.078319 -3.578535 1.060812 -4 0 -4 
C -1.060812 -4 -2.078319 -3.578535 -2.828427 -2.828427 
C -3.578535 -2.078319 -4 -1.060812 -4 0 
C -4 1.060812 -3.578535 2.078319 -2.828427 2.828427 
C -2.078319 3.578535 -1.060812 4 0 4 
z
" id="C0_0_4d5959f6a7"/>
    </defs>
    <g clip-path="url(#pfe24a90908)">
     <use style="fill:#1f77b4;" x="159.521443" xlink:href="#C0_0_4d5959f6a7" y="325.076709"/>
    </g>
    <g clip-path="url(#pfe24a90908)">
     <use style="fill:#1f77b4;" x="152.091296" xlink:href="#C0_0_4d5959f6a7" y="322.136327"/>
    </g>
    <g clip-path="url(#pfe24a90908)">
     <use style="fill:#1f77b4;" x="155.32114" xlink:href="#C0_0_4d5959f6a7" y="322.049845"/>
    </g>
    <g clip-path="url(#pfe24a90908)">
     <use style="fill:#1f77b4;" x="160.255275" xlink:href="#C0_0_4d5959f6a7" y="316.687972"/>
    </g>
    <g clip-path="url(#pfe24a90908)">
     <use style="fill:#1f77b4;" x="153.336061" xlink:href="#C0_0_4d5959f6a7" y="313.574627"/>
    </g>
    <g clip-path="url(#pfe24a90908)">
     <use style="fill:#1f77b4;" x="152.633325" xlink:href="#C0_0_4d5959f6a7" y="313.488145"/>
    </g>
   </g>
   <g id="PathCollection_6">
    <defs>
     <path d="M 0 4 
C 1.060812 4 2.078319 3.578535 2.828427 2.828427 
C 3.578535 2.078319 4 1.060812 4 0 
C 4 -1.060812 3.578535 -2.078319 2.828427 -2.828427 
C 2.078319 -3.578535 1.060812 -4 0 -4 
C -1.060812 -4 -2.078319 -3.578535 -2.828427 -2.828427 
C -3.578535 -2.078319 -4 -1.060812 -4 0 
C -4 1.060812 -3.578535 2.078319 -2.828427 2.828427 
C -2.078319 3.578535 -1.060812 4 0 4 
z
" id="C1_0_2eb1688db1"/>
    </defs>
    <g clip-path="url(#pfe24a90908)">
     <use style="fill:#ff7f0e;" x="210.082193" xlink:href="#C1_0_2eb1688db1" y="314.958336"/>
    </g>
    <g clip-path="url(#pfe24a90908)">
     <use style="fill:#ff7f0e;" x="201.975548" xlink:href="#C1_0_2eb1688db1" y="312.190918"/>
    </g>
    <g clip-path="url(#pfe24a90908)">
     <use style="fill:#ff7f0e;" x="203.910535" xlink:href="#C1_0_2eb1688db1" y="305.272372"/>
    </g>
    <g clip-path="url(#pfe24a90908)">
     <use style="fill:#ff7f0e;" x="200.743506" xlink:href="#C1_0_2eb1688db1" y="200.023999"/>
    </g>
   </g>
   <g id="PathCollection_7">
    <defs>
     <path d="M 0 4 
C 1.060812 4 2.078319 3.578535 2.828427 2.828427 
C 3.578535 2.078319 4 1.060812 4 0 
C 4 -1.060812 3.578535 -2.078319 2.828427 -2.828427 
C 2.078319 -3.578535 1.060812 -4 0 -4 
C -1.060812 -4 -2.078319 -3.578535 -2.828427 -2.828427 
C -3.578535 -2.078319 -4 -1.060812 -4 0 
C -4 1.060812 -3.578535 2.078319 -2.828427 2.828427 
C -2.078319 3.578535 -1.060812 4 0 4 
z
" id="C2_0_354415d08e"/>
    </defs>
    <g clip-path="url(#pfe24a90908)">
     <use style="fill:#2ca02c;" x="254.857005" xlink:href="#C2_0_354415d08e" y="296.191781"/>
    </g>
    <g clip-path="url(#pfe24a90908)">
     <use style="fill:#2ca02c;" x="256.123117" xlink:href="#C2_0_354415d08e" y="264.452954"/>
    </g>
    <g clip-path="url(#pfe24a90908)">
     <use style="fill:#2ca02c;" x="260.051879" xlink:href="#C2_0_354415d08e" y="213.082754"/>
    </g>
    <g clip-path="url(#pfe24a90908)">
     <use style="fill:#2ca02c;" x="259.02786" xlink:href="#C2_0_354415d08e" y="278.808936"/>
    </g>
    <g clip-path="url(#pfe24a90908)">
     <use style="fill:#2ca02c;" x="255.398187" xlink:href="#C2_0_354415d08e" y="237.64359"/>
    </g>
    <g clip-path="url(#pfe24a90908)">
     <use style="fill:#2ca02c;" x="253.063994" xlink:href="#C2_0_354415d08e" y="187.830063"/>
    </g>
    <g clip-path="url(#pfe24a90908)">
     <use style="fill:#2ca02c;" x="260.899546" xlink:href="#C2_0_354415d08e" y="204.261609"/>
    </g>
    <g clip-path="url(#pfe24a90908)">
     <use style="fill:#2ca02c;" x="261.722725" xlink:href="#C2_0_354415d08e" y="161.712554"/>
    </g>
    <g clip-path="url(#pfe24a90908)">
     <use style="fill:#2ca02c;" x="250.57612" xlink:href="#C2_0_354415d08e" y="109.477536"/>
    </g>
   </g>
   <g id="PathCollection_8">
    <defs>
     <path d="M 0 4 
C 1.060812 4 2.078319 3.578535 2.828427 2.828427 
C 3.578535 2.078319 4 1.060812 4 0 
C 4 -1.060812 3.578535 -2.078319 2.828427 -2.828427 
C 2.078319 -3.578535 1.060812 -4 0 -4 
C -1.060812 -4 -2.078319 -3.578535 -2.828427 -2.828427 
C -3.578535 -2.078319 -4 -1.060812 -4 0 
C -4 1.060812 -3.578535 2.078319 -2.828427 2.828427 
C -2.078319 3.578535 -1.060812 4 0 4 
z
" id="C3_0_a71e4d70e6"/>
    </defs>
    <g clip-path="url(#pfe24a90908)">
     <use style="fill:#ff0000;" x="301.112199" xlink:href="#C3_0_a71e4d70e6" y="330.438581"/>
    </g>
    <g clip-path="url(#pfe24a90908)">
     <use style="fill:#ff0000;" x="310.591" xlink:href="#C3_0_a71e4d70e6" y="329.314318"/>
    </g>
    <g clip-path="url(#pfe24a90908)">
     <use style="fill:#ff0000;" x="306.344488" xlink:href="#C3_0_a71e4d70e6" y="328.881909"/>
    </g>
    <g clip-path="url(#pfe24a90908)">
     <use style="fill:#ff0000;" x="303.631697" xlink:href="#C3_0_a71e4d70e6" y="330.525063"/>
    </g>
    <g clip-path="url(#pfe24a90908)">
     <use style="fill:#ff0000;" x="304.333651" xlink:href="#C3_0_a71e4d70e6" y="327.152272"/>
    </g>
    <g clip-path="url(#pfe24a90908)">
     <use style="fill:#ff0000;" x="312.051351" xlink:href="#C3_0_a71e4d70e6" y="325.941527"/>
    </g>
    <g clip-path="url(#pfe24a90908)">
     <use style="fill:#ff0000;" x="302.23667" xlink:href="#C3_0_a71e4d70e6" y="324.903745"/>
    </g>
    <g clip-path="url(#pfe24a90908)">
     <use style="fill:#ff0000;" x="312.244245" xlink:href="#C3_0_a71e4d70e6" y="327.325236"/>
    </g>
    <g clip-path="url(#pfe24a90908)">
     <use style="fill:#ff0000;" x="301.351824" xlink:href="#C3_0_a71e4d70e6" y="324.471336"/>
    </g>
    <g clip-path="url(#pfe24a90908)">
     <use style="fill:#ff0000;" x="311.968792" xlink:href="#C3_0_a71e4d70e6" y="323.26059"/>
    </g>
    <g clip-path="url(#pfe24a90908)">
     <use style="fill:#ff0000;" x="311.15911" xlink:href="#C3_0_a71e4d70e6" y="322.30929"/>
    </g>
    <g clip-path="url(#pfe24a90908)">
     <use style="fill:#ff0000;" x="303.746691" xlink:href="#C3_0_a71e4d70e6" y="324.817263"/>
    </g>
   </g>
   <g id="PathCollection_9">
    <defs>
     <path d="M 0 4 
C 1.060812 4 2.078319 3.578535 2.828427 2.828427 
C 3.578535 2.078319 4 1.060812 4 0 
C 4 -1.060812 3.578535 -2.078319 2.828427 -2.828427 
C 2.078319 -3.578535 1.060812 -4 0 -4 
C -1.060812 -4 -2.078319 -3.578535 -2.828427 -2.828427 
C -3.578535 -2.078319 -4 -1.060812 -4 0 
C -4 1.060812 -3.578535 2.078319 -2.828427 2.828427 
C -2.078319 3.578535 -1.060812 4 0 4 
z
" id="C4_0_e3b39527a1"/>
    </defs>
    <g clip-path="url(#pfe24a90908)">
     <use style="fill:#1f77b4;" x="408.357152" xlink:href="#C4_0_e3b39527a1" y="303.196809"/>
    </g>
    <g clip-path="url(#pfe24a90908)">
     <use style="fill:#1f77b4;" x="412.288142" xlink:href="#C4_0_e3b39527a1" y="291.608245"/>
    </g>
    <g clip-path="url(#pfe24a90908)">
     <use style="fill:#1f77b4;" x="402.367957" xlink:href="#C4_0_e3b39527a1" y="272.928172"/>
    </g>
    <g clip-path="url(#pfe24a90908)">
     <use style="fill:#1f77b4;" x="411.566932" xlink:href="#C4_0_e3b39527a1" y="302.072545"/>
    </g>
    <g clip-path="url(#pfe24a90908)">
     <use style="fill:#1f77b4;" x="408.811816" xlink:href="#C4_0_e3b39527a1" y="290.051572"/>
    </g>
    <g clip-path="url(#pfe24a90908)">
     <use style="fill:#1f77b4;" x="401.072276" xlink:href="#C4_0_e3b39527a1" y="270.679645"/>
    </g>
   </g>
   <g id="PathCollection_10">
    <defs>
     <path d="M 0 4 
C 1.060812 4 2.078319 3.578535 2.828427 2.828427 
C 3.578535 2.078319 4 1.060812 4 0 
C 4 -1.060812 3.578535 -2.078319 2.828427 -2.828427 
C 2.078319 -3.578535 1.060812 -4 0 -4 
C -1.060812 -4 -2.078319 -3.578535 -2.828427 -2.828427 
C -3.578535 -2.078319 -4 -1.060812 -4 0 
C -4 1.060812 -3.578535 2.078319 -2.828427 2.828427 
C -2.078319 3.578535 -1.060812 4 0 4 
z
" id="C5_0_67706566f4"/>
    </defs>
    <g clip-path="url(#pfe24a90908)">
     <use style="fill:#ff7f0e;" x="461.132378" xlink:href="#C5_0_67706566f4" y="228.13059"/>
    </g>
    <g clip-path="url(#pfe24a90908)">
     <use style="fill:#ff7f0e;" x="454.279371" xlink:href="#C5_0_67706566f4" y="220.52019"/>
    </g>
    <g clip-path="url(#pfe24a90908)">
     <use style="fill:#ff7f0e;" x="457.255489" xlink:href="#C5_0_67706566f4" y="213.86109"/>
    </g>
    <g clip-path="url(#pfe24a90908)">
     <use style="fill:#ff7f0e;" x="463.402411" xlink:href="#C5_0_67706566f4" y="109.650499"/>
    </g>
   </g>
   <g id="PathCollection_11">
    <defs>
     <path d="M 0 4 
C 1.060812 4 2.078319 3.578535 2.828427 2.828427 
C 3.578535 2.078319 4 1.060812 4 0 
C 4 -1.060812 3.578535 -2.078319 2.828427 -2.828427 
C 2.078319 -3.578535 1.060812 -4 0 -4 
C -1.060812 -4 -2.078319 -3.578535 -2.828427 -2.828427 
C -3.578535 -2.078319 -4 -1.060812 -4 0 
C -4 1.060812 -3.578535 2.078319 -2.828427 2.828427 
C -2.078319 3.578535 -1.060812 4 0 4 
z
" id="C6_0_d0ed37f57c"/>
    </defs>
    <g clip-path="url(#pfe24a90908)">
     <use style="fill:#2ca02c;" x="507.24537" xlink:href="#C6_0_d0ed37f57c" y="203.223827"/>
    </g>
    <g clip-path="url(#pfe24a90908)">
     <use style="fill:#2ca02c;" x="512.822738" xlink:href="#C6_0_d0ed37f57c" y="174.598345"/>
    </g>
    <g clip-path="url(#pfe24a90908)">
     <use style="fill:#2ca02c;" x="509.624271" xlink:href="#C6_0_d0ed37f57c" y="136.80579"/>
    </g>
    <g clip-path="url(#pfe24a90908)">
     <use style="fill:#2ca02c;" x="509.348295" xlink:href="#C6_0_d0ed37f57c" y="181.257445"/>
    </g>
    <g clip-path="url(#pfe24a90908)">
     <use style="fill:#2ca02c;" x="511.490059" xlink:href="#C6_0_d0ed37f57c" y="147.961945"/>
    </g>
    <g clip-path="url(#pfe24a90908)">
     <use style="fill:#2ca02c;" x="510.664445" xlink:href="#C6_0_d0ed37f57c" y="112.936809"/>
    </g>
    <g clip-path="url(#pfe24a90908)">
     <use style="fill:#2ca02c;" x="511.064567" xlink:href="#C6_0_d0ed37f57c" y="115.531263"/>
    </g>
    <g clip-path="url(#pfe24a90908)">
     <use style="fill:#2ca02c;" x="509.013509" xlink:href="#C6_0_d0ed37f57c" y="81.716872"/>
    </g>
    <g clip-path="url(#pfe24a90908)">
     <use style="fill:#2ca02c;" x="505.840661" xlink:href="#C6_0_d0ed37f57c" y="49.978045"/>
    </g>
   </g>
   <g id="PathCollection_12">
    <defs>
     <path d="M 0 4 
C 1.060812 4 2.078319 3.578535 2.828427 2.828427 
C 3.578535 2.078319 4 1.060812 4 0 
C 4 -1.060812 3.578535 -2.078319 2.828427 -2.828427 
C 2.078319 -3.578535 1.060812 -4 0 -4 
C -1.060812 -4 -2.078319 -3.578535 -2.828427 -2.828427 
C -3.578535 -2.078319 -4 -1.060812 -4 0 
C -4 1.060812 -3.578535 2.078319 -2.828427 2.828427 
C -2.078319 3.578535 -1.060812 4 0 4 
z
" id="C7_0_dad1677e36"/>
    </defs>
    <g clip-path="url(#pfe24a90908)">
     <use style="fill:#ff0000;" x="556.337505" xlink:href="#C7_0_dad1677e36" y="283.651918"/>
    </g>
    <g clip-path="url(#pfe24a90908)">
     <use style="fill:#ff0000;" x="561.893167" xlink:href="#C7_0_dad1677e36" y="282.527654"/>
    </g>
    <g clip-path="url(#pfe24a90908)">
     <use style="fill:#ff0000;" x="556.830936" xlink:href="#C7_0_dad1677e36" y="282.095245"/>
    </g>
    <g clip-path="url(#pfe24a90908)">
     <use style="fill:#ff0000;" x="558.267717" xlink:href="#C7_0_dad1677e36" y="284.430254"/>
    </g>
    <g clip-path="url(#pfe24a90908)">
     <use style="fill:#ff0000;" x="563.292162" xlink:href="#C7_0_dad1677e36" y="284.776181"/>
    </g>
    <g clip-path="url(#pfe24a90908)">
     <use style="fill:#ff0000;" x="558.572368" xlink:href="#C7_0_dad1677e36" y="282.095245"/>
    </g>
    <g clip-path="url(#pfe24a90908)">
     <use style="fill:#ff0000;" x="555.897665" xlink:href="#C7_0_dad1677e36" y="283.219509"/>
    </g>
    <g clip-path="url(#pfe24a90908)">
     <use style="fill:#ff0000;" x="558.322187" xlink:href="#C7_0_dad1677e36" y="286.073409"/>
    </g>
    <g clip-path="url(#pfe24a90908)">
     <use style="fill:#ff0000;" x="556.202787" xlink:href="#C7_0_dad1677e36" y="279.760236"/>
    </g>
    <g clip-path="url(#pfe24a90908)">
     <use style="fill:#ff0000;" x="557.063343" xlink:href="#C7_0_dad1677e36" y="278.54949"/>
    </g>
    <g clip-path="url(#pfe24a90908)">
     <use style="fill:#ff0000;" x="560.42333" xlink:href="#C7_0_dad1677e36" y="279.414309"/>
    </g>
    <g clip-path="url(#pfe24a90908)">
     <use style="fill:#ff0000;" x="554.304151" xlink:href="#C7_0_dad1677e36" y="281.057463"/>
    </g>
   </g>
   <g id="PathCollection_13">
    <defs>
     <path d="M 0 4 
C 1.060812 4 2.078319 3.578535 2.828427 2.828427 
C 3.578535 2.078319 4 1.060812 4 0 
C 4 -1.060812 3.578535 -2.078319 2.828427 -2.828427 
C 2.078319 -3.578535 1.060812 -4 0 -4 
C -1.060812 -4 -2.078319 -3.578535 -2.828427 -2.828427 
C -3.578535 -2.078319 -4 -1.060812 -4 0 
C -4 1.060812 -3.578535 2.078319 -2.828427 2.828427 
C -2.078319 3.578535 -1.060812 4 0 4 
z
" id="C8_0_e01bf3ba27"/>
    </defs>
    <g clip-path="url(#pfe24a90908)">
     <use style="fill:#1f77b4;" x="660.148997" xlink:href="#C8_0_e01bf3ba27" y="334.416745"/>
    </g>
    <g clip-path="url(#pfe24a90908)">
     <use style="fill:#1f77b4;" x="655.930527" xlink:href="#C8_0_e01bf3ba27" y="332.427663"/>
    </g>
    <g clip-path="url(#pfe24a90908)">
     <use style="fill:#1f77b4;" x="661.079332" xlink:href="#C8_0_e01bf3ba27" y="332.427663"/>
    </g>
    <g clip-path="url(#pfe24a90908)">
     <use style="fill:#1f77b4;" x="662.406044" xlink:href="#C8_0_e01bf3ba27" y="330.611545"/>
    </g>
    <g clip-path="url(#pfe24a90908)">
     <use style="fill:#1f77b4;" x="656.608378" xlink:href="#C8_0_e01bf3ba27" y="328.535981"/>
    </g>
    <g clip-path="url(#pfe24a90908)">
     <use style="fill:#1f77b4;" x="655.092594" xlink:href="#C8_0_e01bf3ba27" y="328.535981"/>
    </g>
   </g>
   <g id="PathCollection_14">
    <defs>
     <path d="M 0 4 
C 1.060812 4 2.078319 3.578535 2.828427 2.828427 
C 3.578535 2.078319 4 1.060812 4 0 
C 4 -1.060812 3.578535 -2.078319 2.828427 -2.828427 
C 2.078319 -3.578535 1.060812 -4 0 -4 
C -1.060812 -4 -2.078319 -3.578535 -2.828427 -2.828427 
C -3.578535 -2.078319 -4 -1.060812 -4 0 
C -4 1.060812 -3.578535 2.078319 -2.828427 2.828427 
C -2.078319 3.578535 -1.060812 4 0 4 
z
" id="C9_0_eb271940f7"/>
    </defs>
    <g clip-path="url(#pfe24a90908)">
     <use style="fill:#ff7f0e;" x="712.514661" xlink:href="#C9_0_eb271940f7" y="300.169945"/>
    </g>
    <g clip-path="url(#pfe24a90908)">
     <use style="fill:#ff7f0e;" x="710.792297" xlink:href="#C9_0_eb271940f7" y="295.67289"/>
    </g>
    <g clip-path="url(#pfe24a90908)">
     <use style="fill:#ff7f0e;" x="707.725986" xlink:href="#C9_0_eb271940f7" y="291.694727"/>
    </g>
    <g clip-path="url(#pfe24a90908)">
     <use style="fill:#ff7f0e;" x="703.301377" xlink:href="#C9_0_eb271940f7" y="259.696454"/>
    </g>
   </g>
   <g id="PathCollection_15">
    <defs>
     <path d="M 0 4 
C 1.060812 4 2.078319 3.578535 2.828427 2.828427 
C 3.578535 2.078319 4 1.060812 4 0 
C 4 -1.060812 3.578535 -2.078319 2.828427 -2.828427 
C 2.078319 -3.578535 1.060812 -4 0 -4 
C -1.060812 -4 -2.078319 -3.578535 -2.828427 -2.828427 
C -3.578535 -2.078319 -4 -1.060812 -4 0 
C -4 1.060812 -3.578535 2.078319 -2.828427 2.828427 
C -2.078319 3.578535 -1.060812 4 0 4 
z
" id="Ca_0_41f4033d00"/>
    </defs>
    <g clip-path="url(#pfe24a90908)">
     <use style="fill:#2ca02c;" x="758.057953" xlink:href="#Ca_0_41f4033d00" y="288.321936"/>
    </g>
    <g clip-path="url(#pfe24a90908)">
     <use style="fill:#2ca02c;" x="756.609609" xlink:href="#Ca_0_41f4033d00" y="283.219509"/>
    </g>
    <g clip-path="url(#pfe24a90908)">
     <use style="fill:#2ca02c;" x="759.038512" xlink:href="#Ca_0_41f4033d00" y="276.300963"/>
    </g>
    <g clip-path="url(#pfe24a90908)">
     <use style="fill:#2ca02c;" x="761.100303" xlink:href="#Ca_0_41f4033d00" y="280.192645"/>
    </g>
    <g clip-path="url(#pfe24a90908)">
     <use style="fill:#2ca02c;" x="756.084994" xlink:href="#Ca_0_41f4033d00" y="275.176699"/>
    </g>
    <g clip-path="url(#pfe24a90908)">
     <use style="fill:#2ca02c;" x="759.369765" xlink:href="#Ca_0_41f4033d00" y="269.555381"/>
    </g>
    <g clip-path="url(#pfe24a90908)">
     <use style="fill:#2ca02c;" x="757.493166" xlink:href="#Ca_0_41f4033d00" y="242.832499"/>
    </g>
    <g clip-path="url(#pfe24a90908)">
     <use style="fill:#2ca02c;" x="757.833664" xlink:href="#Ca_0_41f4033d00" y="237.730072"/>
    </g>
    <g clip-path="url(#pfe24a90908)">
     <use style="fill:#2ca02c;" x="764.523038" xlink:href="#Ca_0_41f4033d00" y="232.195236"/>
    </g>
   </g>
   <g id="PathCollection_16">
    <defs>
     <path d="M 0 4 
C 1.060812 4 2.078319 3.578535 2.828427 2.828427 
C 3.578535 2.078319 4 1.060812 4 0 
C 4 -1.060812 3.578535 -2.078319 2.828427 -2.828427 
C 2.078319 -3.578535 1.060812 -4 0 -4 
C -1.060812 -4 -2.078319 -3.578535 -2.828427 -2.828427 
C -3.578535 -2.078319 -4 -1.060812 -4 0 
C -4 1.060812 -3.578535 2.078319 -2.828427 2.828427 
C -2.078319 3.578535 -1.060812 4 0 4 
z
" id="Cb_0_cc3dd0b19d"/>
    </defs>
    <g clip-path="url(#pfe24a90908)">
     <use style="fill:#ff0000;" x="806.064356" xlink:href="#Cb_0_cc3dd0b19d" y="337.53009"/>
    </g>
    <g clip-path="url(#pfe24a90908)">
     <use style="fill:#ff0000;" x="815.187972" xlink:href="#Cb_0_cc3dd0b19d" y="337.270645"/>
    </g>
    <g clip-path="url(#pfe24a90908)">
     <use style="fill:#ff0000;" x="810.882507" xlink:href="#Cb_0_cc3dd0b19d" y="337.357127"/>
    </g>
    <g clip-path="url(#pfe24a90908)">
     <use style="fill:#ff0000;" x="806.860733" xlink:href="#Cb_0_cc3dd0b19d" y="337.443609"/>
    </g>
    <g clip-path="url(#pfe24a90908)">
     <use style="fill:#ff0000;" x="812.151902" xlink:href="#Cb_0_cc3dd0b19d" y="335.973418"/>
    </g>
    <g clip-path="url(#pfe24a90908)">
     <use style="fill:#ff0000;" x="805.041699" xlink:href="#Cb_0_cc3dd0b19d" y="335.713972"/>
    </g>
    <g clip-path="url(#pfe24a90908)">
     <use style="fill:#ff0000;" x="809.072698" xlink:href="#Cb_0_cc3dd0b19d" y="335.713972"/>
    </g>
    <g clip-path="url(#pfe24a90908)">
     <use style="fill:#ff0000;" x="804.277534" xlink:href="#Cb_0_cc3dd0b19d" y="335.62749"/>
    </g>
    <g clip-path="url(#pfe24a90908)">
     <use style="fill:#ff0000;" x="809.375747" xlink:href="#Cb_0_cc3dd0b19d" y="332.514145"/>
    </g>
    <g clip-path="url(#pfe24a90908)">
     <use style="fill:#ff0000;" x="809.74224" xlink:href="#Cb_0_cc3dd0b19d" y="332.341181"/>
    </g>
    <g clip-path="url(#pfe24a90908)">
     <use style="fill:#ff0000;" x="814.77612" xlink:href="#Cb_0_cc3dd0b19d" y="332.600627"/>
    </g>
    <g clip-path="url(#pfe24a90908)">
     <use style="fill:#ff0000;" x="803.997848" xlink:href="#Cb_0_cc3dd0b19d" y="332.341181"/>
    </g>
   </g>
   <g id="PathCollection_17">
    <defs>
     <path d="M 0 4 
C 1.060812 4 2.078319 3.578535 2.828427 2.828427 
C 3.578535 2.078319 4 1.060812 4 0 
C 4 -1.060812 3.578535 -2.078319 2.828427 -2.828427 
C 2.078319 -3.578535 1.060812 -4 0 -4 
C -1.060812 -4 -2.078319 -3.578535 -2.828427 -2.828427 
C -3.578535 -2.078319 -4 -1.060812 -4 0 
C -4 1.060812 -3.578535 2.078319 -2.828427 2.828427 
C -2.078319 3.578535 -1.060812 4 0 4 
z
" id="Cc_0_fb0e17c907"/>
    </defs>
    <g clip-path="url(#pfe24a90908)">
     <use style="fill:#1f77b4;" x="908.921692" xlink:href="#Cc_0_fb0e17c907" y="316.082599"/>
    </g>
    <g clip-path="url(#pfe24a90908)">
     <use style="fill:#1f77b4;" x="909.017962" xlink:href="#Cc_0_fb0e17c907" y="308.212754"/>
    </g>
    <g clip-path="url(#pfe24a90908)">
     <use style="fill:#1f77b4;" x="914.563199" xlink:href="#Cc_0_fb0e17c907" y="287.284154"/>
    </g>
    <g clip-path="url(#pfe24a90908)">
     <use style="fill:#1f77b4;" x="904.531494" xlink:href="#Cc_0_fb0e17c907" y="314.439445"/>
    </g>
    <g clip-path="url(#pfe24a90908)">
     <use style="fill:#1f77b4;" x="907.530782" xlink:href="#Cc_0_fb0e17c907" y="306.13719"/>
    </g>
    <g clip-path="url(#pfe24a90908)">
     <use style="fill:#1f77b4;" x="909.927998" xlink:href="#Cc_0_fb0e17c907" y="284.862663"/>
    </g>
   </g>
   <g id="PathCollection_18">
    <defs>
     <path d="M 0 4 
C 1.060812 4 2.078319 3.578535 2.828427 2.828427 
C 3.578535 2.078319 4 1.060812 4 0 
C 4 -1.060812 3.578535 -2.078319 2.828427 -2.828427 
C 2.078319 -3.578535 1.060812 -4 0 -4 
C -1.060812 -4 -2.078319 -3.578535 -2.828427 -2.828427 
C -3.578535 -2.078319 -4 -1.060812 -4 0 
C -4 1.060812 -3.578535 2.078319 -2.828427 2.828427 
C -2.078319 3.578535 -1.060812 4 0 4 
z
" id="Cd_0_cb753c1e1a"/>
    </defs>
    <g clip-path="url(#pfe24a90908)">
     <use style="fill:#ff7f0e;" x="958.457792" xlink:href="#Cd_0_cb753c1e1a" y="262.636836"/>
    </g>
    <g clip-path="url(#pfe24a90908)">
     <use style="fill:#ff7f0e;" x="964.435577" xlink:href="#Cd_0_cb753c1e1a" y="258.053299"/>
    </g>
    <g clip-path="url(#pfe24a90908)">
     <use style="fill:#ff7f0e;" x="961.396118" xlink:href="#Cd_0_cb753c1e1a" y="254.334581"/>
    </g>
    <g clip-path="url(#pfe24a90908)">
     <use style="fill:#ff7f0e;" x="958.132068" xlink:href="#Cd_0_cb753c1e1a" y="201.926599"/>
    </g>
   </g>
   <g id="PathCollection_19">
    <defs>
     <path d="M 0 4 
C 1.060812 4 2.078319 3.578535 2.828427 2.828427 
C 3.578535 2.078319 4 1.060812 4 0 
C 4 -1.060812 3.578535 -2.078319 2.828427 -2.828427 
C 2.078319 -3.578535 1.060812 -4 0 -4 
C -1.060812 -4 -2.078319 -3.578535 -2.828427 -2.828427 
C -3.578535 -2.078319 -4 -1.060812 -4 0 
C -4 1.060812 -3.578535 2.078319 -2.828427 2.828427 
C -2.078319 3.578535 -1.060812 4 0 4 
z
" id="Ce_0_8130e211a2"/>
    </defs>
    <g clip-path="url(#pfe24a90908)">
     <use style="fill:#2ca02c;" x="1014.457169" xlink:href="#Ce_0_8130e211a2" y="264.107027"/>
    </g>
    <g clip-path="url(#pfe24a90908)">
     <use style="fill:#2ca02c;" x="1004.118867" xlink:href="#Ce_0_8130e211a2" y="248.021409"/>
    </g>
    <g clip-path="url(#pfe24a90908)">
     <use style="fill:#2ca02c;" x="1007.202528" xlink:href="#Ce_0_8130e211a2" y="228.217072"/>
    </g>
    <g clip-path="url(#pfe24a90908)">
     <use style="fill:#2ca02c;" x="1014.428235" xlink:href="#Ce_0_8130e211a2" y="251.048272"/>
    </g>
    <g clip-path="url(#pfe24a90908)">
     <use style="fill:#2ca02c;" x="1014.151414" xlink:href="#Ce_0_8130e211a2" y="228.044109"/>
    </g>
    <g clip-path="url(#pfe24a90908)">
     <use style="fill:#2ca02c;" x="1013.108111" xlink:href="#Ce_0_8130e211a2" y="212.304418"/>
    </g>
    <g clip-path="url(#pfe24a90908)">
     <use style="fill:#2ca02c;" x="1004.858847" xlink:href="#Ce_0_8130e211a2" y="205.385872"/>
    </g>
    <g clip-path="url(#pfe24a90908)">
     <use style="fill:#2ca02c;" x="1015.580219" xlink:href="#Ce_0_8130e211a2" y="173.90649"/>
    </g>
    <g clip-path="url(#pfe24a90908)">
     <use style="fill:#2ca02c;" x="1011.048372" xlink:href="#Ce_0_8130e211a2" y="156.956054"/>
    </g>
   </g>
   <g id="PathCollection_20">
    <defs>
     <path d="M 0 4 
C 1.060812 4 2.078319 3.578535 2.828427 2.828427 
C 3.578535 2.078319 4 1.060812 4 0 
C 4 -1.060812 3.578535 -2.078319 2.828427 -2.828427 
C 2.078319 -3.578535 1.060812 -4 0 -4 
C -1.060812 -4 -2.078319 -3.578535 -2.828427 -2.828427 
C -3.578535 -2.078319 -4 -1.060812 -4 0 
C -4 1.060812 -3.578535 2.078319 -2.828427 2.828427 
C -2.078319 3.578535 -1.060812 4 0 4 
z
" id="Cf_0_92c1f8d8f6"/>
    </defs>
    <g clip-path="url(#pfe24a90908)">
     <use style="fill:#ff0000;" x="1059.042455" xlink:href="#Cf_0_92c1f8d8f6" y="307.866827"/>
    </g>
    <g clip-path="url(#pfe24a90908)">
     <use style="fill:#ff0000;" x="1061.895092" xlink:href="#Cf_0_92c1f8d8f6" y="305.618299"/>
    </g>
    <g clip-path="url(#pfe24a90908)">
     <use style="fill:#ff0000;" x="1064.227102" xlink:href="#Cf_0_92c1f8d8f6" y="304.926445"/>
    </g>
    <g clip-path="url(#pfe24a90908)">
     <use style="fill:#ff0000;" x="1059.979259" xlink:href="#Cf_0_92c1f8d8f6" y="308.385718"/>
    </g>
    <g clip-path="url(#pfe24a90908)">
     <use style="fill:#ff0000;" x="1063.814683" xlink:href="#Cf_0_92c1f8d8f6" y="305.531818"/>
    </g>
    <g clip-path="url(#pfe24a90908)">
     <use style="fill:#ff0000;" x="1054.915907" xlink:href="#Cf_0_92c1f8d8f6" y="303.023845"/>
    </g>
    <g clip-path="url(#pfe24a90908)">
     <use style="fill:#ff0000;" x="1065.788182" xlink:href="#Cf_0_92c1f8d8f6" y="302.764399"/>
    </g>
    <g clip-path="url(#pfe24a90908)">
     <use style="fill:#ff0000;" x="1054.714245" xlink:href="#Cf_0_92c1f8d8f6" y="306.223672"/>
    </g>
    <g clip-path="url(#pfe24a90908)">
     <use style="fill:#ff0000;" x="1064.131435" xlink:href="#Cf_0_92c1f8d8f6" y="302.677918"/>
    </g>
    <g clip-path="url(#pfe24a90908)">
     <use style="fill:#ff0000;" x="1062.952811" xlink:href="#Cf_0_92c1f8d8f6" y="300.083463"/>
    </g>
    <g clip-path="url(#pfe24a90908)">
     <use style="fill:#ff0000;" x="1058.494316" xlink:href="#Cf_0_92c1f8d8f6" y="299.564572"/>
    </g>
    <g clip-path="url(#pfe24a90908)">
     <use style="fill:#ff0000;" x="1060.382606" xlink:href="#Cf_0_92c1f8d8f6" y="304.148109"/>
    </g>
   </g>
   <g id="legend_1">
    <g id="patch_5">
     <path d="M 1066.366563 196.553281 
L 1346.0175 196.553281 
Q 1350.4175 196.553281 1350.4175 192.153281 
L 1350.4175 30.958281 
Q 1350.4175 26.558281 1346.0175 26.558281 
L 1066.366563 26.558281 
Q 1061.966563 26.558281 1061.966563 30.958281 
L 1061.966563 192.153281 
Q 1061.966563 196.553281 1066.366563 196.553281 
z
" style="fill:#ffffff;opacity:0.8;stroke:#cccccc;stroke-linejoin:miter;stroke-width:2;"/>
    </g>
    <g id="text_11">
     <!-- Analysis Pipeline -->
     <defs>
      <path d="M 9.421875 75.984375 
L 18.40625 75.984375 
L 18.40625 0 
L 9.421875 0 
z
" id="DejaVuSans-108"/>
      <path d="M 18.109375 8.203125 
L 18.109375 -20.796875 
L 9.078125 -20.796875 
L 9.078125 54.6875 
L 18.109375 54.6875 
L 18.109375 46.390625 
Q 20.953125 51.265625 25.265625 53.625 
Q 29.59375 56 35.59375 56 
Q 45.5625 56 51.78125 48.09375 
Q 58.015625 40.1875 58.015625 27.296875 
Q 58.015625 14.40625 51.78125 6.484375 
Q 45.5625 -1.421875 35.59375 -1.421875 
Q 29.59375 -1.421875 25.265625 0.953125 
Q 20.953125 3.328125 18.109375 8.203125 
z
M 48.6875 27.296875 
Q 48.6875 37.203125 44.609375 42.84375 
Q 40.53125 48.484375 33.40625 48.484375 
Q 26.265625 48.484375 22.1875 42.84375 
Q 18.109375 37.203125 18.109375 27.296875 
Q 18.109375 17.390625 22.1875 11.75 
Q 26.265625 6.109375 33.40625 6.109375 
Q 40.53125 6.109375 44.609375 11.75 
Q 48.6875 17.390625 48.6875 27.296875 
z
" id="DejaVuSans-112"/>
     </defs>
     <g transform="translate(1105.714531 53.594531)scale(0.24 -0.24)">
      <use xlink:href="#DejaVuSans-65"/>
      <use x="68.408203" xlink:href="#DejaVuSans-110"/>
      <use x="131.787109" xlink:href="#DejaVuSans-97"/>
      <use x="193.066406" xlink:href="#DejaVuSans-108"/>
      <use x="220.849609" xlink:href="#DejaVuSans-121"/>
      <use x="280.029297" xlink:href="#DejaVuSans-115"/>
      <use x="332.128906" xlink:href="#DejaVuSans-105"/>
      <use x="359.912109" xlink:href="#DejaVuSans-115"/>
      <use x="412.011719" xlink:href="#DejaVuSans-32"/>
      <use x="443.798828" xlink:href="#DejaVuSans-80"/>
      <use x="504.070312" xlink:href="#DejaVuSans-105"/>
      <use x="531.853516" xlink:href="#DejaVuSans-112"/>
      <use x="595.330078" xlink:href="#DejaVuSans-101"/>
      <use x="656.853516" xlink:href="#DejaVuSans-108"/>
      <use x="684.636719" xlink:href="#DejaVuSans-105"/>
      <use x="712.419922" xlink:href="#DejaVuSans-110"/>
      <use x="775.798828" xlink:href="#DejaVuSans-101"/>
     </g>
    </g>
    <g id="patch_6">
     <path d="M 1070.766562 86.302344 
L 1114.766562 86.302344 
L 1114.766562 70.902344 
L 1070.766562 70.902344 
z
" style="fill:#1f77b4;stroke:#1f77b4;stroke-linejoin:miter;stroke-width:2;"/>
    </g>
    <g id="text_12">
     <!-- Panaroo (N = 6) -->
     <defs>
      <path d="M 31 75.875 
Q 24.46875 64.65625 21.28125 53.65625 
Q 18.109375 42.671875 18.109375 31.390625 
Q 18.109375 20.125 21.3125 9.0625 
Q 24.515625 -2 31 -13.1875 
L 23.1875 -13.1875 
Q 15.875 -1.703125 12.234375 9.375 
Q 8.59375 20.453125 8.59375 31.390625 
Q 8.59375 42.28125 12.203125 53.3125 
Q 15.828125 64.359375 23.1875 75.875 
z
" id="DejaVuSans-40"/>
      <path d="M 9.8125 72.90625 
L 23.09375 72.90625 
L 55.421875 11.921875 
L 55.421875 72.90625 
L 64.984375 72.90625 
L 64.984375 0 
L 51.703125 0 
L 19.390625 60.984375 
L 19.390625 0 
L 9.8125 0 
z
" id="DejaVuSans-78"/>
      <path d="M 10.59375 45.40625 
L 73.1875 45.40625 
L 73.1875 37.203125 
L 10.59375 37.203125 
z
M 10.59375 25.484375 
L 73.1875 25.484375 
L 73.1875 17.1875 
L 10.59375 17.1875 
z
" id="DejaVuSans-61"/>
      <path d="M 33.015625 40.375 
Q 26.375 40.375 22.484375 35.828125 
Q 18.609375 31.296875 18.609375 23.390625 
Q 18.609375 15.53125 22.484375 10.953125 
Q 26.375 6.390625 33.015625 6.390625 
Q 39.65625 6.390625 43.53125 10.953125 
Q 47.40625 15.53125 47.40625 23.390625 
Q 47.40625 31.296875 43.53125 35.828125 
Q 39.65625 40.375 33.015625 40.375 
z
M 52.59375 71.296875 
L 52.59375 62.3125 
Q 48.875 64.0625 45.09375 64.984375 
Q 41.3125 65.921875 37.59375 65.921875 
Q 27.828125 65.921875 22.671875 59.328125 
Q 17.53125 52.734375 16.796875 39.40625 
Q 19.671875 43.65625 24.015625 45.921875 
Q 28.375 48.1875 33.59375 48.1875 
Q 44.578125 48.1875 50.953125 41.515625 
Q 57.328125 34.859375 57.328125 23.390625 
Q 57.328125 12.15625 50.6875 5.359375 
Q 44.046875 -1.421875 33.015625 -1.421875 
Q 20.359375 -1.421875 13.671875 8.265625 
Q 6.984375 17.96875 6.984375 36.375 
Q 6.984375 53.65625 15.1875 63.9375 
Q 23.390625 74.21875 37.203125 74.21875 
Q 40.921875 74.21875 44.703125 73.484375 
Q 48.484375 72.75 52.59375 71.296875 
z
" id="DejaVuSans-54"/>
      <path d="M 8.015625 75.875 
L 15.828125 75.875 
Q 23.140625 64.359375 26.78125 53.3125 
Q 30.421875 42.28125 30.421875 31.390625 
Q 30.421875 20.453125 26.78125 9.375 
Q 23.140625 -1.703125 15.828125 -13.1875 
L 8.015625 -13.1875 
Q 14.5 -2 17.703125 9.0625 
Q 20.90625 20.125 20.90625 31.390625 
Q 20.90625 42.671875 17.703125 53.65625 
Q 14.5 64.65625 8.015625 75.875 
z
" id="DejaVuSans-41"/>
     </defs>
     <g transform="translate(1132.366562 86.302344)scale(0.22 -0.22)">
      <use xlink:href="#DejaVuSans-80"/>
      <use x="60.240234" xlink:href="#DejaVuSans-97"/>
      <use x="121.519531" xlink:href="#DejaVuSans-110"/>
      <use x="184.898438" xlink:href="#DejaVuSans-97"/>
      <use x="246.177734" xlink:href="#DejaVuSans-114"/>
      <use x="287.259766" xlink:href="#DejaVuSans-111"/>
      <use x="348.441406" xlink:href="#DejaVuSans-111"/>
      <use x="409.623047" xlink:href="#DejaVuSans-32"/>
      <use x="441.410156" xlink:href="#DejaVuSans-40"/>
      <use x="480.423828" xlink:href="#DejaVuSans-78"/>
      <use x="555.228516" xlink:href="#DejaVuSans-32"/>
      <use x="587.015625" xlink:href="#DejaVuSans-61"/>
      <use x="670.804688" xlink:href="#DejaVuSans-32"/>
      <use x="702.591797" xlink:href="#DejaVuSans-54"/>
      <use x="766.214844" xlink:href="#DejaVuSans-41"/>
     </g>
    </g>
    <g id="patch_7">
     <path d="M 1070.766562 118.594219 
L 1114.766562 118.594219 
L 1114.766562 103.194219 
L 1070.766562 103.194219 
z
" style="fill:#ff7f0e;stroke:#ff7f0e;stroke-linejoin:miter;stroke-width:2;"/>
    </g>
    <g id="text_13">
     <!-- Roary (N = 4) -->
     <g transform="translate(1132.366562 118.594219)scale(0.22 -0.22)">
      <use xlink:href="#DejaVuSans-82"/>
      <use x="69.419922" xlink:href="#DejaVuSans-111"/>
      <use x="130.601562" xlink:href="#DejaVuSans-97"/>
      <use x="191.880859" xlink:href="#DejaVuSans-114"/>
      <use x="232.994141" xlink:href="#DejaVuSans-121"/>
      <use x="292.173828" xlink:href="#DejaVuSans-32"/>
      <use x="323.960938" xlink:href="#DejaVuSans-40"/>
      <use x="362.974609" xlink:href="#DejaVuSans-78"/>
      <use x="437.779297" xlink:href="#DejaVuSans-32"/>
      <use x="469.566406" xlink:href="#DejaVuSans-61"/>
      <use x="553.355469" xlink:href="#DejaVuSans-32"/>
      <use x="585.142578" xlink:href="#DejaVuSans-52"/>
      <use x="648.765625" xlink:href="#DejaVuSans-41"/>
     </g>
    </g>
    <g id="patch_8">
     <path d="M 1070.766562 150.886094 
L 1114.766562 150.886094 
L 1114.766562 135.486094 
L 1070.766562 135.486094 
z
" style="fill:#2ca02c;stroke:#2ca02c;stroke-linejoin:miter;stroke-width:2;"/>
    </g>
    <g id="text_14">
     <!-- Ppanggolin (N = 9) -->
     <defs>
      <path d="M 10.984375 1.515625 
L 10.984375 10.5 
Q 14.703125 8.734375 18.5 7.8125 
Q 22.3125 6.890625 25.984375 6.890625 
Q 35.75 6.890625 40.890625 13.453125 
Q 46.046875 20.015625 46.78125 33.40625 
Q 43.953125 29.203125 39.59375 26.953125 
Q 35.25 24.703125 29.984375 24.703125 
Q 19.046875 24.703125 12.671875 31.3125 
Q 6.296875 37.9375 6.296875 49.421875 
Q 6.296875 60.640625 12.9375 67.421875 
Q 19.578125 74.21875 30.609375 74.21875 
Q 43.265625 74.21875 49.921875 64.515625 
Q 56.59375 54.828125 56.59375 36.375 
Q 56.59375 19.140625 48.40625 8.859375 
Q 40.234375 -1.421875 26.421875 -1.421875 
Q 22.703125 -1.421875 18.890625 -0.6875 
Q 15.09375 0.046875 10.984375 1.515625 
z
M 30.609375 32.421875 
Q 37.25 32.421875 41.125 36.953125 
Q 45.015625 41.5 45.015625 49.421875 
Q 45.015625 57.28125 41.125 61.84375 
Q 37.25 66.40625 30.609375 66.40625 
Q 23.96875 66.40625 20.09375 61.84375 
Q 16.21875 57.28125 16.21875 49.421875 
Q 16.21875 41.5 20.09375 36.953125 
Q 23.96875 32.421875 30.609375 32.421875 
z
" id="DejaVuSans-57"/>
     </defs>
     <g transform="translate(1132.366562 150.886094)scale(0.22 -0.22)">
      <use xlink:href="#DejaVuSans-80"/>
      <use x="60.302734" xlink:href="#DejaVuSans-112"/>
      <use x="123.779297" xlink:href="#DejaVuSans-97"/>
      <use x="185.058594" xlink:href="#DejaVuSans-110"/>
      <use x="248.4375" xlink:href="#DejaVuSans-103"/>
      <use x="311.914062" xlink:href="#DejaVuSans-103"/>
      <use x="375.390625" xlink:href="#DejaVuSans-111"/>
      <use x="436.572266" xlink:href="#DejaVuSans-108"/>
      <use x="464.355469" xlink:href="#DejaVuSans-105"/>
      <use x="492.138672" xlink:href="#DejaVuSans-110"/>
      <use x="555.517578" xlink:href="#DejaVuSans-32"/>
      <use x="587.304688" xlink:href="#DejaVuSans-40"/>
      <use x="626.318359" xlink:href="#DejaVuSans-78"/>
      <use x="701.123047" xlink:href="#DejaVuSans-32"/>
      <use x="732.910156" xlink:href="#DejaVuSans-61"/>
      <use x="816.699219" xlink:href="#DejaVuSans-32"/>
      <use x="848.486328" xlink:href="#DejaVuSans-57"/>
      <use x="912.109375" xlink:href="#DejaVuSans-41"/>
     </g>
    </g>
    <g id="patch_9">
     <path d="M 1070.766562 183.177969 
L 1114.766562 183.177969 
L 1114.766562 167.777969 
L 1070.766562 167.777969 
z
" style="fill:#ff0000;stroke:#ff0000;stroke-linejoin:miter;stroke-width:2;"/>
    </g>
    <g id="text_15">
     <!-- Pangene (N = 12) -->
     <g transform="translate(1132.366562 183.177969)scale(0.22 -0.22)">
      <use xlink:href="#DejaVuSans-80"/>
      <use x="60.240234" xlink:href="#DejaVuSans-97"/>
      <use x="121.519531" xlink:href="#DejaVuSans-110"/>
      <use x="184.898438" xlink:href="#DejaVuSans-103"/>
      <use x="248.375" xlink:href="#DejaVuSans-101"/>
      <use x="309.898438" xlink:href="#DejaVuSans-110"/>
      <use x="373.277344" xlink:href="#DejaVuSans-101"/>
      <use x="434.800781" xlink:href="#DejaVuSans-32"/>
      <use x="466.587891" xlink:href="#DejaVuSans-40"/>
      <use x="505.601562" xlink:href="#DejaVuSans-78"/>
      <use x="580.40625" xlink:href="#DejaVuSans-32"/>
      <use x="612.193359" xlink:href="#DejaVuSans-61"/>
      <use x="695.982422" xlink:href="#DejaVuSans-32"/>
      <use x="727.769531" xlink:href="#DejaVuSans-49"/>
      <use x="791.392578" xlink:href="#DejaVuSans-50"/>
      <use x="855.015625" xlink:href="#DejaVuSans-41"/>
     </g>
    </g>
   </g>
  </g>
  <g id="axes_2">
   <g id="patch_10">
    <path d="M 105.9175 776.598281 
L 1110.3175 776.598281 
L 1110.3175 430.671009 
L 105.9175 430.671009 
z
" style="fill:#ffffff;"/>
   </g>
   <g id="PathCollection_21"/>
   <g id="PathCollection_22"/>
   <g id="PathCollection_23"/>
   <g id="PathCollection_24"/>
   <g id="matplotlib.axis_3">
    <g id="xtick_5">
     <g id="line2d_10">
      <g>
       <use style="stroke:#000000;stroke-width:2.5;" x="231.4675" xlink:href="#m49cf0ea55a" y="776.598281"/>
      </g>
     </g>
     <g id="text_16">
      <!-- Bakta-LongRead -->
      <g transform="translate(140.846406 808.814844)scale(0.22 -0.22)">
       <use xlink:href="#DejaVuSans-66"/>
       <use x="68.603516" xlink:href="#DejaVuSans-97"/>
       <use x="129.882812" xlink:href="#DejaVuSans-107"/>
       <use x="187.792969" xlink:href="#DejaVuSans-116"/>
       <use x="227.001953" xlink:href="#DejaVuSans-97"/>
       <use x="288.28125" xlink:href="#DejaVuSans-45"/>
       <use x="324.365234" xlink:href="#DejaVuSans-76"/>
       <use x="380.0625" xlink:href="#DejaVuSans-111"/>
       <use x="441.244141" xlink:href="#DejaVuSans-110"/>
       <use x="504.623047" xlink:href="#DejaVuSans-103"/>
       <use x="568.099609" xlink:href="#DejaVuSans-82"/>
       <use x="637.519531" xlink:href="#DejaVuSans-101"/>
       <use x="699.042969" xlink:href="#DejaVuSans-97"/>
       <use x="760.322266" xlink:href="#DejaVuSans-100"/>
      </g>
     </g>
    </g>
    <g id="xtick_6">
     <g id="line2d_11">
      <g>
       <use style="stroke:#000000;stroke-width:2.5;" x="482.5675" xlink:href="#m49cf0ea55a" y="776.598281"/>
      </g>
     </g>
     <g id="text_17">
      <!-- Bakta-ShortRead -->
      <g transform="translate(389.239375 808.814844)scale(0.22 -0.22)">
       <use xlink:href="#DejaVuSans-66"/>
       <use x="68.603516" xlink:href="#DejaVuSans-97"/>
       <use x="129.882812" xlink:href="#DejaVuSans-107"/>
       <use x="187.792969" xlink:href="#DejaVuSans-116"/>
       <use x="227.001953" xlink:href="#DejaVuSans-97"/>
       <use x="288.28125" xlink:href="#DejaVuSans-45"/>
       <use x="324.365234" xlink:href="#DejaVuSans-83"/>
       <use x="387.841797" xlink:href="#DejaVuSans-104"/>
       <use x="451.220703" xlink:href="#DejaVuSans-111"/>
       <use x="512.402344" xlink:href="#DejaVuSans-114"/>
       <use x="553.515625" xlink:href="#DejaVuSans-116"/>
       <use x="592.724609" xlink:href="#DejaVuSans-82"/>
       <use x="662.144531" xlink:href="#DejaVuSans-101"/>
       <use x="723.667969" xlink:href="#DejaVuSans-97"/>
       <use x="784.947266" xlink:href="#DejaVuSans-100"/>
      </g>
     </g>
    </g>
    <g id="xtick_7">
     <g id="line2d_12">
      <g>
       <use style="stroke:#000000;stroke-width:2.5;" x="733.6675" xlink:href="#m49cf0ea55a" y="776.598281"/>
      </g>
     </g>
     <g id="text_18">
      <!-- PGAP-LongRead -->
      <g transform="translate(645.4475 808.814844)scale(0.22 -0.22)">
       <use xlink:href="#DejaVuSans-80"/>
       <use x="60.302734" xlink:href="#DejaVuSans-71"/>
       <use x="137.792969" xlink:href="#DejaVuSans-65"/>
       <use x="206.201172" xlink:href="#DejaVuSans-80"/>
       <use x="266.472656" xlink:href="#DejaVuSans-45"/>
       <use x="302.556641" xlink:href="#DejaVuSans-76"/>
       <use x="358.253906" xlink:href="#DejaVuSans-111"/>
       <use x="419.435547" xlink:href="#DejaVuSans-110"/>
       <use x="482.814453" xlink:href="#DejaVuSans-103"/>
       <use x="546.291016" xlink:href="#DejaVuSans-82"/>
       <use x="615.710938" xlink:href="#DejaVuSans-101"/>
       <use x="677.234375" xlink:href="#DejaVuSans-97"/>
       <use x="738.513672" xlink:href="#DejaVuSans-100"/>
      </g>
     </g>
    </g>
    <g id="xtick_8">
     <g id="line2d_13">
      <g>
       <use style="stroke:#000000;stroke-width:2.5;" x="984.7675" xlink:href="#m49cf0ea55a" y="776.598281"/>
      </g>
     </g>
     <g id="text_19">
      <!-- PGAP-ShortRead -->
      <g transform="translate(893.840469 808.814844)scale(0.22 -0.22)">
       <use xlink:href="#DejaVuSans-80"/>
       <use x="60.302734" xlink:href="#DejaVuSans-71"/>
       <use x="137.792969" xlink:href="#DejaVuSans-65"/>
       <use x="206.201172" xlink:href="#DejaVuSans-80"/>
       <use x="266.472656" xlink:href="#DejaVuSans-45"/>
       <use x="302.556641" xlink:href="#DejaVuSans-83"/>
       <use x="366.033203" xlink:href="#DejaVuSans-104"/>
       <use x="429.412109" xlink:href="#DejaVuSans-111"/>
       <use x="490.59375" xlink:href="#DejaVuSans-114"/>
       <use x="531.707031" xlink:href="#DejaVuSans-116"/>
       <use x="570.916016" xlink:href="#DejaVuSans-82"/>
       <use x="640.335938" xlink:href="#DejaVuSans-101"/>
       <use x="701.859375" xlink:href="#DejaVuSans-97"/>
       <use x="763.138672" xlink:href="#DejaVuSans-100"/>
      </g>
     </g>
    </g>
   </g>
   <g id="matplotlib.axis_4">
    <g id="ytick_6">
     <g id="line2d_14">
      <g>
       <use style="stroke:#000000;stroke-width:2.5;" x="105.9175" xlink:href="#mf92a1f2ceb" y="776.598281"/>
      </g>
     </g>
     <g id="text_20">
      <!-- 0 -->
      <g transform="translate(76.42 784.956562)scale(0.22 -0.22)">
       <use xlink:href="#DejaVuSans-48"/>
      </g>
     </g>
    </g>
    <g id="ytick_7">
     <g id="line2d_15">
      <g>
       <use style="stroke:#000000;stroke-width:2.5;" x="105.9175" xlink:href="#mf92a1f2ceb" y="690.116463"/>
      </g>
     </g>
     <g id="text_21">
      <!-- 1000 -->
      <g transform="translate(34.4275 698.474744)scale(0.22 -0.22)">
       <use xlink:href="#DejaVuSans-49"/>
       <use x="63.623047" xlink:href="#DejaVuSans-48"/>
       <use x="127.246094" xlink:href="#DejaVuSans-48"/>
       <use x="190.869141" xlink:href="#DejaVuSans-48"/>
      </g>
     </g>
    </g>
    <g id="ytick_8">
     <g id="line2d_16">
      <g>
       <use style="stroke:#000000;stroke-width:2.5;" x="105.9175" xlink:href="#mf92a1f2ceb" y="603.634645"/>
      </g>
     </g>
     <g id="text_22">
      <!-- 2000 -->
      <g transform="translate(34.4275 611.992926)scale(0.22 -0.22)">
       <use xlink:href="#DejaVuSans-50"/>
       <use x="63.623047" xlink:href="#DejaVuSans-48"/>
       <use x="127.246094" xlink:href="#DejaVuSans-48"/>
       <use x="190.869141" xlink:href="#DejaVuSans-48"/>
      </g>
     </g>
    </g>
    <g id="ytick_9">
     <g id="line2d_17">
      <g>
       <use style="stroke:#000000;stroke-width:2.5;" x="105.9175" xlink:href="#mf92a1f2ceb" y="517.152827"/>
      </g>
     </g>
     <g id="text_23">
      <!-- 3000 -->
      <g transform="translate(34.4275 525.511108)scale(0.22 -0.22)">
       <use xlink:href="#DejaVuSans-51"/>
       <use x="63.623047" xlink:href="#DejaVuSans-48"/>
       <use x="127.246094" xlink:href="#DejaVuSans-48"/>
       <use x="190.869141" xlink:href="#DejaVuSans-48"/>
      </g>
     </g>
    </g>
    <g id="ytick_10">
     <g id="line2d_18">
      <g>
       <use style="stroke:#000000;stroke-width:2.5;" x="105.9175" xlink:href="#mf92a1f2ceb" y="430.671009"/>
      </g>
     </g>
     <g id="text_24">
      <!-- 4000 -->
      <g transform="translate(34.4275 439.02929)scale(0.22 -0.22)">
       <use xlink:href="#DejaVuSans-52"/>
       <use x="63.623047" xlink:href="#DejaVuSans-48"/>
       <use x="127.246094" xlink:href="#DejaVuSans-48"/>
       <use x="190.869141" xlink:href="#DejaVuSans-48"/>
      </g>
     </g>
    </g>
    <g id="text_25">
     <!-- # estimated core genes -->
     <g transform="translate(25.43625 748.04902)rotate(-90)scale(0.24 -0.24)">
      <use xlink:href="#DejaVuSans-35"/>
      <use x="83.789062" xlink:href="#DejaVuSans-32"/>
      <use x="115.576172" xlink:href="#DejaVuSans-101"/>
      <use x="177.099609" xlink:href="#DejaVuSans-115"/>
      <use x="229.199219" xlink:href="#DejaVuSans-116"/>
      <use x="268.408203" xlink:href="#DejaVuSans-105"/>
      <use x="296.191406" xlink:href="#DejaVuSans-109"/>
      <use x="393.603516" xlink:href="#DejaVuSans-97"/>
      <use x="454.882812" xlink:href="#DejaVuSans-116"/>
      <use x="494.091797" xlink:href="#DejaVuSans-101"/>
      <use x="555.615234" xlink:href="#DejaVuSans-100"/>
      <use x="619.091797" xlink:href="#DejaVuSans-32"/>
      <use x="650.878906" xlink:href="#DejaVuSans-99"/>
      <use x="705.859375" xlink:href="#DejaVuSans-111"/>
      <use x="767.041016" xlink:href="#DejaVuSans-114"/>
      <use x="808.123047" xlink:href="#DejaVuSans-101"/>
      <use x="869.646484" xlink:href="#DejaVuSans-32"/>
      <use x="901.433594" xlink:href="#DejaVuSans-103"/>
      <use x="964.910156" xlink:href="#DejaVuSans-101"/>
      <use x="1026.433594" xlink:href="#DejaVuSans-110"/>
      <use x="1089.8125" xlink:href="#DejaVuSans-101"/>
      <use x="1151.335938" xlink:href="#DejaVuSans-115"/>
     </g>
    </g>
   </g>
   <g id="patch_11">
    <path d="M 105.9175 776.598281 
L 105.9175 430.671009 
" style="fill:none;stroke:#000000;stroke-linecap:square;stroke-linejoin:miter;stroke-width:2.5;"/>
   </g>
   <g id="patch_12">
    <path d="M 105.9175 776.598281 
L 1110.3175 776.598281 
" style="fill:none;stroke:#000000;stroke-linecap:square;stroke-linejoin:miter;stroke-width:2.5;"/>
   </g>
   <g id="PathCollection_25">
    <defs>
     <path d="M 0 4 
C 1.060812 4 2.078319 3.578535 2.828427 2.828427 
C 3.578535 2.078319 4 1.060812 4 0 
C 4 -1.060812 3.578535 -2.078319 2.828427 -2.828427 
C 2.078319 -3.578535 1.060812 -4 0 -4 
C -1.060812 -4 -2.078319 -3.578535 -2.828427 -2.828427 
C -3.578535 -2.078319 -4 -1.060812 -4 0 
C -4 1.060812 -3.578535 2.078319 -2.828427 2.828427 
C -2.078319 3.578535 -1.060812 4 0 4 
z
" id="C10_0_9877a8e525"/>
    </defs>
    <g clip-path="url(#p3a684c324c)">
     <use style="fill:#1f77b4;" x="156.602058" xlink:href="#C10_0_9877a8e525" y="449.78349"/>
    </g>
    <g clip-path="url(#p3a684c324c)">
     <use style="fill:#1f77b4;" x="157.102119" xlink:href="#C10_0_9877a8e525" y="445.805327"/>
    </g>
    <g clip-path="url(#p3a684c324c)">
     <use style="fill:#1f77b4;" x="157.896907" xlink:href="#C10_0_9877a8e525" y="445.805327"/>
    </g>
    <g clip-path="url(#p3a684c324c)">
     <use style="fill:#1f77b4;" x="159.531371" xlink:href="#C10_0_9877a8e525" y="449.091636"/>
    </g>
    <g clip-path="url(#p3a684c324c)">
     <use style="fill:#1f77b4;" x="151.976252" xlink:href="#C10_0_9877a8e525" y="445.113472"/>
    </g>
    <g clip-path="url(#p3a684c324c)">
     <use style="fill:#1f77b4;" x="155.091385" xlink:href="#C10_0_9877a8e525" y="445.113472"/>
    </g>
   </g>
   <g id="PathCollection_26">
    <defs>
     <path d="M 0 4 
C 1.060812 4 2.078319 3.578535 2.828427 2.828427 
C 3.578535 2.078319 4 1.060812 4 0 
C 4 -1.060812 3.578535 -2.078319 2.828427 -2.828427 
C 2.078319 -3.578535 1.060812 -4 0 -4 
C -1.060812 -4 -2.078319 -3.578535 -2.828427 -2.828427 
C -3.578535 -2.078319 -4 -1.060812 -4 0 
C -4 1.060812 -3.578535 2.078319 -2.828427 2.828427 
C -2.078319 3.578535 -1.060812 4 0 4 
z
" id="C11_0_fd801a1ed5"/>
    </defs>
    <g clip-path="url(#p3a684c324c)">
     <use style="fill:#ff7f0e;" x="209.355895" xlink:href="#C11_0_fd801a1ed5" y="455.404809"/>
    </g>
    <g clip-path="url(#p3a684c324c)">
     <use style="fill:#ff7f0e;" x="205.132023" xlink:href="#C11_0_fd801a1ed5" y="454.626472"/>
    </g>
    <g clip-path="url(#p3a684c324c)">
     <use style="fill:#ff7f0e;" x="202.596945" xlink:href="#C11_0_fd801a1ed5" y="455.231845"/>
    </g>
    <g clip-path="url(#p3a684c324c)">
     <use style="fill:#ff7f0e;" x="205.439981" xlink:href="#C11_0_fd801a1ed5" y="473.998399"/>
    </g>
   </g>
   <g id="PathCollection_27">
    <defs>
     <path d="M 0 4 
C 1.060812 4 2.078319 3.578535 2.828427 2.828427 
C 3.578535 2.078319 4 1.060812 4 0 
C 4 -1.060812 3.578535 -2.078319 2.828427 -2.828427 
C 2.078319 -3.578535 1.060812 -4 0 -4 
C -1.060812 -4 -2.078319 -3.578535 -2.828427 -2.828427 
C -3.578535 -2.078319 -4 -1.060812 -4 0 
C -4 1.060812 -3.578535 2.078319 -2.828427 2.828427 
C -2.078319 3.578535 -1.060812 4 0 4 
z
" id="C12_0_94bf1b69d8"/>
    </defs>
    <g clip-path="url(#p3a684c324c)">
     <use style="fill:#2ca02c;" x="259.640141" xlink:href="#C12_0_94bf1b69d8" y="455.664254"/>
    </g>
    <g clip-path="url(#p3a684c324c)">
     <use style="fill:#2ca02c;" x="253.097057" xlink:href="#C12_0_94bf1b69d8" y="460.939645"/>
    </g>
    <g clip-path="url(#p3a684c324c)">
     <use style="fill:#2ca02c;" x="262.397353" xlink:href="#C12_0_94bf1b69d8" y="467.339299"/>
    </g>
    <g clip-path="url(#p3a684c324c)">
     <use style="fill:#2ca02c;" x="254.987645" xlink:href="#C12_0_94bf1b69d8" y="455.750736"/>
    </g>
    <g clip-path="url(#p3a684c324c)">
     <use style="fill:#2ca02c;" x="254.579137" xlink:href="#C12_0_94bf1b69d8" y="461.804463"/>
    </g>
    <g clip-path="url(#p3a684c324c)">
     <use style="fill:#2ca02c;" x="257.990014" xlink:href="#C12_0_94bf1b69d8" y="467.685227"/>
    </g>
    <g clip-path="url(#p3a684c324c)">
     <use style="fill:#2ca02c;" x="251.194631" xlink:href="#C12_0_94bf1b69d8" y="462.323354"/>
    </g>
    <g clip-path="url(#p3a684c324c)">
     <use style="fill:#2ca02c;" x="259.759771" xlink:href="#C12_0_94bf1b69d8" y="467.166336"/>
    </g>
    <g clip-path="url(#p3a684c324c)">
     <use style="fill:#2ca02c;" x="258.924308" xlink:href="#C12_0_94bf1b69d8" y="472.701172"/>
    </g>
   </g>
   <g id="PathCollection_28">
    <defs>
     <path d="M 0 4 
C 1.060812 4 2.078319 3.578535 2.828427 2.828427 
C 3.578535 2.078319 4 1.060812 4 0 
C 4 -1.060812 3.578535 -2.078319 2.828427 -2.828427 
C 2.078319 -3.578535 1.060812 -4 0 -4 
C -1.060812 -4 -2.078319 -3.578535 -2.828427 -2.828427 
C -3.578535 -2.078319 -4 -1.060812 -4 0 
C -4 1.060812 -3.578535 2.078319 -2.828427 2.828427 
C -2.078319 3.578535 -1.060812 4 0 4 
z
" id="C13_0_c3ce02c9cc"/>
    </defs>
    <g clip-path="url(#p3a684c324c)">
     <use style="fill:#ff0000;" x="300.806671" xlink:href="#C13_0_c3ce02c9cc" y="448.226818"/>
    </g>
    <g clip-path="url(#p3a684c324c)">
     <use style="fill:#ff0000;" x="307.137752" xlink:href="#C13_0_c3ce02c9cc" y="448.572745"/>
    </g>
    <g clip-path="url(#p3a684c324c)">
     <use style="fill:#ff0000;" x="312.014409" xlink:href="#C13_0_c3ce02c9cc" y="448.745709"/>
    </g>
    <g clip-path="url(#p3a684c324c)">
     <use style="fill:#ff0000;" x="312.422606" xlink:href="#C13_0_c3ce02c9cc" y="448.313299"/>
    </g>
    <g clip-path="url(#p3a684c324c)">
     <use style="fill:#ff0000;" x="303.176417" xlink:href="#C13_0_c3ce02c9cc" y="448.399781"/>
    </g>
    <g clip-path="url(#p3a684c324c)">
     <use style="fill:#ff0000;" x="310.906682" xlink:href="#C13_0_c3ce02c9cc" y="448.572745"/>
    </g>
    <g clip-path="url(#p3a684c324c)">
     <use style="fill:#ff0000;" x="305.1572" xlink:href="#C13_0_c3ce02c9cc" y="448.659227"/>
    </g>
    <g clip-path="url(#p3a684c324c)">
     <use style="fill:#ff0000;" x="310.843727" xlink:href="#C13_0_c3ce02c9cc" y="448.399781"/>
    </g>
    <g clip-path="url(#p3a684c324c)">
     <use style="fill:#ff0000;" x="306.159972" xlink:href="#C13_0_c3ce02c9cc" y="448.313299"/>
    </g>
    <g clip-path="url(#p3a684c324c)">
     <use style="fill:#ff0000;" x="303.785738" xlink:href="#C13_0_c3ce02c9cc" y="448.313299"/>
    </g>
    <g clip-path="url(#p3a684c324c)">
     <use style="fill:#ff0000;" x="305.905074" xlink:href="#C13_0_c3ce02c9cc" y="448.659227"/>
    </g>
    <g clip-path="url(#p3a684c324c)">
     <use style="fill:#ff0000;" x="304.14744" xlink:href="#C13_0_c3ce02c9cc" y="448.313299"/>
    </g>
   </g>
   <g id="PathCollection_29">
    <defs>
     <path d="M 0 4 
C 1.060812 4 2.078319 3.578535 2.828427 2.828427 
C 3.578535 2.078319 4 1.060812 4 0 
C 4 -1.060812 3.578535 -2.078319 2.828427 -2.828427 
C 2.078319 -3.578535 1.060812 -4 0 -4 
C -1.060812 -4 -2.078319 -3.578535 -2.828427 -2.828427 
C -3.578535 -2.078319 -4 -1.060812 -4 0 
C -4 1.060812 -3.578535 2.078319 -2.828427 2.828427 
C -2.078319 3.578535 -1.060812 4 0 4 
z
" id="C14_0_4e23c2a47c"/>
    </defs>
    <g clip-path="url(#p3a684c324c)">
     <use style="fill:#1f77b4;" x="411.081535" xlink:href="#C14_0_4e23c2a47c" y="470.71209"/>
    </g>
    <g clip-path="url(#p3a684c324c)">
     <use style="fill:#1f77b4;" x="408.747544" xlink:href="#C14_0_4e23c2a47c" y="467.512263"/>
    </g>
    <g clip-path="url(#p3a684c324c)">
     <use style="fill:#1f77b4;" x="412.876577" xlink:href="#C14_0_4e23c2a47c" y="467.339299"/>
    </g>
    <g clip-path="url(#p3a684c324c)">
     <use style="fill:#1f77b4;" x="403.268885" xlink:href="#C14_0_4e23c2a47c" y="470.71209"/>
    </g>
    <g clip-path="url(#p3a684c324c)">
     <use style="fill:#1f77b4;" x="406.021503" xlink:href="#C14_0_4e23c2a47c" y="467.512263"/>
    </g>
    <g clip-path="url(#p3a684c324c)">
     <use style="fill:#1f77b4;" x="403.538946" xlink:href="#C14_0_4e23c2a47c" y="467.339299"/>
    </g>
   </g>
   <g id="PathCollection_30">
    <defs>
     <path d="M 0 4 
C 1.060812 4 2.078319 3.578535 2.828427 2.828427 
C 3.578535 2.078319 4 1.060812 4 0 
C 4 -1.060812 3.578535 -2.078319 2.828427 -2.828427 
C 2.078319 -3.578535 1.060812 -4 0 -4 
C -1.060812 -4 -2.078319 -3.578535 -2.828427 -2.828427 
C -3.578535 -2.078319 -4 -1.060812 -4 0 
C -4 1.060812 -3.578535 2.078319 -2.828427 2.828427 
C -2.078319 3.578535 -1.060812 4 0 4 
z
" id="C15_0_752dcd9b05"/>
    </defs>
    <g clip-path="url(#p3a684c324c)">
     <use style="fill:#ff7f0e;" x="455.669225" xlink:href="#C15_0_752dcd9b05" y="489.132718"/>
    </g>
    <g clip-path="url(#p3a684c324c)">
     <use style="fill:#ff7f0e;" x="461.517098" xlink:href="#C15_0_752dcd9b05" y="488.959754"/>
    </g>
    <g clip-path="url(#p3a684c324c)">
     <use style="fill:#ff7f0e;" x="454.286857" xlink:href="#C15_0_752dcd9b05" y="489.651609"/>
    </g>
    <g clip-path="url(#p3a684c324c)">
     <use style="fill:#ff7f0e;" x="462.626992" xlink:href="#C15_0_752dcd9b05" y="509.023536"/>
    </g>
   </g>
   <g id="PathCollection_31">
    <defs>
     <path d="M 0 4 
C 1.060812 4 2.078319 3.578535 2.828427 2.828427 
C 3.578535 2.078319 4 1.060812 4 0 
C 4 -1.060812 3.578535 -2.078319 2.828427 -2.828427 
C 2.078319 -3.578535 1.060812 -4 0 -4 
C -1.060812 -4 -2.078319 -3.578535 -2.828427 -2.828427 
C -3.578535 -2.078319 -4 -1.060812 -4 0 
C -4 1.060812 -3.578535 2.078319 -2.828427 2.828427 
C -2.078319 3.578535 -1.060812 4 0 4 
z
" id="C16_0_b7741a09a6"/>
    </defs>
    <g clip-path="url(#p3a684c324c)">
     <use style="fill:#2ca02c;" x="510.846806" xlink:href="#C16_0_b7741a09a6" y="491.467727"/>
    </g>
    <g clip-path="url(#p3a684c324c)">
     <use style="fill:#2ca02c;" x="501.453725" xlink:href="#C16_0_b7741a09a6" y="495.791818"/>
    </g>
    <g clip-path="url(#p3a684c324c)">
     <use style="fill:#2ca02c;" x="510.026522" xlink:href="#C16_0_b7741a09a6" y="500.807763"/>
    </g>
    <g clip-path="url(#p3a684c324c)">
     <use style="fill:#2ca02c;" x="504.714899" xlink:href="#C16_0_b7741a09a6" y="491.64069"/>
    </g>
    <g clip-path="url(#p3a684c324c)">
     <use style="fill:#2ca02c;" x="510.864871" xlink:href="#C16_0_b7741a09a6" y="496.916081"/>
    </g>
    <g clip-path="url(#p3a684c324c)">
     <use style="fill:#2ca02c;" x="510.84887" xlink:href="#C16_0_b7741a09a6" y="501.759063"/>
    </g>
    <g clip-path="url(#p3a684c324c)">
     <use style="fill:#2ca02c;" x="510.799749" xlink:href="#C16_0_b7741a09a6" y="496.916081"/>
    </g>
    <g clip-path="url(#p3a684c324c)">
     <use style="fill:#2ca02c;" x="510.727365" xlink:href="#C16_0_b7741a09a6" y="501.326654"/>
    </g>
    <g clip-path="url(#p3a684c324c)">
     <use style="fill:#2ca02c;" x="502.9107" xlink:href="#C16_0_b7741a09a6" y="506.256118"/>
    </g>
   </g>
   <g id="PathCollection_32">
    <defs>
     <path d="M 0 4 
C 1.060812 4 2.078319 3.578535 2.828427 2.828427 
C 3.578535 2.078319 4 1.060812 4 0 
C 4 -1.060812 3.578535 -2.078319 2.828427 -2.828427 
C 2.078319 -3.578535 1.060812 -4 0 -4 
C -1.060812 -4 -2.078319 -3.578535 -2.828427 -2.828427 
C -3.578535 -2.078319 -4 -1.060812 -4 0 
C -4 1.060812 -3.578535 2.078319 -2.828427 2.828427 
C -2.078319 3.578535 -1.060812 4 0 4 
z
" id="C17_0_67a75c49cc"/>
    </defs>
    <g clip-path="url(#p3a684c324c)">
     <use style="fill:#ff0000;" x="563.864663" xlink:href="#C17_0_67a75c49cc" y="485.586963"/>
    </g>
    <g clip-path="url(#p3a684c324c)">
     <use style="fill:#ff0000;" x="555.399369" xlink:href="#C17_0_67a75c49cc" y="486.970672"/>
    </g>
    <g clip-path="url(#p3a684c324c)">
     <use style="fill:#ff0000;" x="560.124386" xlink:href="#C17_0_67a75c49cc" y="485.413999"/>
    </g>
    <g clip-path="url(#p3a684c324c)">
     <use style="fill:#ff0000;" x="556.199117" xlink:href="#C17_0_67a75c49cc" y="488.78679"/>
    </g>
    <g clip-path="url(#p3a684c324c)">
     <use style="fill:#ff0000;" x="561.785822" xlink:href="#C17_0_67a75c49cc" y="486.192336"/>
    </g>
    <g clip-path="url(#p3a684c324c)">
     <use style="fill:#ff0000;" x="560.343641" xlink:href="#C17_0_67a75c49cc" y="486.538263"/>
    </g>
    <g clip-path="url(#p3a684c324c)">
     <use style="fill:#ff0000;" x="551.785494" xlink:href="#C17_0_67a75c49cc" y="487.662527"/>
    </g>
    <g clip-path="url(#p3a684c324c)">
     <use style="fill:#ff0000;" x="561.769608" xlink:href="#C17_0_67a75c49cc" y="486.797709"/>
    </g>
    <g clip-path="url(#p3a684c324c)">
     <use style="fill:#ff0000;" x="563.540611" xlink:href="#C17_0_67a75c49cc" y="487.403081"/>
    </g>
    <g clip-path="url(#p3a684c324c)">
     <use style="fill:#ff0000;" x="554.101291" xlink:href="#C17_0_67a75c49cc" y="488.440863"/>
    </g>
    <g clip-path="url(#p3a684c324c)">
     <use style="fill:#ff0000;" x="554.025424" xlink:href="#C17_0_67a75c49cc" y="488.700309"/>
    </g>
    <g clip-path="url(#p3a684c324c)">
     <use style="fill:#ff0000;" x="557.784672" xlink:href="#C17_0_67a75c49cc" y="490.68939"/>
    </g>
   </g>
   <g id="PathCollection_33">
    <defs>
     <path d="M 0 4 
C 1.060812 4 2.078319 3.578535 2.828427 2.828427 
C 3.578535 2.078319 4 1.060812 4 0 
C 4 -1.060812 3.578535 -2.078319 2.828427 -2.828427 
C 2.078319 -3.578535 1.060812 -4 0 -4 
C -1.060812 -4 -2.078319 -3.578535 -2.828427 -2.828427 
C -3.578535 -2.078319 -4 -1.060812 -4 0 
C -4 1.060812 -3.578535 2.078319 -2.828427 2.828427 
C -2.078319 3.578535 -1.060812 4 0 4 
z
" id="C18_0_369a3ad1de"/>
    </defs>
    <g clip-path="url(#p3a684c324c)">
     <use style="fill:#1f77b4;" x="660.793204" xlink:href="#C18_0_369a3ad1de" y="452.291463"/>
    </g>
    <g clip-path="url(#p3a684c324c)">
     <use style="fill:#1f77b4;" x="655.980075" xlink:href="#C18_0_369a3ad1de" y="448.659227"/>
    </g>
    <g clip-path="url(#p3a684c324c)">
     <use style="fill:#1f77b4;" x="659.440888" xlink:href="#C18_0_369a3ad1de" y="448.659227"/>
    </g>
    <g clip-path="url(#p3a684c324c)">
     <use style="fill:#1f77b4;" x="656.393799" xlink:href="#C18_0_369a3ad1de" y="451.340163"/>
    </g>
    <g clip-path="url(#p3a684c324c)">
     <use style="fill:#1f77b4;" x="660.068397" xlink:href="#C18_0_369a3ad1de" y="447.707927"/>
    </g>
    <g clip-path="url(#p3a684c324c)">
     <use style="fill:#1f77b4;" x="661.479774" xlink:href="#C18_0_369a3ad1de" y="447.707927"/>
    </g>
   </g>
   <g id="PathCollection_34">
    <defs>
     <path d="M 0 4 
C 1.060812 4 2.078319 3.578535 2.828427 2.828427 
C 3.578535 2.078319 4 1.060812 4 0 
C 4 -1.060812 3.578535 -2.078319 2.828427 -2.828427 
C 2.078319 -3.578535 1.060812 -4 0 -4 
C -1.060812 -4 -2.078319 -3.578535 -2.828427 -2.828427 
C -3.578535 -2.078319 -4 -1.060812 -4 0 
C -4 1.060812 -3.578535 2.078319 -2.828427 2.828427 
C -2.078319 3.578535 -1.060812 4 0 4 
z
" id="C19_0_93e55ae078"/>
    </defs>
    <g clip-path="url(#p3a684c324c)">
     <use style="fill:#ff7f0e;" x="703.476982" xlink:href="#C19_0_93e55ae078" y="487.143636"/>
    </g>
    <g clip-path="url(#p3a684c324c)">
     <use style="fill:#ff7f0e;" x="706.653875" xlink:href="#C19_0_93e55ae078" y="487.316599"/>
    </g>
    <g clip-path="url(#p3a684c324c)">
     <use style="fill:#ff7f0e;" x="706.548478" xlink:href="#C19_0_93e55ae078" y="488.008454"/>
    </g>
    <g clip-path="url(#p3a684c324c)">
     <use style="fill:#ff7f0e;" x="714.490365" xlink:href="#C19_0_93e55ae078" y="490.775872"/>
    </g>
   </g>
   <g id="PathCollection_35">
    <defs>
     <path d="M 0 4 
C 1.060812 4 2.078319 3.578535 2.828427 2.828427 
C 3.578535 2.078319 4 1.060812 4 0 
C 4 -1.060812 3.578535 -2.078319 2.828427 -2.828427 
C 2.078319 -3.578535 1.060812 -4 0 -4 
C -1.060812 -4 -2.078319 -3.578535 -2.828427 -2.828427 
C -3.578535 -2.078319 -4 -1.060812 -4 0 
C -4 1.060812 -3.578535 2.078319 -2.828427 2.828427 
C -2.078319 3.578535 -1.060812 4 0 4 
z
" id="C1a_0_72e4205d0b"/>
    </defs>
    <g clip-path="url(#p3a684c324c)">
     <use style="fill:#2ca02c;" x="757.165068" xlink:href="#C1a_0_72e4205d0b" y="498.559236"/>
    </g>
    <g clip-path="url(#p3a684c324c)">
     <use style="fill:#2ca02c;" x="763.317046" xlink:href="#C1a_0_72e4205d0b" y="499.164609"/>
    </g>
    <g clip-path="url(#p3a684c324c)">
     <use style="fill:#2ca02c;" x="763.32125" xlink:href="#C1a_0_72e4205d0b" y="500.288872"/>
    </g>
    <g clip-path="url(#p3a684c324c)">
     <use style="fill:#2ca02c;" x="763.018558" xlink:href="#C1a_0_72e4205d0b" y="498.040345"/>
    </g>
    <g clip-path="url(#p3a684c324c)">
     <use style="fill:#2ca02c;" x="758.937377" xlink:href="#C1a_0_72e4205d0b" y="498.905163"/>
    </g>
    <g clip-path="url(#p3a684c324c)">
     <use style="fill:#2ca02c;" x="759.932007" xlink:href="#C1a_0_72e4205d0b" y="499.769981"/>
    </g>
    <g clip-path="url(#p3a684c324c)">
     <use style="fill:#2ca02c;" x="761.160048" xlink:href="#C1a_0_72e4205d0b" y="500.980727"/>
    </g>
    <g clip-path="url(#p3a684c324c)">
     <use style="fill:#2ca02c;" x="754.490038" xlink:href="#C1a_0_72e4205d0b" y="501.499618"/>
    </g>
    <g clip-path="url(#p3a684c324c)">
     <use style="fill:#2ca02c;" x="756.842968" xlink:href="#C1a_0_72e4205d0b" y="502.364436"/>
    </g>
   </g>
   <g id="PathCollection_36">
    <defs>
     <path d="M 0 4 
C 1.060812 4 2.078319 3.578535 2.828427 2.828427 
C 3.578535 2.078319 4 1.060812 4 0 
C 4 -1.060812 3.578535 -2.078319 2.828427 -2.828427 
C 2.078319 -3.578535 1.060812 -4 0 -4 
C -1.060812 -4 -2.078319 -3.578535 -2.828427 -2.828427 
C -3.578535 -2.078319 -4 -1.060812 -4 0 
C -4 1.060812 -3.578535 2.078319 -2.828427 2.828427 
C -2.078319 3.578535 -1.060812 4 0 4 
z
" id="C1b_0_657f025288"/>
    </defs>
    <g clip-path="url(#p3a684c324c)">
     <use style="fill:#ff0000;" x="803.796912" xlink:href="#C1b_0_657f025288" y="446.583663"/>
    </g>
    <g clip-path="url(#p3a684c324c)">
     <use style="fill:#ff0000;" x="811.424579" xlink:href="#C1b_0_657f025288" y="446.670145"/>
    </g>
    <g clip-path="url(#p3a684c324c)">
     <use style="fill:#ff0000;" x="807.172572" xlink:href="#C1b_0_657f025288" y="446.583663"/>
    </g>
    <g clip-path="url(#p3a684c324c)">
     <use style="fill:#ff0000;" x="807.610634" xlink:href="#C1b_0_657f025288" y="446.670145"/>
    </g>
    <g clip-path="url(#p3a684c324c)">
     <use style="fill:#ff0000;" x="806.877767" xlink:href="#C1b_0_657f025288" y="446.410699"/>
    </g>
    <g clip-path="url(#p3a684c324c)">
     <use style="fill:#ff0000;" x="808.697952" xlink:href="#C1b_0_657f025288" y="446.410699"/>
    </g>
    <g clip-path="url(#p3a684c324c)">
     <use style="fill:#ff0000;" x="807.105432" xlink:href="#C1b_0_657f025288" y="446.410699"/>
    </g>
    <g clip-path="url(#p3a684c324c)">
     <use style="fill:#ff0000;" x="815.069289" xlink:href="#C1b_0_657f025288" y="446.756627"/>
    </g>
    <g clip-path="url(#p3a684c324c)">
     <use style="fill:#ff0000;" x="805.045159" xlink:href="#C1b_0_657f025288" y="446.670145"/>
    </g>
    <g clip-path="url(#p3a684c324c)">
     <use style="fill:#ff0000;" x="813.133395" xlink:href="#C1b_0_657f025288" y="446.670145"/>
    </g>
    <g clip-path="url(#p3a684c324c)">
     <use style="fill:#ff0000;" x="804.06358" xlink:href="#C1b_0_657f025288" y="446.410699"/>
    </g>
    <g clip-path="url(#p3a684c324c)">
     <use style="fill:#ff0000;" x="806.936934" xlink:href="#C1b_0_657f025288" y="446.843109"/>
    </g>
   </g>
   <g id="PathCollection_37">
    <defs>
     <path d="M 0 4 
C 1.060812 4 2.078319 3.578535 2.828427 2.828427 
C 3.578535 2.078319 4 1.060812 4 0 
C 4 -1.060812 3.578535 -2.078319 2.828427 -2.828427 
C 2.078319 -3.578535 1.060812 -4 0 -4 
C -1.060812 -4 -2.078319 -3.578535 -2.828427 -2.828427 
C -3.578535 -2.078319 -4 -1.060812 -4 0 
C -4 1.060812 -3.578535 2.078319 -2.828427 2.828427 
C -2.078319 3.578535 -1.060812 4 0 4 
z
" id="C1c_0_443be5d9d6"/>
    </defs>
    <g clip-path="url(#p3a684c324c)">
     <use style="fill:#1f77b4;" x="912.591566" xlink:href="#C1c_0_443be5d9d6" y="474.863218"/>
    </g>
    <g clip-path="url(#p3a684c324c)">
     <use style="fill:#1f77b4;" x="904.757604" xlink:href="#C1c_0_443be5d9d6" y="471.230981"/>
    </g>
    <g clip-path="url(#p3a684c324c)">
     <use style="fill:#1f77b4;" x="905.382541" xlink:href="#C1c_0_443be5d9d6" y="470.798572"/>
    </g>
    <g clip-path="url(#p3a684c324c)">
     <use style="fill:#1f77b4;" x="915.314579" xlink:href="#C1c_0_443be5d9d6" y="474.863218"/>
    </g>
    <g clip-path="url(#p3a684c324c)">
     <use style="fill:#1f77b4;" x="904.397152" xlink:href="#C1c_0_443be5d9d6" y="471.230981"/>
    </g>
    <g clip-path="url(#p3a684c324c)">
     <use style="fill:#1f77b4;" x="903.454209" xlink:href="#C1c_0_443be5d9d6" y="470.798572"/>
    </g>
   </g>
   <g id="PathCollection_38">
    <defs>
     <path d="M 0 4 
C 1.060812 4 2.078319 3.578535 2.828427 2.828427 
C 3.578535 2.078319 4 1.060812 4 0 
C 4 -1.060812 3.578535 -2.078319 2.828427 -2.828427 
C 2.078319 -3.578535 1.060812 -4 0 -4 
C -1.060812 -4 -2.078319 -3.578535 -2.828427 -2.828427 
C -3.578535 -2.078319 -4 -1.060812 -4 0 
C -4 1.060812 -3.578535 2.078319 -2.828427 2.828427 
C -2.078319 3.578535 -1.060812 4 0 4 
z
" id="C1d_0_6d62f5c851"/>
    </defs>
    <g clip-path="url(#p3a684c324c)">
     <use style="fill:#ff7f0e;" x="955.141396" xlink:href="#C1d_0_6d62f5c851" y="524.763227"/>
    </g>
    <g clip-path="url(#p3a684c324c)">
     <use style="fill:#ff7f0e;" x="955.283715" xlink:href="#C1d_0_6d62f5c851" y="524.93619"/>
    </g>
    <g clip-path="url(#p3a684c324c)">
     <use style="fill:#ff7f0e;" x="958.057733" xlink:href="#C1d_0_6d62f5c851" y="525.368599"/>
    </g>
    <g clip-path="url(#p3a684c324c)">
     <use style="fill:#ff7f0e;" x="956.54152" xlink:href="#C1d_0_6d62f5c851" y="528.568427"/>
    </g>
   </g>
   <g id="PathCollection_39">
    <defs>
     <path d="M 0 4 
C 1.060812 4 2.078319 3.578535 2.828427 2.828427 
C 3.578535 2.078319 4 1.060812 4 0 
C 4 -1.060812 3.578535 -2.078319 2.828427 -2.828427 
C 2.078319 -3.578535 1.060812 -4 0 -4 
C -1.060812 -4 -2.078319 -3.578535 -2.828427 -2.828427 
C -3.578535 -2.078319 -4 -1.060812 -4 0 
C -4 1.060812 -3.578535 2.078319 -2.828427 2.828427 
C -2.078319 3.578535 -1.060812 4 0 4 
z
" id="C1e_0_8900fa1805"/>
    </defs>
    <g clip-path="url(#p3a684c324c)">
     <use style="fill:#2ca02c;" x="1009.111121" xlink:href="#C1e_0_8900fa1805" y="511.012618"/>
    </g>
    <g clip-path="url(#p3a684c324c)">
     <use style="fill:#2ca02c;" x="1015.107553" xlink:href="#C1e_0_8900fa1805" y="511.963918"/>
    </g>
    <g clip-path="url(#p3a684c324c)">
     <use style="fill:#2ca02c;" x="1014.90909" xlink:href="#C1e_0_8900fa1805" y="513.174663"/>
    </g>
    <g clip-path="url(#p3a684c324c)">
     <use style="fill:#2ca02c;" x="1014.44607" xlink:href="#C1e_0_8900fa1805" y="511.531509"/>
    </g>
    <g clip-path="url(#p3a684c324c)">
     <use style="fill:#2ca02c;" x="1013.847966" xlink:href="#C1e_0_8900fa1805" y="512.482809"/>
    </g>
    <g clip-path="url(#p3a684c324c)">
     <use style="fill:#2ca02c;" x="1008.477768" xlink:href="#C1e_0_8900fa1805" y="513.347627"/>
    </g>
    <g clip-path="url(#p3a684c324c)">
     <use style="fill:#2ca02c;" x="1014.944464" xlink:href="#C1e_0_8900fa1805" y="514.47189"/>
    </g>
    <g clip-path="url(#p3a684c324c)">
     <use style="fill:#2ca02c;" x="1011.522545" xlink:href="#C1e_0_8900fa1805" y="515.163745"/>
    </g>
    <g clip-path="url(#p3a684c324c)">
     <use style="fill:#2ca02c;" x="1014.057415" xlink:href="#C1e_0_8900fa1805" y="516.201527"/>
    </g>
   </g>
   <g id="PathCollection_40">
    <defs>
     <path d="M 0 4 
C 1.060812 4 2.078319 3.578535 2.828427 2.828427 
C 3.578535 2.078319 4 1.060812 4 0 
C 4 -1.060812 3.578535 -2.078319 2.828427 -2.828427 
C 2.078319 -3.578535 1.060812 -4 0 -4 
C -1.060812 -4 -2.078319 -3.578535 -2.828427 -2.828427 
C -3.578535 -2.078319 -4 -1.060812 -4 0 
C -4 1.060812 -3.578535 2.078319 -2.828427 2.828427 
C -2.078319 3.578535 -1.060812 4 0 4 
z
" id="C1f_0_bbc47b45bf"/>
    </defs>
    <g clip-path="url(#p3a684c324c)">
     <use style="fill:#ff0000;" x="1060.621536" xlink:href="#C1f_0_bbc47b45bf" y="492.073099"/>
    </g>
    <g clip-path="url(#p3a684c324c)">
     <use style="fill:#ff0000;" x="1065.202608" xlink:href="#C1f_0_bbc47b45bf" y="493.629772"/>
    </g>
    <g clip-path="url(#p3a684c324c)">
     <use style="fill:#ff0000;" x="1063.303079" xlink:href="#C1f_0_bbc47b45bf" y="493.629772"/>
    </g>
    <g clip-path="url(#p3a684c324c)">
     <use style="fill:#ff0000;" x="1060.130537" xlink:href="#C1f_0_bbc47b45bf" y="491.467727"/>
    </g>
    <g clip-path="url(#p3a684c324c)">
     <use style="fill:#ff0000;" x="1061.373562" xlink:href="#C1f_0_bbc47b45bf" y="489.73809"/>
    </g>
    <g clip-path="url(#p3a684c324c)">
     <use style="fill:#ff0000;" x="1066.122034" xlink:href="#C1f_0_bbc47b45bf" y="488.181418"/>
    </g>
    <g clip-path="url(#p3a684c324c)">
     <use style="fill:#ff0000;" x="1061.279967" xlink:href="#C1f_0_bbc47b45bf" y="485.759927"/>
    </g>
    <g clip-path="url(#p3a684c324c)">
     <use style="fill:#ff0000;" x="1060.460295" xlink:href="#C1f_0_bbc47b45bf" y="491.554209"/>
    </g>
    <g clip-path="url(#p3a684c324c)">
     <use style="fill:#ff0000;" x="1063.267086" xlink:href="#C1f_0_bbc47b45bf" y="489.651609"/>
    </g>
    <g clip-path="url(#p3a684c324c)">
     <use style="fill:#ff0000;" x="1057.459379" xlink:href="#C1f_0_bbc47b45bf" y="486.105854"/>
    </g>
    <g clip-path="url(#p3a684c324c)">
     <use style="fill:#ff0000;" x="1065.887086" xlink:href="#C1f_0_bbc47b45bf" y="487.316599"/>
    </g>
    <g clip-path="url(#p3a684c324c)">
     <use style="fill:#ff0000;" x="1065.254437" xlink:href="#C1f_0_bbc47b45bf" y="491.035318"/>
    </g>
   </g>
  </g>
 </g>
 <defs>
  <clipPath id="pfe24a90908">
   <rect height="345.927273" width="1004.4" x="105.9175" y="15.558281"/>
  </clipPath>
  <clipPath id="p3a684c324c">
   <rect height="345.927273" width="1004.4" x="105.9175" y="430.671009"/>
  </clipPath>
 </defs>
</svg>
