<?xml version="1.0" encoding="utf-8" standalone="no"?>
<!DOCTYPE svg PUBLIC "-//W3C//DTD SVG 1.1//EN"
  "http://www.w3.org/Graphics/SVG/1.1/DTD/svg11.dtd">
<!-- Created with matplotlib (https://matplotlib.org/) -->
<svg height="288pt" version="1.1" viewBox="0 0 432 288" width="432pt" xmlns="http://www.w3.org/2000/svg" xmlns:xlink="http://www.w3.org/1999/xlink">
 <defs>
  <style type="text/css">
*{stroke-linecap:butt;stroke-linejoin:round;}
  </style>
 </defs>
 <g id="figure_1">
  <g id="patch_1">
   <path d="M 0 288 
L 432 288 
L 432 0 
L 0 0 
z
" style="fill:#ffffff;"/>
  </g>
  <g id="axes_1">
   <g id="patch_2">
    <path d="M 54 252 
L 388.8 252 
L 388.8 34.56 
L 54 34.56 
z
" style="fill:#ffffff;"/>
   </g>
   <g id="patch_3">
    <path clip-path="url(#pfc59a3f7d7)" d="M 54 252 
L 62.37 252 
L 62.37 44.914286 
L 54 44.914286 
z
" style="fill:#4f4f4f;fill-opacity:0.75;stroke:#000000;stroke-linejoin:miter;stroke-width:0.191424;"/>
   </g>
   <g id="patch_4">
    <path clip-path="url(#pfc59a3f7d7)" d="M 62.37 252 
L 70.74 252 
L 70.74 210.654451 
L 62.37 210.654451 
z
" style="fill:#4f4f4f;fill-opacity:0.75;stroke:#000000;stroke-linejoin:miter;stroke-width:0.191424;"/>
   </g>
   <g id="patch_5">
    <path clip-path="url(#pfc59a3f7d7)" d="M 70.74 252 
L 79.11 252 
L 79.11 237.14424 
L 70.74 237.14424 
z
" style="fill:#4f4f4f;fill-opacity:0.75;stroke:#000000;stroke-linejoin:miter;stroke-width:0.191424;"/>
   </g>
   <g id="patch_6">
    <path clip-path="url(#pfc59a3f7d7)" d="M 79.11 252 
L 87.48 252 
L 87.48 241.260896 
L 79.11 241.260896 
z
" style="fill:#4f4f4f;fill-opacity:0.75;stroke:#000000;stroke-linejoin:miter;stroke-width:0.191424;"/>
   </g>
   <g id="patch_7">
    <path clip-path="url(#pfc59a3f7d7)" d="M 87.48 252 
L 95.85 252 
L 95.85 245.377553 
L 87.48 245.377553 
z
" style="fill:#4f4f4f;fill-opacity:0.75;stroke:#000000;stroke-linejoin:miter;stroke-width:0.191424;"/>
   </g>
   <g id="patch_8">
    <path clip-path="url(#pfc59a3f7d7)" d="M 95.85 252 
L 104.22 252 
L 104.22 199.915348 
L 95.85 199.915348 
z
" style="fill:#4f4f4f;fill-opacity:0.75;stroke:#000000;stroke-linejoin:miter;stroke-width:0.191424;"/>
   </g>
   <g id="patch_9">
    <path clip-path="url(#pfc59a3f7d7)" d="M 104.22 252 
L 112.59 252 
L 112.59 243.229732 
L 104.22 243.229732 
z
" style="fill:#4f4f4f;fill-opacity:0.75;stroke:#000000;stroke-linejoin:miter;stroke-width:0.191424;"/>
   </g>
   <g id="patch_10">
    <path clip-path="url(#pfc59a3f7d7)" d="M 112.59 252 
L 120.96 252 
L 120.96 247.704359 
L 112.59 247.704359 
z
" style="fill:#4f4f4f;fill-opacity:0.75;stroke:#000000;stroke-linejoin:miter;stroke-width:0.191424;"/>
   </g>
   <g id="patch_11">
    <path clip-path="url(#pfc59a3f7d7)" d="M 120.96 252 
L 129.33 252 
L 129.33 248.957254 
L 120.96 248.957254 
z
" style="fill:#4f4f4f;fill-opacity:0.75;stroke:#000000;stroke-linejoin:miter;stroke-width:0.191424;"/>
   </g>
   <g id="patch_12">
    <path clip-path="url(#pfc59a3f7d7)" d="M 129.33 252 
L 137.7 252 
L 137.7 249.136239 
L 129.33 249.136239 
z
" style="fill:#4f4f4f;fill-opacity:0.75;stroke:#000000;stroke-linejoin:miter;stroke-width:0.191424;"/>
   </g>
   <g id="patch_13">
    <path clip-path="url(#pfc59a3f7d7)" d="M 137.7 252 
L 146.07 252 
L 146.07 250.747105 
L 137.7 250.747105 
z
" style="fill:#4f4f4f;fill-opacity:0.75;stroke:#000000;stroke-linejoin:miter;stroke-width:0.191424;"/>
   </g>
   <g id="patch_14">
    <path clip-path="url(#pfc59a3f7d7)" d="M 146.07 252 
L 154.44 252 
L 154.44 250.210149 
L 146.07 250.210149 
z
" style="fill:#4f4f4f;fill-opacity:0.75;stroke:#000000;stroke-linejoin:miter;stroke-width:0.191424;"/>
   </g>
   <g id="patch_15">
    <path clip-path="url(#pfc59a3f7d7)" d="M 154.44 252 
L 162.81 252 
L 162.81 251.28406 
L 154.44 251.28406 
z
" style="fill:#4f4f4f;fill-opacity:0.75;stroke:#000000;stroke-linejoin:miter;stroke-width:0.191424;"/>
   </g>
   <g id="patch_16">
    <path clip-path="url(#pfc59a3f7d7)" d="M 162.81 252 
L 171.18 252 
L 171.18 251.821015 
L 162.81 251.821015 
z
" style="fill:#4f4f4f;fill-opacity:0.75;stroke:#000000;stroke-linejoin:miter;stroke-width:0.191424;"/>
   </g>
   <g id="patch_17">
    <path clip-path="url(#pfc59a3f7d7)" d="M 171.18 252 
L 179.55 252 
L 179.55 251.463045 
L 171.18 251.463045 
z
" style="fill:#4f4f4f;fill-opacity:0.75;stroke:#000000;stroke-linejoin:miter;stroke-width:0.191424;"/>
   </g>
   <g id="patch_18">
    <path clip-path="url(#pfc59a3f7d7)" d="M 179.55 252 
L 187.92 252 
L 187.92 252 
L 179.55 252 
z
" style="fill:#4f4f4f;fill-opacity:0.75;stroke:#000000;stroke-linejoin:miter;stroke-width:0.191424;"/>
   </g>
   <g id="patch_19">
    <path clip-path="url(#pfc59a3f7d7)" d="M 187.92 252 
L 196.29 252 
L 196.29 251.28406 
L 187.92 251.28406 
z
" style="fill:#4f4f4f;fill-opacity:0.75;stroke:#000000;stroke-linejoin:miter;stroke-width:0.191424;"/>
   </g>
   <g id="patch_20">
    <path clip-path="url(#pfc59a3f7d7)" d="M 196.29 252 
L 204.66 252 
L 204.66 251.105075 
L 196.29 251.105075 
z
" style="fill:#4f4f4f;fill-opacity:0.75;stroke:#000000;stroke-linejoin:miter;stroke-width:0.191424;"/>
   </g>
   <g id="patch_21">
    <path clip-path="url(#pfc59a3f7d7)" d="M 204.66 252 
L 213.03 252 
L 213.03 251.821015 
L 204.66 251.821015 
z
" style="fill:#4f4f4f;fill-opacity:0.75;stroke:#000000;stroke-linejoin:miter;stroke-width:0.191424;"/>
   </g>
   <g id="patch_22">
    <path clip-path="url(#pfc59a3f7d7)" d="M 213.03 252 
L 221.4 252 
L 221.4 251.821015 
L 213.03 251.821015 
z
" style="fill:#4f4f4f;fill-opacity:0.75;stroke:#000000;stroke-linejoin:miter;stroke-width:0.191424;"/>
   </g>
   <g id="patch_23">
    <path clip-path="url(#pfc59a3f7d7)" d="M 221.4 252 
L 229.77 252 
L 229.77 251.463045 
L 221.4 251.463045 
z
" style="fill:#4f4f4f;fill-opacity:0.75;stroke:#000000;stroke-linejoin:miter;stroke-width:0.191424;"/>
   </g>
   <g id="patch_24">
    <path clip-path="url(#pfc59a3f7d7)" d="M 229.77 252 
L 238.14 252 
L 238.14 251.64203 
L 229.77 251.64203 
z
" style="fill:#4f4f4f;fill-opacity:0.75;stroke:#000000;stroke-linejoin:miter;stroke-width:0.191424;"/>
   </g>
   <g id="patch_25">
    <path clip-path="url(#pfc59a3f7d7)" d="M 238.14 252 
L 246.51 252 
L 246.51 251.64203 
L 238.14 251.64203 
z
" style="fill:#4f4f4f;fill-opacity:0.75;stroke:#000000;stroke-linejoin:miter;stroke-width:0.191424;"/>
   </g>
   <g id="patch_26">
    <path clip-path="url(#pfc59a3f7d7)" d="M 246.51 252 
L 254.88 252 
L 254.88 251.821015 
L 246.51 251.821015 
z
" style="fill:#4f4f4f;fill-opacity:0.75;stroke:#000000;stroke-linejoin:miter;stroke-width:0.191424;"/>
   </g>
   <g id="patch_27">
    <path clip-path="url(#pfc59a3f7d7)" d="M 254.88 252 
L 263.25 252 
L 263.25 251.64203 
L 254.88 251.64203 
z
" style="fill:#4f4f4f;fill-opacity:0.75;stroke:#000000;stroke-linejoin:miter;stroke-width:0.191424;"/>
   </g>
   <g id="patch_28">
    <path clip-path="url(#pfc59a3f7d7)" d="M 263.25 252 
L 271.62 252 
L 271.62 251.463045 
L 263.25 251.463045 
z
" style="fill:#4f4f4f;fill-opacity:0.75;stroke:#000000;stroke-linejoin:miter;stroke-width:0.191424;"/>
   </g>
   <g id="patch_29">
    <path clip-path="url(#pfc59a3f7d7)" d="M 271.62 252 
L 279.99 252 
L 279.99 252 
L 271.62 252 
z
" style="fill:#4f4f4f;fill-opacity:0.75;stroke:#000000;stroke-linejoin:miter;stroke-width:0.191424;"/>
   </g>
   <g id="patch_30">
    <path clip-path="url(#pfc59a3f7d7)" d="M 279.99 252 
L 288.36 252 
L 288.36 252 
L 279.99 252 
z
" style="fill:#4f4f4f;fill-opacity:0.75;stroke:#000000;stroke-linejoin:miter;stroke-width:0.191424;"/>
   </g>
   <g id="patch_31">
    <path clip-path="url(#pfc59a3f7d7)" d="M 288.36 252 
L 296.73 252 
L 296.73 252 
L 288.36 252 
z
" style="fill:#4f4f4f;fill-opacity:0.75;stroke:#000000;stroke-linejoin:miter;stroke-width:0.191424;"/>
   </g>
   <g id="patch_32">
    <path clip-path="url(#pfc59a3f7d7)" d="M 296.73 252 
L 305.1 252 
L 305.1 251.821015 
L 296.73 251.821015 
z
" style="fill:#4f4f4f;fill-opacity:0.75;stroke:#000000;stroke-linejoin:miter;stroke-width:0.191424;"/>
   </g>
   <g id="patch_33">
    <path clip-path="url(#pfc59a3f7d7)" d="M 305.1 252 
L 313.47 252 
L 313.47 251.64203 
L 305.1 251.64203 
z
" style="fill:#4f4f4f;fill-opacity:0.75;stroke:#000000;stroke-linejoin:miter;stroke-width:0.191424;"/>
   </g>
   <g id="patch_34">
    <path clip-path="url(#pfc59a3f7d7)" d="M 313.47 252 
L 321.84 252 
L 321.84 252 
L 313.47 252 
z
" style="fill:#4f4f4f;fill-opacity:0.75;stroke:#000000;stroke-linejoin:miter;stroke-width:0.191424;"/>
   </g>
   <g id="patch_35">
    <path clip-path="url(#pfc59a3f7d7)" d="M 321.84 252 
L 330.21 252 
L 330.21 252 
L 321.84 252 
z
" style="fill:#4f4f4f;fill-opacity:0.75;stroke:#000000;stroke-linejoin:miter;stroke-width:0.191424;"/>
   </g>
   <g id="patch_36">
    <path clip-path="url(#pfc59a3f7d7)" d="M 330.21 252 
L 338.58 252 
L 338.58 251.821015 
L 330.21 251.821015 
z
" style="fill:#4f4f4f;fill-opacity:0.75;stroke:#000000;stroke-linejoin:miter;stroke-width:0.191424;"/>
   </g>
   <g id="patch_37">
    <path clip-path="url(#pfc59a3f7d7)" d="M 338.58 252 
L 346.95 252 
L 346.95 252 
L 338.58 252 
z
" style="fill:#4f4f4f;fill-opacity:0.75;stroke:#000000;stroke-linejoin:miter;stroke-width:0.191424;"/>
   </g>
   <g id="patch_38">
    <path clip-path="url(#pfc59a3f7d7)" d="M 346.95 252 
L 355.32 252 
L 355.32 252 
L 346.95 252 
z
" style="fill:#4f4f4f;fill-opacity:0.75;stroke:#000000;stroke-linejoin:miter;stroke-width:0.191424;"/>
   </g>
   <g id="patch_39">
    <path clip-path="url(#pfc59a3f7d7)" d="M 355.32 252 
L 363.69 252 
L 363.69 251.463045 
L 355.32 251.463045 
z
" style="fill:#4f4f4f;fill-opacity:0.75;stroke:#000000;stroke-linejoin:miter;stroke-width:0.191424;"/>
   </g>
   <g id="patch_40">
    <path clip-path="url(#pfc59a3f7d7)" d="M 363.69 252 
L 372.06 252 
L 372.06 252 
L 363.69 252 
z
" style="fill:#4f4f4f;fill-opacity:0.75;stroke:#000000;stroke-linejoin:miter;stroke-width:0.191424;"/>
   </g>
   <g id="patch_41">
    <path clip-path="url(#pfc59a3f7d7)" d="M 372.06 252 
L 380.43 252 
L 380.43 252 
L 372.06 252 
z
" style="fill:#4f4f4f;fill-opacity:0.75;stroke:#000000;stroke-linejoin:miter;stroke-width:0.191424;"/>
   </g>
   <g id="patch_42">
    <path clip-path="url(#pfc59a3f7d7)" d="M 380.43 252 
L 388.8 252 
L 388.8 251.821015 
L 380.43 251.821015 
z
" style="fill:#4f4f4f;fill-opacity:0.75;stroke:#000000;stroke-linejoin:miter;stroke-width:0.191424;"/>
   </g>
   <g id="patch_43">
    <path clip-path="url(#pfc59a3f7d7)" d="M 388.8 252 
L 397.17 252 
L 397.17 252 
L 388.8 252 
z
" style="fill:#4f4f4f;fill-opacity:0.75;stroke:#000000;stroke-linejoin:miter;stroke-width:0.191424;"/>
   </g>
   <g id="patch_44">
    <path clip-path="url(#pfc59a3f7d7)" d="M 397.17 252 
L 405.54 252 
L 405.54 252 
L 397.17 252 
z
" style="fill:#4f4f4f;fill-opacity:0.75;stroke:#000000;stroke-linejoin:miter;stroke-width:0.191424;"/>
   </g>
   <g id="patch_45">
    <path clip-path="url(#pfc59a3f7d7)" d="M 405.54 252 
L 413.91 252 
L 413.91 252 
L 405.54 252 
z
" style="fill:#4f4f4f;fill-opacity:0.75;stroke:#000000;stroke-linejoin:miter;stroke-width:0.191424;"/>
   </g>
   <g id="patch_46">
    <path clip-path="url(#pfc59a3f7d7)" d="M 413.91 252 
L 422.28 252 
L 422.28 252 
L 413.91 252 
z
" style="fill:#4f4f4f;fill-opacity:0.75;stroke:#000000;stroke-linejoin:miter;stroke-width:0.191424;"/>
   </g>
   <g id="patch_47">
    <path clip-path="url(#pfc59a3f7d7)" d="M 422.28 252 
L 430.65 252 
L 430.65 252 
L 422.28 252 
z
" style="fill:#4f4f4f;fill-opacity:0.75;stroke:#000000;stroke-linejoin:miter;stroke-width:0.191424;"/>
   </g>
   <g id="patch_48">
    <path clip-path="url(#pfc59a3f7d7)" d="M 430.65 252 
L 439.02 252 
L 439.02 252 
L 430.65 252 
z
" style="fill:#4f4f4f;fill-opacity:0.75;stroke:#000000;stroke-linejoin:miter;stroke-width:0.191424;"/>
   </g>
   <g id="patch_49">
    <path clip-path="url(#pfc59a3f7d7)" d="M 439.02 252 
L 447.39 252 
L 447.39 252 
L 439.02 252 
z
" style="fill:#4f4f4f;fill-opacity:0.75;stroke:#000000;stroke-linejoin:miter;stroke-width:0.191424;"/>
   </g>
   <g id="patch_50">
    <path clip-path="url(#pfc59a3f7d7)" d="M 447.39 252 
L 455.76 252 
L 455.76 252 
L 447.39 252 
z
" style="fill:#4f4f4f;fill-opacity:0.75;stroke:#000000;stroke-linejoin:miter;stroke-width:0.191424;"/>
   </g>
   <g id="patch_51">
    <path clip-path="url(#pfc59a3f7d7)" d="M 455.76 252 
L 464.13 252 
L 464.13 252 
L 455.76 252 
z
" style="fill:#4f4f4f;fill-opacity:0.75;stroke:#000000;stroke-linejoin:miter;stroke-width:0.191424;"/>
   </g>
   <g id="patch_52">
    <path clip-path="url(#pfc59a3f7d7)" d="M 464.13 252 
L 472.5 252 
L 472.5 252 
L 464.13 252 
z
" style="fill:#4f4f4f;fill-opacity:0.75;stroke:#000000;stroke-linejoin:miter;stroke-width:0.191424;"/>
   </g>
   <g id="patch_53">
    <path clip-path="url(#pfc59a3f7d7)" d="M 472.5 252 
L 480.87 252 
L 480.87 252 
L 472.5 252 
z
" style="fill:#4f4f4f;fill-opacity:0.75;stroke:#000000;stroke-linejoin:miter;stroke-width:0.191424;"/>
   </g>
   <g id="patch_54">
    <path clip-path="url(#pfc59a3f7d7)" d="M 480.87 252 
L 489.24 252 
L 489.24 252 
L 480.87 252 
z
" style="fill:#4f4f4f;fill-opacity:0.75;stroke:#000000;stroke-linejoin:miter;stroke-width:0.191424;"/>
   </g>
   <g id="patch_55">
    <path clip-path="url(#pfc59a3f7d7)" d="M 489.24 252 
L 497.61 252 
L 497.61 252 
L 489.24 252 
z
" style="fill:#4f4f4f;fill-opacity:0.75;stroke:#000000;stroke-linejoin:miter;stroke-width:0.191424;"/>
   </g>
   <g id="patch_56">
    <path clip-path="url(#pfc59a3f7d7)" d="M 497.61 252 
L 505.98 252 
L 505.98 252 
L 497.61 252 
z
" style="fill:#4f4f4f;fill-opacity:0.75;stroke:#000000;stroke-linejoin:miter;stroke-width:0.191424;"/>
   </g>
   <g id="patch_57">
    <path clip-path="url(#pfc59a3f7d7)" d="M 505.98 252 
L 514.35 252 
L 514.35 252 
L 505.98 252 
z
" style="fill:#4f4f4f;fill-opacity:0.75;stroke:#000000;stroke-linejoin:miter;stroke-width:0.191424;"/>
   </g>
   <g id="patch_58">
    <path clip-path="url(#pfc59a3f7d7)" d="M 514.35 252 
L 522.72 252 
L 522.72 252 
L 514.35 252 
z
" style="fill:#4f4f4f;fill-opacity:0.75;stroke:#000000;stroke-linejoin:miter;stroke-width:0.191424;"/>
   </g>
   <g id="patch_59">
    <path clip-path="url(#pfc59a3f7d7)" d="M 522.72 252 
L 531.09 252 
L 531.09 252 
L 522.72 252 
z
" style="fill:#4f4f4f;fill-opacity:0.75;stroke:#000000;stroke-linejoin:miter;stroke-width:0.191424;"/>
   </g>
   <g id="patch_60">
    <path clip-path="url(#pfc59a3f7d7)" d="M 531.09 252 
L 539.46 252 
L 539.46 252 
L 531.09 252 
z
" style="fill:#4f4f4f;fill-opacity:0.75;stroke:#000000;stroke-linejoin:miter;stroke-width:0.191424;"/>
   </g>
   <g id="patch_61">
    <path clip-path="url(#pfc59a3f7d7)" d="M 539.46 252 
L 547.83 252 
L 547.83 252 
L 539.46 252 
z
" style="fill:#4f4f4f;fill-opacity:0.75;stroke:#000000;stroke-linejoin:miter;stroke-width:0.191424;"/>
   </g>
   <g id="patch_62">
    <path clip-path="url(#pfc59a3f7d7)" d="M 547.83 252 
L 556.2 252 
L 556.2 252 
L 547.83 252 
z
" style="fill:#4f4f4f;fill-opacity:0.75;stroke:#000000;stroke-linejoin:miter;stroke-width:0.191424;"/>
   </g>
   <g id="patch_63">
    <path clip-path="url(#pfc59a3f7d7)" d="M 556.2 252 
L 564.57 252 
L 564.57 252 
L 556.2 252 
z
" style="fill:#4f4f4f;fill-opacity:0.75;stroke:#000000;stroke-linejoin:miter;stroke-width:0.191424;"/>
   </g>
   <g id="patch_64">
    <path clip-path="url(#pfc59a3f7d7)" d="M 564.57 252 
L 572.94 252 
L 572.94 252 
L 564.57 252 
z
" style="fill:#4f4f4f;fill-opacity:0.75;stroke:#000000;stroke-linejoin:miter;stroke-width:0.191424;"/>
   </g>
   <g id="patch_65">
    <path clip-path="url(#pfc59a3f7d7)" d="M 572.94 252 
L 581.31 252 
L 581.31 252 
L 572.94 252 
z
" style="fill:#4f4f4f;fill-opacity:0.75;stroke:#000000;stroke-linejoin:miter;stroke-width:0.191424;"/>
   </g>
   <g id="patch_66">
    <path clip-path="url(#pfc59a3f7d7)" d="M 581.31 252 
L 589.68 252 
L 589.68 252 
L 581.31 252 
z
" style="fill:#4f4f4f;fill-opacity:0.75;stroke:#000000;stroke-linejoin:miter;stroke-width:0.191424;"/>
   </g>
   <g id="patch_67">
    <path clip-path="url(#pfc59a3f7d7)" d="M 589.68 252 
L 598.05 252 
L 598.05 252 
L 589.68 252 
z
" style="fill:#4f4f4f;fill-opacity:0.75;stroke:#000000;stroke-linejoin:miter;stroke-width:0.191424;"/>
   </g>
   <g id="patch_68">
    <path clip-path="url(#pfc59a3f7d7)" d="M 598.05 252 
L 606.42 252 
L 606.42 252 
L 598.05 252 
z
" style="fill:#4f4f4f;fill-opacity:0.75;stroke:#000000;stroke-linejoin:miter;stroke-width:0.191424;"/>
   </g>
   <g id="patch_69">
    <path clip-path="url(#pfc59a3f7d7)" d="M 606.42 252 
L 614.79 252 
L 614.79 252 
L 606.42 252 
z
" style="fill:#4f4f4f;fill-opacity:0.75;stroke:#000000;stroke-linejoin:miter;stroke-width:0.191424;"/>
   </g>
   <g id="patch_70">
    <path clip-path="url(#pfc59a3f7d7)" d="M 614.79 252 
L 623.16 252 
L 623.16 252 
L 614.79 252 
z
" style="fill:#4f4f4f;fill-opacity:0.75;stroke:#000000;stroke-linejoin:miter;stroke-width:0.191424;"/>
   </g>
   <g id="patch_71">
    <path clip-path="url(#pfc59a3f7d7)" d="M 623.16 252 
L 631.53 252 
L 631.53 252 
L 623.16 252 
z
" style="fill:#4f4f4f;fill-opacity:0.75;stroke:#000000;stroke-linejoin:miter;stroke-width:0.191424;"/>
   </g>
   <g id="patch_72">
    <path clip-path="url(#pfc59a3f7d7)" d="M 631.53 252 
L 639.9 252 
L 639.9 252 
L 631.53 252 
z
" style="fill:#4f4f4f;fill-opacity:0.75;stroke:#000000;stroke-linejoin:miter;stroke-width:0.191424;"/>
   </g>
   <g id="patch_73">
    <path clip-path="url(#pfc59a3f7d7)" d="M 639.9 252 
L 648.27 252 
L 648.27 252 
L 639.9 252 
z
" style="fill:#4f4f4f;fill-opacity:0.75;stroke:#000000;stroke-linejoin:miter;stroke-width:0.191424;"/>
   </g>
   <g id="patch_74">
    <path clip-path="url(#pfc59a3f7d7)" d="M 648.27 252 
L 656.64 252 
L 656.64 251.821015 
L 648.27 251.821015 
z
" style="fill:#4f4f4f;fill-opacity:0.75;stroke:#000000;stroke-linejoin:miter;stroke-width:0.191424;"/>
   </g>
   <g id="patch_75">
    <path clip-path="url(#pfc59a3f7d7)" d="M 656.64 252 
L 665.01 252 
L 665.01 252 
L 656.64 252 
z
" style="fill:#4f4f4f;fill-opacity:0.75;stroke:#000000;stroke-linejoin:miter;stroke-width:0.191424;"/>
   </g>
   <g id="patch_76">
    <path clip-path="url(#pfc59a3f7d7)" d="M 665.01 252 
L 673.38 252 
L 673.38 252 
L 665.01 252 
z
" style="fill:#4f4f4f;fill-opacity:0.75;stroke:#000000;stroke-linejoin:miter;stroke-width:0.191424;"/>
   </g>
   <g id="patch_77">
    <path clip-path="url(#pfc59a3f7d7)" d="M 673.38 252 
L 681.75 252 
L 681.75 252 
L 673.38 252 
z
" style="fill:#4f4f4f;fill-opacity:0.75;stroke:#000000;stroke-linejoin:miter;stroke-width:0.191424;"/>
   </g>
   <g id="patch_78">
    <path clip-path="url(#pfc59a3f7d7)" d="M 681.75 252 
L 690.12 252 
L 690.12 252 
L 681.75 252 
z
" style="fill:#4f4f4f;fill-opacity:0.75;stroke:#000000;stroke-linejoin:miter;stroke-width:0.191424;"/>
   </g>
   <g id="patch_79">
    <path clip-path="url(#pfc59a3f7d7)" d="M 690.12 252 
L 698.49 252 
L 698.49 252 
L 690.12 252 
z
" style="fill:#4f4f4f;fill-opacity:0.75;stroke:#000000;stroke-linejoin:miter;stroke-width:0.191424;"/>
   </g>
   <g id="patch_80">
    <path clip-path="url(#pfc59a3f7d7)" d="M 698.49 252 
L 706.86 252 
L 706.86 252 
L 698.49 252 
z
" style="fill:#4f4f4f;fill-opacity:0.75;stroke:#000000;stroke-linejoin:miter;stroke-width:0.191424;"/>
   </g>
   <g id="patch_81">
    <path clip-path="url(#pfc59a3f7d7)" d="M 706.86 252 
L 715.23 252 
L 715.23 252 
L 706.86 252 
z
" style="fill:#4f4f4f;fill-opacity:0.75;stroke:#000000;stroke-linejoin:miter;stroke-width:0.191424;"/>
   </g>
   <g id="patch_82">
    <path clip-path="url(#pfc59a3f7d7)" d="M 715.23 252 
L 723.6 252 
L 723.6 252 
L 715.23 252 
z
" style="fill:#4f4f4f;fill-opacity:0.75;stroke:#000000;stroke-linejoin:miter;stroke-width:0.191424;"/>
   </g>
   <g id="patch_83">
    <path clip-path="url(#pfc59a3f7d7)" d="M 723.6 252 
L 731.97 252 
L 731.97 252 
L 723.6 252 
z
" style="fill:#4f4f4f;fill-opacity:0.75;stroke:#000000;stroke-linejoin:miter;stroke-width:0.191424;"/>
   </g>
   <g id="patch_84">
    <path clip-path="url(#pfc59a3f7d7)" d="M 731.97 252 
L 740.34 252 
L 740.34 252 
L 731.97 252 
z
" style="fill:#4f4f4f;fill-opacity:0.75;stroke:#000000;stroke-linejoin:miter;stroke-width:0.191424;"/>
   </g>
   <g id="patch_85">
    <path clip-path="url(#pfc59a3f7d7)" d="M 740.34 252 
L 748.71 252 
L 748.71 252 
L 740.34 252 
z
" style="fill:#4f4f4f;fill-opacity:0.75;stroke:#000000;stroke-linejoin:miter;stroke-width:0.191424;"/>
   </g>
   <g id="patch_86">
    <path clip-path="url(#pfc59a3f7d7)" d="M 748.71 252 
L 757.08 252 
L 757.08 252 
L 748.71 252 
z
" style="fill:#4f4f4f;fill-opacity:0.75;stroke:#000000;stroke-linejoin:miter;stroke-width:0.191424;"/>
   </g>
   <g id="patch_87">
    <path clip-path="url(#pfc59a3f7d7)" d="M 757.08 252 
L 765.45 252 
L 765.45 252 
L 757.08 252 
z
" style="fill:#4f4f4f;fill-opacity:0.75;stroke:#000000;stroke-linejoin:miter;stroke-width:0.191424;"/>
   </g>
   <g id="patch_88">
    <path clip-path="url(#pfc59a3f7d7)" d="M 765.45 252 
L 773.82 252 
L 773.82 252 
L 765.45 252 
z
" style="fill:#4f4f4f;fill-opacity:0.75;stroke:#000000;stroke-linejoin:miter;stroke-width:0.191424;"/>
   </g>
   <g id="patch_89">
    <path clip-path="url(#pfc59a3f7d7)" d="M 773.82 252 
L 782.19 252 
L 782.19 252 
L 773.82 252 
z
" style="fill:#4f4f4f;fill-opacity:0.75;stroke:#000000;stroke-linejoin:miter;stroke-width:0.191424;"/>
   </g>
   <g id="patch_90">
    <path clip-path="url(#pfc59a3f7d7)" d="M 782.19 252 
L 790.56 252 
L 790.56 252 
L 782.19 252 
z
" style="fill:#4f4f4f;fill-opacity:0.75;stroke:#000000;stroke-linejoin:miter;stroke-width:0.191424;"/>
   </g>
   <g id="patch_91">
    <path clip-path="url(#pfc59a3f7d7)" d="M 790.56 252 
L 798.93 252 
L 798.93 252 
L 790.56 252 
z
" style="fill:#4f4f4f;fill-opacity:0.75;stroke:#000000;stroke-linejoin:miter;stroke-width:0.191424;"/>
   </g>
   <g id="patch_92">
    <path clip-path="url(#pfc59a3f7d7)" d="M 798.93 252 
L 807.3 252 
L 807.3 252 
L 798.93 252 
z
" style="fill:#4f4f4f;fill-opacity:0.75;stroke:#000000;stroke-linejoin:miter;stroke-width:0.191424;"/>
   </g>
   <g id="patch_93">
    <path clip-path="url(#pfc59a3f7d7)" d="M 807.3 252 
L 815.67 252 
L 815.67 252 
L 807.3 252 
z
" style="fill:#4f4f4f;fill-opacity:0.75;stroke:#000000;stroke-linejoin:miter;stroke-width:0.191424;"/>
   </g>
   <g id="patch_94">
    <path clip-path="url(#pfc59a3f7d7)" d="M 815.67 252 
L 824.04 252 
L 824.04 252 
L 815.67 252 
z
" style="fill:#4f4f4f;fill-opacity:0.75;stroke:#000000;stroke-linejoin:miter;stroke-width:0.191424;"/>
   </g>
   <g id="patch_95">
    <path clip-path="url(#pfc59a3f7d7)" d="M 824.04 252 
L 832.41 252 
L 832.41 252 
L 824.04 252 
z
" style="fill:#4f4f4f;fill-opacity:0.75;stroke:#000000;stroke-linejoin:miter;stroke-width:0.191424;"/>
   </g>
   <g id="patch_96">
    <path clip-path="url(#pfc59a3f7d7)" d="M 832.41 252 
L 840.78 252 
L 840.78 252 
L 832.41 252 
z
" style="fill:#4f4f4f;fill-opacity:0.75;stroke:#000000;stroke-linejoin:miter;stroke-width:0.191424;"/>
   </g>
   <g id="patch_97">
    <path clip-path="url(#pfc59a3f7d7)" d="M 840.78 252 
L 849.15 252 
L 849.15 252 
L 840.78 252 
z
" style="fill:#4f4f4f;fill-opacity:0.75;stroke:#000000;stroke-linejoin:miter;stroke-width:0.191424;"/>
   </g>
   <g id="patch_98">
    <path clip-path="url(#pfc59a3f7d7)" d="M 849.15 252 
L 857.52 252 
L 857.52 252 
L 849.15 252 
z
" style="fill:#4f4f4f;fill-opacity:0.75;stroke:#000000;stroke-linejoin:miter;stroke-width:0.191424;"/>
   </g>
   <g id="patch_99">
    <path clip-path="url(#pfc59a3f7d7)" d="M 857.52 252 
L 865.89 252 
L 865.89 252 
L 857.52 252 
z
" style="fill:#4f4f4f;fill-opacity:0.75;stroke:#000000;stroke-linejoin:miter;stroke-width:0.191424;"/>
   </g>
   <g id="patch_100">
    <path clip-path="url(#pfc59a3f7d7)" d="M 865.89 252 
L 874.26 252 
L 874.26 252 
L 865.89 252 
z
" style="fill:#4f4f4f;fill-opacity:0.75;stroke:#000000;stroke-linejoin:miter;stroke-width:0.191424;"/>
   </g>
   <g id="patch_101">
    <path clip-path="url(#pfc59a3f7d7)" d="M 874.26 252 
L 882.63 252 
L 882.63 252 
L 874.26 252 
z
" style="fill:#4f4f4f;fill-opacity:0.75;stroke:#000000;stroke-linejoin:miter;stroke-width:0.191424;"/>
   </g>
   <g id="patch_102">
    <path clip-path="url(#pfc59a3f7d7)" d="M 882.63 252 
L 891 252 
L 891 252 
L 882.63 252 
z
" style="fill:#4f4f4f;fill-opacity:0.75;stroke:#000000;stroke-linejoin:miter;stroke-width:0.191424;"/>
   </g>
   <g id="patch_103">
    <path clip-path="url(#pfc59a3f7d7)" d="M 891 252 
L 899.37 252 
L 899.37 252 
L 891 252 
z
" style="fill:#4f4f4f;fill-opacity:0.75;stroke:#000000;stroke-linejoin:miter;stroke-width:0.191424;"/>
   </g>
   <g id="patch_104">
    <path clip-path="url(#pfc59a3f7d7)" d="M 899.37 252 
L 907.74 252 
L 907.74 252 
L 899.37 252 
z
" style="fill:#4f4f4f;fill-opacity:0.75;stroke:#000000;stroke-linejoin:miter;stroke-width:0.191424;"/>
   </g>
   <g id="patch_105">
    <path clip-path="url(#pfc59a3f7d7)" d="M 907.74 252 
L 916.11 252 
L 916.11 252 
L 907.74 252 
z
" style="fill:#4f4f4f;fill-opacity:0.75;stroke:#000000;stroke-linejoin:miter;stroke-width:0.191424;"/>
   </g>
   <g id="patch_106">
    <path clip-path="url(#pfc59a3f7d7)" d="M 916.11 252 
L 924.48 252 
L 924.48 252 
L 916.11 252 
z
" style="fill:#4f4f4f;fill-opacity:0.75;stroke:#000000;stroke-linejoin:miter;stroke-width:0.191424;"/>
   </g>
   <g id="patch_107">
    <path clip-path="url(#pfc59a3f7d7)" d="M 924.48 252 
L 932.85 252 
L 932.85 252 
L 924.48 252 
z
" style="fill:#4f4f4f;fill-opacity:0.75;stroke:#000000;stroke-linejoin:miter;stroke-width:0.191424;"/>
   </g>
   <g id="patch_108">
    <path clip-path="url(#pfc59a3f7d7)" d="M 932.85 252 
L 941.22 252 
L 941.22 252 
L 932.85 252 
z
" style="fill:#4f4f4f;fill-opacity:0.75;stroke:#000000;stroke-linejoin:miter;stroke-width:0.191424;"/>
   </g>
   <g id="patch_109">
    <path clip-path="url(#pfc59a3f7d7)" d="M 941.22 252 
L 949.59 252 
L 949.59 252 
L 941.22 252 
z
" style="fill:#4f4f4f;fill-opacity:0.75;stroke:#000000;stroke-linejoin:miter;stroke-width:0.191424;"/>
   </g>
   <g id="patch_110">
    <path clip-path="url(#pfc59a3f7d7)" d="M 949.59 252 
L 957.96 252 
L 957.96 252 
L 949.59 252 
z
" style="fill:#4f4f4f;fill-opacity:0.75;stroke:#000000;stroke-linejoin:miter;stroke-width:0.191424;"/>
   </g>
   <g id="patch_111">
    <path clip-path="url(#pfc59a3f7d7)" d="M 957.96 252 
L 966.33 252 
L 966.33 252 
L 957.96 252 
z
" style="fill:#4f4f4f;fill-opacity:0.75;stroke:#000000;stroke-linejoin:miter;stroke-width:0.191424;"/>
   </g>
   <g id="patch_112">
    <path clip-path="url(#pfc59a3f7d7)" d="M 966.33 252 
L 974.7 252 
L 974.7 252 
L 966.33 252 
z
" style="fill:#4f4f4f;fill-opacity:0.75;stroke:#000000;stroke-linejoin:miter;stroke-width:0.191424;"/>
   </g>
   <g id="patch_113">
    <path clip-path="url(#pfc59a3f7d7)" d="M 974.7 252 
L 983.07 252 
L 983.07 252 
L 974.7 252 
z
" style="fill:#4f4f4f;fill-opacity:0.75;stroke:#000000;stroke-linejoin:miter;stroke-width:0.191424;"/>
   </g>
   <g id="patch_114">
    <path clip-path="url(#pfc59a3f7d7)" d="M 983.07 252 
L 991.44 252 
L 991.44 252 
L 983.07 252 
z
" style="fill:#4f4f4f;fill-opacity:0.75;stroke:#000000;stroke-linejoin:miter;stroke-width:0.191424;"/>
   </g>
   <g id="patch_115">
    <path clip-path="url(#pfc59a3f7d7)" d="M 991.44 252 
L 999.81 252 
L 999.81 252 
L 991.44 252 
z
" style="fill:#4f4f4f;fill-opacity:0.75;stroke:#000000;stroke-linejoin:miter;stroke-width:0.191424;"/>
   </g>
   <g id="patch_116">
    <path clip-path="url(#pfc59a3f7d7)" d="M 999.81 252 
L 1008.18 252 
L 1008.18 252 
L 999.81 252 
z
" style="fill:#4f4f4f;fill-opacity:0.75;stroke:#000000;stroke-linejoin:miter;stroke-width:0.191424;"/>
   </g>
   <g id="patch_117">
    <path clip-path="url(#pfc59a3f7d7)" d="M 1008.18 252 
L 1016.55 252 
L 1016.55 252 
L 1008.18 252 
z
" style="fill:#4f4f4f;fill-opacity:0.75;stroke:#000000;stroke-linejoin:miter;stroke-width:0.191424;"/>
   </g>
   <g id="patch_118">
    <path clip-path="url(#pfc59a3f7d7)" d="M 1016.55 252 
L 1024.92 252 
L 1024.92 252 
L 1016.55 252 
z
" style="fill:#4f4f4f;fill-opacity:0.75;stroke:#000000;stroke-linejoin:miter;stroke-width:0.191424;"/>
   </g>
   <g id="patch_119">
    <path clip-path="url(#pfc59a3f7d7)" d="M 1024.92 252 
L 1033.29 252 
L 1033.29 252 
L 1024.92 252 
z
" style="fill:#4f4f4f;fill-opacity:0.75;stroke:#000000;stroke-linejoin:miter;stroke-width:0.191424;"/>
   </g>
   <g id="patch_120">
    <path clip-path="url(#pfc59a3f7d7)" d="M 1033.29 252 
L 1041.66 252 
L 1041.66 252 
L 1033.29 252 
z
" style="fill:#4f4f4f;fill-opacity:0.75;stroke:#000000;stroke-linejoin:miter;stroke-width:0.191424;"/>
   </g>
   <g id="patch_121">
    <path clip-path="url(#pfc59a3f7d7)" d="M 1041.66 252 
L 1050.03 252 
L 1050.03 252 
L 1041.66 252 
z
" style="fill:#4f4f4f;fill-opacity:0.75;stroke:#000000;stroke-linejoin:miter;stroke-width:0.191424;"/>
   </g>
   <g id="patch_122">
    <path clip-path="url(#pfc59a3f7d7)" d="M 1050.03 252 
L 1058.4 252 
L 1058.4 252 
L 1050.03 252 
z
" style="fill:#4f4f4f;fill-opacity:0.75;stroke:#000000;stroke-linejoin:miter;stroke-width:0.191424;"/>
   </g>
   <g id="patch_123">
    <path clip-path="url(#pfc59a3f7d7)" d="M 1058.4 252 
L 1066.77 252 
L 1066.77 252 
L 1058.4 252 
z
" style="fill:#4f4f4f;fill-opacity:0.75;stroke:#000000;stroke-linejoin:miter;stroke-width:0.191424;"/>
   </g>
   <g id="patch_124">
    <path clip-path="url(#pfc59a3f7d7)" d="M 1066.77 252 
L 1075.14 252 
L 1075.14 252 
L 1066.77 252 
z
" style="fill:#4f4f4f;fill-opacity:0.75;stroke:#000000;stroke-linejoin:miter;stroke-width:0.191424;"/>
   </g>
   <g id="patch_125">
    <path clip-path="url(#pfc59a3f7d7)" d="M 1075.14 252 
L 1083.51 252 
L 1083.51 252 
L 1075.14 252 
z
" style="fill:#4f4f4f;fill-opacity:0.75;stroke:#000000;stroke-linejoin:miter;stroke-width:0.191424;"/>
   </g>
   <g id="patch_126">
    <path clip-path="url(#pfc59a3f7d7)" d="M 1083.51 252 
L 1091.88 252 
L 1091.88 252 
L 1083.51 252 
z
" style="fill:#4f4f4f;fill-opacity:0.75;stroke:#000000;stroke-linejoin:miter;stroke-width:0.191424;"/>
   </g>
   <g id="patch_127">
    <path clip-path="url(#pfc59a3f7d7)" d="M 1091.88 252 
L 1100.25 252 
L 1100.25 252 
L 1091.88 252 
z
" style="fill:#4f4f4f;fill-opacity:0.75;stroke:#000000;stroke-linejoin:miter;stroke-width:0.191424;"/>
   </g>
   <g id="patch_128">
    <path clip-path="url(#pfc59a3f7d7)" d="M 1100.25 252 
L 1108.62 252 
L 1108.62 252 
L 1100.25 252 
z
" style="fill:#4f4f4f;fill-opacity:0.75;stroke:#000000;stroke-linejoin:miter;stroke-width:0.191424;"/>
   </g>
   <g id="patch_129">
    <path clip-path="url(#pfc59a3f7d7)" d="M 1108.62 252 
L 1116.99 252 
L 1116.99 251.821015 
L 1108.62 251.821015 
z
" style="fill:#4f4f4f;fill-opacity:0.75;stroke:#000000;stroke-linejoin:miter;stroke-width:0.191424;"/>
   </g>
   <g id="patch_130">
    <path clip-path="url(#pfc59a3f7d7)" d="M 1116.99 252 
L 1125.36 252 
L 1125.36 252 
L 1116.99 252 
z
" style="fill:#4f4f4f;fill-opacity:0.75;stroke:#000000;stroke-linejoin:miter;stroke-width:0.191424;"/>
   </g>
   <g id="patch_131">
    <path clip-path="url(#pfc59a3f7d7)" d="M 1125.36 252 
L 1133.73 252 
L 1133.73 252 
L 1125.36 252 
z
" style="fill:#4f4f4f;fill-opacity:0.75;stroke:#000000;stroke-linejoin:miter;stroke-width:0.191424;"/>
   </g>
   <g id="patch_132">
    <path clip-path="url(#pfc59a3f7d7)" d="M 1133.73 252 
L 1142.1 252 
L 1142.1 252 
L 1133.73 252 
z
" style="fill:#4f4f4f;fill-opacity:0.75;stroke:#000000;stroke-linejoin:miter;stroke-width:0.191424;"/>
   </g>
   <g id="patch_133">
    <path clip-path="url(#pfc59a3f7d7)" d="M 1142.1 252 
L 1150.47 252 
L 1150.47 252 
L 1142.1 252 
z
" style="fill:#4f4f4f;fill-opacity:0.75;stroke:#000000;stroke-linejoin:miter;stroke-width:0.191424;"/>
   </g>
   <g id="patch_134">
    <path clip-path="url(#pfc59a3f7d7)" d="M 1150.47 252 
L 1158.84 252 
L 1158.84 252 
L 1150.47 252 
z
" style="fill:#4f4f4f;fill-opacity:0.75;stroke:#000000;stroke-linejoin:miter;stroke-width:0.191424;"/>
   </g>
   <g id="patch_135">
    <path clip-path="url(#pfc59a3f7d7)" d="M 1158.84 252 
L 1167.21 252 
L 1167.21 252 
L 1158.84 252 
z
" style="fill:#4f4f4f;fill-opacity:0.75;stroke:#000000;stroke-linejoin:miter;stroke-width:0.191424;"/>
   </g>
   <g id="patch_136">
    <path clip-path="url(#pfc59a3f7d7)" d="M 1167.21 252 
L 1175.58 252 
L 1175.58 252 
L 1167.21 252 
z
" style="fill:#4f4f4f;fill-opacity:0.75;stroke:#000000;stroke-linejoin:miter;stroke-width:0.191424;"/>
   </g>
   <g id="patch_137">
    <path clip-path="url(#pfc59a3f7d7)" d="M 1175.58 252 
L 1183.95 252 
L 1183.95 252 
L 1175.58 252 
z
" style="fill:#4f4f4f;fill-opacity:0.75;stroke:#000000;stroke-linejoin:miter;stroke-width:0.191424;"/>
   </g>
   <g id="patch_138">
    <path clip-path="url(#pfc59a3f7d7)" d="M 1183.95 252 
L 1192.32 252 
L 1192.32 252 
L 1183.95 252 
z
" style="fill:#4f4f4f;fill-opacity:0.75;stroke:#000000;stroke-linejoin:miter;stroke-width:0.191424;"/>
   </g>
   <g id="patch_139">
    <path clip-path="url(#pfc59a3f7d7)" d="M 1192.32 252 
L 1200.69 252 
L 1200.69 252 
L 1192.32 252 
z
" style="fill:#4f4f4f;fill-opacity:0.75;stroke:#000000;stroke-linejoin:miter;stroke-width:0.191424;"/>
   </g>
   <g id="patch_140">
    <path clip-path="url(#pfc59a3f7d7)" d="M 1200.69 252 
L 1209.06 252 
L 1209.06 252 
L 1200.69 252 
z
" style="fill:#4f4f4f;fill-opacity:0.75;stroke:#000000;stroke-linejoin:miter;stroke-width:0.191424;"/>
   </g>
   <g id="patch_141">
    <path clip-path="url(#pfc59a3f7d7)" d="M 1209.06 252 
L 1217.43 252 
L 1217.43 252 
L 1209.06 252 
z
" style="fill:#4f4f4f;fill-opacity:0.75;stroke:#000000;stroke-linejoin:miter;stroke-width:0.191424;"/>
   </g>
   <g id="patch_142">
    <path clip-path="url(#pfc59a3f7d7)" d="M 1217.43 252 
L 1225.8 252 
L 1225.8 252 
L 1217.43 252 
z
" style="fill:#4f4f4f;fill-opacity:0.75;stroke:#000000;stroke-linejoin:miter;stroke-width:0.191424;"/>
   </g>
   <g id="patch_143">
    <path clip-path="url(#pfc59a3f7d7)" d="M 1225.8 252 
L 1234.17 252 
L 1234.17 252 
L 1225.8 252 
z
" style="fill:#4f4f4f;fill-opacity:0.75;stroke:#000000;stroke-linejoin:miter;stroke-width:0.191424;"/>
   </g>
   <g id="patch_144">
    <path clip-path="url(#pfc59a3f7d7)" d="M 1234.17 252 
L 1242.54 252 
L 1242.54 252 
L 1234.17 252 
z
" style="fill:#4f4f4f;fill-opacity:0.75;stroke:#000000;stroke-linejoin:miter;stroke-width:0.191424;"/>
   </g>
   <g id="patch_145">
    <path clip-path="url(#pfc59a3f7d7)" d="M 1242.54 252 
L 1250.91 252 
L 1250.91 252 
L 1242.54 252 
z
" style="fill:#4f4f4f;fill-opacity:0.75;stroke:#000000;stroke-linejoin:miter;stroke-width:0.191424;"/>
   </g>
   <g id="patch_146">
    <path clip-path="url(#pfc59a3f7d7)" d="M 1250.91 252 
L 1259.28 252 
L 1259.28 252 
L 1250.91 252 
z
" style="fill:#4f4f4f;fill-opacity:0.75;stroke:#000000;stroke-linejoin:miter;stroke-width:0.191424;"/>
   </g>
   <g id="patch_147">
    <path clip-path="url(#pfc59a3f7d7)" d="M 1259.28 252 
L 1267.65 252 
L 1267.65 252 
L 1259.28 252 
z
" style="fill:#4f4f4f;fill-opacity:0.75;stroke:#000000;stroke-linejoin:miter;stroke-width:0.191424;"/>
   </g>
   <g id="patch_148">
    <path clip-path="url(#pfc59a3f7d7)" d="M 1267.65 252 
L 1276.02 252 
L 1276.02 252 
L 1267.65 252 
z
" style="fill:#4f4f4f;fill-opacity:0.75;stroke:#000000;stroke-linejoin:miter;stroke-width:0.191424;"/>
   </g>
   <g id="patch_149">
    <path clip-path="url(#pfc59a3f7d7)" d="M 1276.02 252 
L 1284.39 252 
L 1284.39 252 
L 1276.02 252 
z
" style="fill:#4f4f4f;fill-opacity:0.75;stroke:#000000;stroke-linejoin:miter;stroke-width:0.191424;"/>
   </g>
   <g id="patch_150">
    <path clip-path="url(#pfc59a3f7d7)" d="M 1284.39 252 
L 1292.76 252 
L 1292.76 252 
L 1284.39 252 
z
" style="fill:#4f4f4f;fill-opacity:0.75;stroke:#000000;stroke-linejoin:miter;stroke-width:0.191424;"/>
   </g>
   <g id="patch_151">
    <path clip-path="url(#pfc59a3f7d7)" d="M 1292.76 252 
L 1301.13 252 
L 1301.13 251.821015 
L 1292.76 251.821015 
z
" style="fill:#4f4f4f;fill-opacity:0.75;stroke:#000000;stroke-linejoin:miter;stroke-width:0.191424;"/>
   </g>
   <g id="patch_152">
    <path clip-path="url(#pfc59a3f7d7)" d="M 1301.13 252 
L 1309.5 252 
L 1309.5 252 
L 1301.13 252 
z
" style="fill:#4f4f4f;fill-opacity:0.75;stroke:#000000;stroke-linejoin:miter;stroke-width:0.191424;"/>
   </g>
   <g id="patch_153">
    <path clip-path="url(#pfc59a3f7d7)" d="M 1309.5 252 
L 1317.87 252 
L 1317.87 252 
L 1309.5 252 
z
" style="fill:#4f4f4f;fill-opacity:0.75;stroke:#000000;stroke-linejoin:miter;stroke-width:0.191424;"/>
   </g>
   <g id="patch_154">
    <path clip-path="url(#pfc59a3f7d7)" d="M 1317.87 252 
L 1326.24 252 
L 1326.24 252 
L 1317.87 252 
z
" style="fill:#4f4f4f;fill-opacity:0.75;stroke:#000000;stroke-linejoin:miter;stroke-width:0.191424;"/>
   </g>
   <g id="patch_155">
    <path clip-path="url(#pfc59a3f7d7)" d="M 1326.24 252 
L 1334.61 252 
L 1334.61 252 
L 1326.24 252 
z
" style="fill:#4f4f4f;fill-opacity:0.75;stroke:#000000;stroke-linejoin:miter;stroke-width:0.191424;"/>
   </g>
   <g id="patch_156">
    <path clip-path="url(#pfc59a3f7d7)" d="M 1334.61 252 
L 1342.98 252 
L 1342.98 252 
L 1334.61 252 
z
" style="fill:#4f4f4f;fill-opacity:0.75;stroke:#000000;stroke-linejoin:miter;stroke-width:0.191424;"/>
   </g>
   <g id="patch_157">
    <path clip-path="url(#pfc59a3f7d7)" d="M 1342.98 252 
L 1351.35 252 
L 1351.35 252 
L 1342.98 252 
z
" style="fill:#4f4f4f;fill-opacity:0.75;stroke:#000000;stroke-linejoin:miter;stroke-width:0.191424;"/>
   </g>
   <g id="patch_158">
    <path clip-path="url(#pfc59a3f7d7)" d="M 1351.35 252 
L 1359.72 252 
L 1359.72 252 
L 1351.35 252 
z
" style="fill:#4f4f4f;fill-opacity:0.75;stroke:#000000;stroke-linejoin:miter;stroke-width:0.191424;"/>
   </g>
   <g id="patch_159">
    <path clip-path="url(#pfc59a3f7d7)" d="M 1359.72 252 
L 1368.09 252 
L 1368.09 252 
L 1359.72 252 
z
" style="fill:#4f4f4f;fill-opacity:0.75;stroke:#000000;stroke-linejoin:miter;stroke-width:0.191424;"/>
   </g>
   <g id="patch_160">
    <path clip-path="url(#pfc59a3f7d7)" d="M 1368.09 252 
L 1376.46 252 
L 1376.46 252 
L 1368.09 252 
z
" style="fill:#4f4f4f;fill-opacity:0.75;stroke:#000000;stroke-linejoin:miter;stroke-width:0.191424;"/>
   </g>
   <g id="patch_161">
    <path clip-path="url(#pfc59a3f7d7)" d="M 1376.46 252 
L 1384.83 252 
L 1384.83 252 
L 1376.46 252 
z
" style="fill:#4f4f4f;fill-opacity:0.75;stroke:#000000;stroke-linejoin:miter;stroke-width:0.191424;"/>
   </g>
   <g id="matplotlib.axis_1">
    <g id="xtick_1">
     <g id="line2d_1">
      <defs>
       <path d="M 0 0 
L 0 4.8 
" id="m1ff95f0e38" style="stroke:#000000;"/>
      </defs>
      <g>
       <use style="stroke:#000000;" x="120.96" xlink:href="#m1ff95f0e38" y="252"/>
      </g>
     </g>
     <g id="text_1">
      <!-- 2 -->
      <defs>
       <path d="M 19.1875 8.296875 
L 53.609375 8.296875 
L 53.609375 0 
L 7.328125 0 
L 7.328125 8.296875 
Q 12.9375 14.109375 22.625 23.890625 
Q 32.328125 33.6875 34.8125 36.53125 
Q 39.546875 41.84375 41.421875 45.53125 
Q 43.3125 49.21875 43.3125 52.78125 
Q 43.3125 58.59375 39.234375 62.25 
Q 35.15625 65.921875 28.609375 65.921875 
Q 23.96875 65.921875 18.8125 64.3125 
Q 13.671875 62.703125 7.8125 59.421875 
L 7.8125 69.390625 
Q 13.765625 71.78125 18.9375 73 
Q 24.125 74.21875 28.421875 74.21875 
Q 39.75 74.21875 46.484375 68.546875 
Q 53.21875 62.890625 53.21875 53.421875 
Q 53.21875 48.921875 51.53125 44.890625 
Q 49.859375 40.875 45.40625 35.40625 
Q 44.1875 33.984375 37.640625 27.21875 
Q 31.109375 20.453125 19.1875 8.296875 
z
" id="DejaVuSans-50"/>
      </defs>
      <g transform="translate(115.361 273.67325)scale(0.176 -0.176)">
       <use xlink:href="#DejaVuSans-50"/>
      </g>
     </g>
    </g>
    <g id="xtick_2">
     <g id="line2d_2">
      <g>
       <use style="stroke:#000000;" x="187.92" xlink:href="#m1ff95f0e38" y="252"/>
      </g>
     </g>
     <g id="text_2">
      <!-- 4 -->
      <defs>
       <path d="M 37.796875 64.3125 
L 12.890625 25.390625 
L 37.796875 25.390625 
z
M 35.203125 72.90625 
L 47.609375 72.90625 
L 47.609375 25.390625 
L 58.015625 25.390625 
L 58.015625 17.1875 
L 47.609375 17.1875 
L 47.609375 0 
L 37.796875 0 
L 37.796875 17.1875 
L 4.890625 17.1875 
L 4.890625 26.703125 
z
" id="DejaVuSans-52"/>
      </defs>
      <g transform="translate(182.321 273.67325)scale(0.176 -0.176)">
       <use xlink:href="#DejaVuSans-52"/>
      </g>
     </g>
    </g>
    <g id="xtick_3">
     <g id="line2d_3">
      <g>
       <use style="stroke:#000000;" x="254.88" xlink:href="#m1ff95f0e38" y="252"/>
      </g>
     </g>
     <g id="text_3">
      <!-- 6 -->
      <defs>
       <path d="M 33.015625 40.375 
Q 26.375 40.375 22.484375 35.828125 
Q 18.609375 31.296875 18.609375 23.390625 
Q 18.609375 15.53125 22.484375 10.953125 
Q 26.375 6.390625 33.015625 6.390625 
Q 39.65625 6.390625 43.53125 10.953125 
Q 47.40625 15.53125 47.40625 23.390625 
Q 47.40625 31.296875 43.53125 35.828125 
Q 39.65625 40.375 33.015625 40.375 
z
M 52.59375 71.296875 
L 52.59375 62.3125 
Q 48.875 64.0625 45.09375 64.984375 
Q 41.3125 65.921875 37.59375 65.921875 
Q 27.828125 65.921875 22.671875 59.328125 
Q 17.53125 52.734375 16.796875 39.40625 
Q 19.671875 43.65625 24.015625 45.921875 
Q 28.375 48.1875 33.59375 48.1875 
Q 44.578125 48.1875 50.953125 41.515625 
Q 57.328125 34.859375 57.328125 23.390625 
Q 57.328125 12.15625 50.6875 5.359375 
Q 44.046875 -1.421875 33.015625 -1.421875 
Q 20.359375 -1.421875 13.671875 8.265625 
Q 6.984375 17.96875 6.984375 36.375 
Q 6.984375 53.65625 15.1875 63.9375 
Q 23.390625 74.21875 37.203125 74.21875 
Q 40.921875 74.21875 44.703125 73.484375 
Q 48.484375 72.75 52.59375 71.296875 
z
" id="DejaVuSans-54"/>
      </defs>
      <g transform="translate(249.281 273.67325)scale(0.176 -0.176)">
       <use xlink:href="#DejaVuSans-54"/>
      </g>
     </g>
    </g>
    <g id="xtick_4">
     <g id="line2d_4">
      <g>
       <use style="stroke:#000000;" x="321.84" xlink:href="#m1ff95f0e38" y="252"/>
      </g>
     </g>
     <g id="text_4">
      <!-- 8 -->
      <defs>
       <path d="M 31.78125 34.625 
Q 24.75 34.625 20.71875 30.859375 
Q 16.703125 27.09375 16.703125 20.515625 
Q 16.703125 13.921875 20.71875 10.15625 
Q 24.75 6.390625 31.78125 6.390625 
Q 38.8125 6.390625 42.859375 10.171875 
Q 46.921875 13.96875 46.921875 20.515625 
Q 46.921875 27.09375 42.890625 30.859375 
Q 38.875 34.625 31.78125 34.625 
z
M 21.921875 38.8125 
Q 15.578125 40.375 12.03125 44.71875 
Q 8.5 49.078125 8.5 55.328125 
Q 8.5 64.0625 14.71875 69.140625 
Q 20.953125 74.21875 31.78125 74.21875 
Q 42.671875 74.21875 48.875 69.140625 
Q 55.078125 64.0625 55.078125 55.328125 
Q 55.078125 49.078125 51.53125 44.71875 
Q 48 40.375 41.703125 38.8125 
Q 48.828125 37.15625 52.796875 32.3125 
Q 56.78125 27.484375 56.78125 20.515625 
Q 56.78125 9.90625 50.3125 4.234375 
Q 43.84375 -1.421875 31.78125 -1.421875 
Q 19.734375 -1.421875 13.25 4.234375 
Q 6.78125 9.90625 6.78125 20.515625 
Q 6.78125 27.484375 10.78125 32.3125 
Q 14.796875 37.15625 21.921875 38.8125 
z
M 18.3125 54.390625 
Q 18.3125 48.734375 21.84375 45.5625 
Q 25.390625 42.390625 31.78125 42.390625 
Q 38.140625 42.390625 41.71875 45.5625 
Q 45.3125 48.734375 45.3125 54.390625 
Q 45.3125 60.0625 41.71875 63.234375 
Q 38.140625 66.40625 31.78125 66.40625 
Q 25.390625 66.40625 21.84375 63.234375 
Q 18.3125 60.0625 18.3125 54.390625 
z
" id="DejaVuSans-56"/>
      </defs>
      <g transform="translate(316.241 273.67325)scale(0.176 -0.176)">
       <use xlink:href="#DejaVuSans-56"/>
      </g>
     </g>
    </g>
    <g id="xtick_5">
     <g id="line2d_5">
      <g>
       <use style="stroke:#000000;" x="388.8" xlink:href="#m1ff95f0e38" y="252"/>
      </g>
     </g>
     <g id="text_5">
      <!-- 10 -->
      <defs>
       <path d="M 12.40625 8.296875 
L 28.515625 8.296875 
L 28.515625 63.921875 
L 10.984375 60.40625 
L 10.984375 69.390625 
L 28.421875 72.90625 
L 38.28125 72.90625 
L 38.28125 8.296875 
L 54.390625 8.296875 
L 54.390625 0 
L 12.40625 0 
z
" id="DejaVuSans-49"/>
       <path d="M 31.78125 66.40625 
Q 24.171875 66.40625 20.328125 58.90625 
Q 16.5 51.421875 16.5 36.375 
Q 16.5 21.390625 20.328125 13.890625 
Q 24.171875 6.390625 31.78125 6.390625 
Q 39.453125 6.390625 43.28125 13.890625 
Q 47.125 21.390625 47.125 36.375 
Q 47.125 51.421875 43.28125 58.90625 
Q 39.453125 66.40625 31.78125 66.40625 
z
M 31.78125 74.21875 
Q 44.046875 74.21875 50.515625 64.515625 
Q 56.984375 54.828125 56.984375 36.375 
Q 56.984375 17.96875 50.515625 8.265625 
Q 44.046875 -1.421875 31.78125 -1.421875 
Q 19.53125 -1.421875 13.0625 8.265625 
Q 6.59375 17.96875 6.59375 36.375 
Q 6.59375 54.828125 13.0625 64.515625 
Q 19.53125 74.21875 31.78125 74.21875 
z
" id="DejaVuSans-48"/>
      </defs>
      <g transform="translate(377.602 273.67325)scale(0.176 -0.176)">
       <use xlink:href="#DejaVuSans-49"/>
       <use x="63.623047" xlink:href="#DejaVuSans-48"/>
      </g>
     </g>
    </g>
    <g id="text_6">
     <!-- SV-Node Length (kb) -->
     <defs>
      <path d="M 53.515625 70.515625 
L 53.515625 60.890625 
Q 47.90625 63.578125 42.921875 64.890625 
Q 37.9375 66.21875 33.296875 66.21875 
Q 25.25 66.21875 20.875 63.09375 
Q 16.5 59.96875 16.5 54.203125 
Q 16.5 49.359375 19.40625 46.890625 
Q 22.3125 44.4375 30.421875 42.921875 
L 36.375 41.703125 
Q 47.40625 39.59375 52.65625 34.296875 
Q 57.90625 29 57.90625 20.125 
Q 57.90625 9.515625 50.796875 4.046875 
Q 43.703125 -1.421875 29.984375 -1.421875 
Q 24.8125 -1.421875 18.96875 -0.25 
Q 13.140625 0.921875 6.890625 3.21875 
L 6.890625 13.375 
Q 12.890625 10.015625 18.65625 8.296875 
Q 24.421875 6.59375 29.984375 6.59375 
Q 38.421875 6.59375 43.015625 9.90625 
Q 47.609375 13.234375 47.609375 19.390625 
Q 47.609375 24.75 44.3125 27.78125 
Q 41.015625 30.8125 33.5 32.328125 
L 27.484375 33.5 
Q 16.453125 35.6875 11.515625 40.375 
Q 6.59375 45.0625 6.59375 53.421875 
Q 6.59375 63.09375 13.40625 68.65625 
Q 20.21875 74.21875 32.171875 74.21875 
Q 37.3125 74.21875 42.625 73.28125 
Q 47.953125 72.359375 53.515625 70.515625 
z
" id="DejaVuSans-83"/>
      <path d="M 28.609375 0 
L 0.78125 72.90625 
L 11.078125 72.90625 
L 34.1875 11.53125 
L 57.328125 72.90625 
L 67.578125 72.90625 
L 39.796875 0 
z
" id="DejaVuSans-86"/>
      <path d="M 4.890625 31.390625 
L 31.203125 31.390625 
L 31.203125 23.390625 
L 4.890625 23.390625 
z
" id="DejaVuSans-45"/>
      <path d="M 9.8125 72.90625 
L 23.09375 72.90625 
L 55.421875 11.921875 
L 55.421875 72.90625 
L 64.984375 72.90625 
L 64.984375 0 
L 51.703125 0 
L 19.390625 60.984375 
L 19.390625 0 
L 9.8125 0 
z
" id="DejaVuSans-78"/>
      <path d="M 30.609375 48.390625 
Q 23.390625 48.390625 19.1875 42.75 
Q 14.984375 37.109375 14.984375 27.296875 
Q 14.984375 17.484375 19.15625 11.84375 
Q 23.34375 6.203125 30.609375 6.203125 
Q 37.796875 6.203125 41.984375 11.859375 
Q 46.1875 17.53125 46.1875 27.296875 
Q 46.1875 37.015625 41.984375 42.703125 
Q 37.796875 48.390625 30.609375 48.390625 
z
M 30.609375 56 
Q 42.328125 56 49.015625 48.375 
Q 55.71875 40.765625 55.71875 27.296875 
Q 55.71875 13.875 49.015625 6.21875 
Q 42.328125 -1.421875 30.609375 -1.421875 
Q 18.84375 -1.421875 12.171875 6.21875 
Q 5.515625 13.875 5.515625 27.296875 
Q 5.515625 40.765625 12.171875 48.375 
Q 18.84375 56 30.609375 56 
z
" id="DejaVuSans-111"/>
      <path d="M 45.40625 46.390625 
L 45.40625 75.984375 
L 54.390625 75.984375 
L 54.390625 0 
L 45.40625 0 
L 45.40625 8.203125 
Q 42.578125 3.328125 38.25 0.953125 
Q 33.9375 -1.421875 27.875 -1.421875 
Q 17.96875 -1.421875 11.734375 6.484375 
Q 5.515625 14.40625 5.515625 27.296875 
Q 5.515625 40.1875 11.734375 48.09375 
Q 17.96875 56 27.875 56 
Q 33.9375 56 38.25 53.625 
Q 42.578125 51.265625 45.40625 46.390625 
z
M 14.796875 27.296875 
Q 14.796875 17.390625 18.875 11.75 
Q 22.953125 6.109375 30.078125 6.109375 
Q 37.203125 6.109375 41.296875 11.75 
Q 45.40625 17.390625 45.40625 27.296875 
Q 45.40625 37.203125 41.296875 42.84375 
Q 37.203125 48.484375 30.078125 48.484375 
Q 22.953125 48.484375 18.875 42.84375 
Q 14.796875 37.203125 14.796875 27.296875 
z
" id="DejaVuSans-100"/>
      <path d="M 56.203125 29.59375 
L 56.203125 25.203125 
L 14.890625 25.203125 
Q 15.484375 15.921875 20.484375 11.0625 
Q 25.484375 6.203125 34.421875 6.203125 
Q 39.59375 6.203125 44.453125 7.46875 
Q 49.3125 8.734375 54.109375 11.28125 
L 54.109375 2.78125 
Q 49.265625 0.734375 44.1875 -0.34375 
Q 39.109375 -1.421875 33.890625 -1.421875 
Q 20.796875 -1.421875 13.15625 6.1875 
Q 5.515625 13.8125 5.515625 26.8125 
Q 5.515625 40.234375 12.765625 48.109375 
Q 20.015625 56 32.328125 56 
Q 43.359375 56 49.78125 48.890625 
Q 56.203125 41.796875 56.203125 29.59375 
z
M 47.21875 32.234375 
Q 47.125 39.59375 43.09375 43.984375 
Q 39.0625 48.390625 32.421875 48.390625 
Q 24.90625 48.390625 20.390625 44.140625 
Q 15.875 39.890625 15.1875 32.171875 
z
" id="DejaVuSans-101"/>
      <path id="DejaVuSans-32"/>
      <path d="M 9.8125 72.90625 
L 19.671875 72.90625 
L 19.671875 8.296875 
L 55.171875 8.296875 
L 55.171875 0 
L 9.8125 0 
z
" id="DejaVuSans-76"/>
      <path d="M 54.890625 33.015625 
L 54.890625 0 
L 45.90625 0 
L 45.90625 32.71875 
Q 45.90625 40.484375 42.875 44.328125 
Q 39.84375 48.1875 33.796875 48.1875 
Q 26.515625 48.1875 22.3125 43.546875 
Q 18.109375 38.921875 18.109375 30.90625 
L 18.109375 0 
L 9.078125 0 
L 9.078125 54.6875 
L 18.109375 54.6875 
L 18.109375 46.1875 
Q 21.34375 51.125 25.703125 53.5625 
Q 30.078125 56 35.796875 56 
Q 45.21875 56 50.046875 50.171875 
Q 54.890625 44.34375 54.890625 33.015625 
z
" id="DejaVuSans-110"/>
      <path d="M 45.40625 27.984375 
Q 45.40625 37.75 41.375 43.109375 
Q 37.359375 48.484375 30.078125 48.484375 
Q 22.859375 48.484375 18.828125 43.109375 
Q 14.796875 37.75 14.796875 27.984375 
Q 14.796875 18.265625 18.828125 12.890625 
Q 22.859375 7.515625 30.078125 7.515625 
Q 37.359375 7.515625 41.375 12.890625 
Q 45.40625 18.265625 45.40625 27.984375 
z
M 54.390625 6.78125 
Q 54.390625 -7.171875 48.1875 -13.984375 
Q 42 -20.796875 29.203125 -20.796875 
Q 24.46875 -20.796875 20.265625 -20.09375 
Q 16.0625 -19.390625 12.109375 -17.921875 
L 12.109375 -9.1875 
Q 16.0625 -11.328125 19.921875 -12.34375 
Q 23.78125 -13.375 27.78125 -13.375 
Q 36.625 -13.375 41.015625 -8.765625 
Q 45.40625 -4.15625 45.40625 5.171875 
L 45.40625 9.625 
Q 42.625 4.78125 38.28125 2.390625 
Q 33.9375 0 27.875 0 
Q 17.828125 0 11.671875 7.65625 
Q 5.515625 15.328125 5.515625 27.984375 
Q 5.515625 40.671875 11.671875 48.328125 
Q 17.828125 56 27.875 56 
Q 33.9375 56 38.28125 53.609375 
Q 42.625 51.21875 45.40625 46.390625 
L 45.40625 54.6875 
L 54.390625 54.6875 
z
" id="DejaVuSans-103"/>
      <path d="M 18.3125 70.21875 
L 18.3125 54.6875 
L 36.8125 54.6875 
L 36.8125 47.703125 
L 18.3125 47.703125 
L 18.3125 18.015625 
Q 18.3125 11.328125 20.140625 9.421875 
Q 21.96875 7.515625 27.59375 7.515625 
L 36.8125 7.515625 
L 36.8125 0 
L 27.59375 0 
Q 17.1875 0 13.234375 3.875 
Q 9.28125 7.765625 9.28125 18.015625 
L 9.28125 47.703125 
L 2.6875 47.703125 
L 2.6875 54.6875 
L 9.28125 54.6875 
L 9.28125 70.21875 
z
" id="DejaVuSans-116"/>
      <path d="M 54.890625 33.015625 
L 54.890625 0 
L 45.90625 0 
L 45.90625 32.71875 
Q 45.90625 40.484375 42.875 44.328125 
Q 39.84375 48.1875 33.796875 48.1875 
Q 26.515625 48.1875 22.3125 43.546875 
Q 18.109375 38.921875 18.109375 30.90625 
L 18.109375 0 
L 9.078125 0 
L 9.078125 75.984375 
L 18.109375 75.984375 
L 18.109375 46.1875 
Q 21.34375 51.125 25.703125 53.5625 
Q 30.078125 56 35.796875 56 
Q 45.21875 56 50.046875 50.171875 
Q 54.890625 44.34375 54.890625 33.015625 
z
" id="DejaVuSans-104"/>
      <path d="M 31 75.875 
Q 24.46875 64.65625 21.28125 53.65625 
Q 18.109375 42.671875 18.109375 31.390625 
Q 18.109375 20.125 21.3125 9.0625 
Q 24.515625 -2 31 -13.1875 
L 23.1875 -13.1875 
Q 15.875 -1.703125 12.234375 9.375 
Q 8.59375 20.453125 8.59375 31.390625 
Q 8.59375 42.28125 12.203125 53.3125 
Q 15.828125 64.359375 23.1875 75.875 
z
" id="DejaVuSans-40"/>
      <path d="M 9.078125 75.984375 
L 18.109375 75.984375 
L 18.109375 31.109375 
L 44.921875 54.6875 
L 56.390625 54.6875 
L 27.390625 29.109375 
L 57.625 0 
L 45.90625 0 
L 18.109375 26.703125 
L 18.109375 0 
L 9.078125 0 
z
" id="DejaVuSans-107"/>
      <path d="M 48.6875 27.296875 
Q 48.6875 37.203125 44.609375 42.84375 
Q 40.53125 48.484375 33.40625 48.484375 
Q 26.265625 48.484375 22.1875 42.84375 
Q 18.109375 37.203125 18.109375 27.296875 
Q 18.109375 17.390625 22.1875 11.75 
Q 26.265625 6.109375 33.40625 6.109375 
Q 40.53125 6.109375 44.609375 11.75 
Q 48.6875 17.390625 48.6875 27.296875 
z
M 18.109375 46.390625 
Q 20.953125 51.265625 25.265625 53.625 
Q 29.59375 56 35.59375 56 
Q 45.5625 56 51.78125 48.09375 
Q 58.015625 40.1875 58.015625 27.296875 
Q 58.015625 14.40625 51.78125 6.484375 
Q 45.5625 -1.421875 35.59375 -1.421875 
Q 29.59375 -1.421875 25.265625 0.953125 
Q 20.953125 3.328125 18.109375 8.203125 
L 18.109375 0 
L 9.078125 0 
L 9.078125 75.984375 
L 18.109375 75.984375 
z
" id="DejaVuSans-98"/>
      <path d="M 8.015625 75.875 
L 15.828125 75.875 
Q 23.140625 64.359375 26.78125 53.3125 
Q 30.421875 42.28125 30.421875 31.390625 
Q 30.421875 20.453125 26.78125 9.375 
Q 23.140625 -1.703125 15.828125 -13.1875 
L 8.015625 -13.1875 
Q 14.5 -2 17.703125 9.0625 
Q 20.90625 20.125 20.90625 31.390625 
Q 20.90625 42.671875 17.703125 53.65625 
Q 14.5 64.65625 8.015625 75.875 
z
" id="DejaVuSans-41"/>
     </defs>
     <g transform="translate(121.698 295.9225)scale(0.192 -0.192)">
      <use xlink:href="#DejaVuSans-83"/>
      <use x="63.476562" xlink:href="#DejaVuSans-86"/>
      <use x="131.806641" xlink:href="#DejaVuSans-45"/>
      <use x="167.890625" xlink:href="#DejaVuSans-78"/>
      <use x="242.695312" xlink:href="#DejaVuSans-111"/>
      <use x="303.876953" xlink:href="#DejaVuSans-100"/>
      <use x="367.353516" xlink:href="#DejaVuSans-101"/>
      <use x="428.876953" xlink:href="#DejaVuSans-32"/>
      <use x="460.664062" xlink:href="#DejaVuSans-76"/>
      <use x="516.361328" xlink:href="#DejaVuSans-101"/>
      <use x="577.884766" xlink:href="#DejaVuSans-110"/>
      <use x="641.263672" xlink:href="#DejaVuSans-103"/>
      <use x="704.740234" xlink:href="#DejaVuSans-116"/>
      <use x="743.949219" xlink:href="#DejaVuSans-104"/>
      <use x="807.328125" xlink:href="#DejaVuSans-32"/>
      <use x="839.115234" xlink:href="#DejaVuSans-40"/>
      <use x="878.128906" xlink:href="#DejaVuSans-107"/>
      <use x="936.039062" xlink:href="#DejaVuSans-98"/>
      <use x="999.515625" xlink:href="#DejaVuSans-41"/>
     </g>
    </g>
   </g>
   <g id="matplotlib.axis_2">
    <g id="ytick_1">
     <g id="line2d_6">
      <defs>
       <path d="M 0 0 
L -4.8 0 
" id="m6c673bc3e3" style="stroke:#000000;"/>
      </defs>
      <g>
       <use style="stroke:#000000;" x="54" xlink:href="#m6c673bc3e3" y="252"/>
      </g>
     </g>
     <g id="text_7">
      <!-- 0 -->
      <g transform="translate(34.502 258.686625)scale(0.176 -0.176)">
       <use xlink:href="#DejaVuSans-48"/>
      </g>
     </g>
    </g>
    <g id="ytick_2">
     <g id="line2d_7">
      <g>
       <use style="stroke:#000000;" x="54" xlink:href="#m6c673bc3e3" y="207.253735"/>
      </g>
     </g>
     <g id="text_8">
      <!-- 250 -->
      <defs>
       <path d="M 10.796875 72.90625 
L 49.515625 72.90625 
L 49.515625 64.59375 
L 19.828125 64.59375 
L 19.828125 46.734375 
Q 21.96875 47.46875 24.109375 47.828125 
Q 26.265625 48.1875 28.421875 48.1875 
Q 40.625 48.1875 47.75 41.5 
Q 54.890625 34.8125 54.890625 23.390625 
Q 54.890625 11.625 47.5625 5.09375 
Q 40.234375 -1.421875 26.90625 -1.421875 
Q 22.3125 -1.421875 17.546875 -0.640625 
Q 12.796875 0.140625 7.71875 1.703125 
L 7.71875 11.625 
Q 12.109375 9.234375 16.796875 8.0625 
Q 21.484375 6.890625 26.703125 6.890625 
Q 35.15625 6.890625 40.078125 11.328125 
Q 45.015625 15.765625 45.015625 23.390625 
Q 45.015625 31 40.078125 35.4375 
Q 35.15625 39.890625 26.703125 39.890625 
Q 22.75 39.890625 18.8125 39.015625 
Q 14.890625 38.140625 10.796875 36.28125 
z
" id="DejaVuSans-53"/>
      </defs>
      <g transform="translate(12.106 213.94036)scale(0.176 -0.176)">
       <use xlink:href="#DejaVuSans-50"/>
       <use x="63.623047" xlink:href="#DejaVuSans-53"/>
       <use x="127.246094" xlink:href="#DejaVuSans-48"/>
      </g>
     </g>
    </g>
    <g id="ytick_3">
     <g id="line2d_8">
      <g>
       <use style="stroke:#000000;" x="54" xlink:href="#m6c673bc3e3" y="162.50747"/>
      </g>
     </g>
     <g id="text_9">
      <!-- 500 -->
      <g transform="translate(12.106 169.194095)scale(0.176 -0.176)">
       <use xlink:href="#DejaVuSans-53"/>
       <use x="63.623047" xlink:href="#DejaVuSans-48"/>
       <use x="127.246094" xlink:href="#DejaVuSans-48"/>
      </g>
     </g>
    </g>
    <g id="ytick_4">
     <g id="line2d_9">
      <g>
       <use style="stroke:#000000;" x="54" xlink:href="#m6c673bc3e3" y="117.761205"/>
      </g>
     </g>
     <g id="text_10">
      <!-- 750 -->
      <defs>
       <path d="M 8.203125 72.90625 
L 55.078125 72.90625 
L 55.078125 68.703125 
L 28.609375 0 
L 18.3125 0 
L 43.21875 64.59375 
L 8.203125 64.59375 
z
" id="DejaVuSans-55"/>
      </defs>
      <g transform="translate(12.106 124.44783)scale(0.176 -0.176)">
       <use xlink:href="#DejaVuSans-55"/>
       <use x="63.623047" xlink:href="#DejaVuSans-53"/>
       <use x="127.246094" xlink:href="#DejaVuSans-48"/>
      </g>
     </g>
    </g>
    <g id="ytick_5">
     <g id="line2d_10">
      <g>
       <use style="stroke:#000000;" x="54" xlink:href="#m6c673bc3e3" y="73.01494"/>
      </g>
     </g>
     <g id="text_11">
      <!-- 1000 -->
      <g transform="translate(0.908 79.701565)scale(0.176 -0.176)">
       <use xlink:href="#DejaVuSans-49"/>
       <use x="63.623047" xlink:href="#DejaVuSans-48"/>
       <use x="127.246094" xlink:href="#DejaVuSans-48"/>
       <use x="190.869141" xlink:href="#DejaVuSans-48"/>
      </g>
     </g>
    </g>
    <g id="text_12">
     <!-- Count -->
     <defs>
      <path d="M 64.40625 67.28125 
L 64.40625 56.890625 
Q 59.421875 61.53125 53.78125 63.8125 
Q 48.140625 66.109375 41.796875 66.109375 
Q 29.296875 66.109375 22.65625 58.46875 
Q 16.015625 50.828125 16.015625 36.375 
Q 16.015625 21.96875 22.65625 14.328125 
Q 29.296875 6.6875 41.796875 6.6875 
Q 48.140625 6.6875 53.78125 8.984375 
Q 59.421875 11.28125 64.40625 15.921875 
L 64.40625 5.609375 
Q 59.234375 2.09375 53.4375 0.328125 
Q 47.65625 -1.421875 41.21875 -1.421875 
Q 24.65625 -1.421875 15.125 8.703125 
Q 5.609375 18.84375 5.609375 36.375 
Q 5.609375 53.953125 15.125 64.078125 
Q 24.65625 74.21875 41.21875 74.21875 
Q 47.75 74.21875 53.53125 72.484375 
Q 59.328125 70.75 64.40625 67.28125 
z
" id="DejaVuSans-67"/>
      <path d="M 8.5 21.578125 
L 8.5 54.6875 
L 17.484375 54.6875 
L 17.484375 21.921875 
Q 17.484375 14.15625 20.5 10.265625 
Q 23.53125 6.390625 29.59375 6.390625 
Q 36.859375 6.390625 41.078125 11.03125 
Q 45.3125 15.671875 45.3125 23.6875 
L 45.3125 54.6875 
L 54.296875 54.6875 
L 54.296875 0 
L 45.3125 0 
L 45.3125 8.40625 
Q 42.046875 3.421875 37.71875 1 
Q 33.40625 -1.421875 27.6875 -1.421875 
Q 18.265625 -1.421875 13.375 4.4375 
Q 8.5 10.296875 8.5 21.578125 
z
M 31.109375 56 
z
" id="DejaVuSans-117"/>
     </defs>
     <g transform="translate(-7.085 171.789)rotate(-90)scale(0.192 -0.192)">
      <use xlink:href="#DejaVuSans-67"/>
      <use x="69.824219" xlink:href="#DejaVuSans-111"/>
      <use x="131.005859" xlink:href="#DejaVuSans-117"/>
      <use x="194.384766" xlink:href="#DejaVuSans-110"/>
      <use x="257.763672" xlink:href="#DejaVuSans-116"/>
     </g>
    </g>
   </g>
   <g id="patch_162">
    <path d="M 54 252 
L 54 34.56 
" style="fill:none;stroke:#000000;stroke-linecap:square;stroke-linejoin:miter;"/>
   </g>
   <g id="patch_163">
    <path d="M 54 252 
L 388.8 252 
" style="fill:none;stroke:#000000;stroke-linecap:square;stroke-linejoin:miter;"/>
   </g>
  </g>
 </g>
 <defs>
  <clipPath id="pfc59a3f7d7">
   <rect height="217.44" width="334.8" x="54" y="34.56"/>
  </clipPath>
 </defs>
</svg>
